/* XPM */
static char *c65f318caf314fe89f9405a248860611KHFrWRcY8zT0i5iW[] = {
/* columns rows colors chars-per-pixel */
"25 25 135 2 ",
"   c #FEFF75",
".  c #FEFE7C",
"X  c #FEFE83",
"o  c #F7FE8C",
"O  c #FDFE8B",
"+  c #F6FC90",
"@  c #FDFD93",
"#  c #F7FC9E",
"$  c #FBFD9B",
"%  c #F7FBA7",
"&  c #FDFEA2",
"*  c #F8FAA6",
"=  c #F8FEA4",
"-  c #FAFDA6",
";  c #FBFFA6",
":  c #FDFFA5",
">  c #FCFCA6",
",  c #FEFCA7",
"<  c #FCFFA6",
"1  c #FAFDA4",
"2  c #F7FAA9",
"3  c #F6FBA9",
"4  c #FAF8AB",
"5  c #FCFBA8",
"6  c #F9FDA8",
"7  c #F9FDA9",
"8  c #FAFCA9",
"9  c #FBFFAB",
"0  c #FFFCA8",
"q  c #FCFAAD",
"w  c #FBFCAC",
"e  c #F9FBAB",
"r  c #FAF7B0",
"t  c #F7FAB3",
"y  c #FBFCB0",
"u  c #FAFCB1",
"i  c #FBFFB2",
"p  c #FAFFB3",
"a  c #FCFDB1",
"s  c #FAFDB6",
"d  c #F9FAB8",
"f  c #FCFBBB",
"g  c #FDFDBF",
"h  c #FBFFBE",
"j  c #FEFFC4",
"k  c #FFFFCA",
"l  c #FFFFCC",
"z  c #FEFFCC",
"x  c #FFFFD0",
"c  c #FEFFD1",
"v  c #FFFFD1",
"b  c #FFFFD2",
"n  c #FFFFD3",
"m  c #FFFFD4",
"M  c #FEFFD5",
"N  c #FFFFD5",
"B  c #FFFFD6",
"V  c #FDFFD1",
"C  c #FFFDD9",
"Z  c #FFFED8",
"A  c #FFFFD8",
"S  c #FFFFD9",
"D  c #FFFDDB",
"F  c #FFFFDA",
"G  c #FFFFDB",
"H  c #FFFCDC",
"J  c #FFFDDD",
"K  c #FFFFDC",
"L  c #FFFFDD",
"P  c #FFFEDF",
"I  c #FFFFDE",
"U  c #FFFDE0",
"Y  c #FFFFE3",
"T  c #FFFFE4",
"R  c #FFFFE6",
"E  c #FFFFE4",
"W  c #FFFDE9",
"Q  c #FFFFEB",
"!  c #FFFFEC",
"~  c #FFFFED",
"^  c #FDFFEE",
"/  c #FEFFEE",
"(  c #FFFFEE",
")  c #FEFFEF",
"_  c #FFFFEF",
"`  c #FFFFED",
"'  c #FBFFF2",
"]  c #FFFEF0",
"[  c #FEFFF0",
"{  c ivory",
"}  c #FFFFF1",
"|  c #FDFFF2",
" . c #FFFFF2",
".. c #FFFFF3",
"X. c #FFFEF4",
"o. c #FFFFF4",
"O. c #FFFFF5",
"+. c #FEFEF6",
"@. c #FFFFF6",
"#. c #FFFEF7",
"$. c #FFFFF4",
"%. c #FFFBFA",
"&. c #FFFEF8",
"*. c #FEFFF8",
"=. c #FFFFF8",
"-. c #FFFEF9",
";. c #FEFFF9",
":. c #FCFFFB",
">. c #FFFEFA",
",. c #FEFFFA",
"<. c #FFFFFA",
"1. c #FEFFFB",
"2. c #FFFFFB",
"3. c #FFFAFF",
"4. c #FEFBFF",
"5. c #FFFBFF",
"6. c #FBFFFD",
"7. c #FBFCFF",
"8. c #F9FFFF",
"9. c #FBFEFF",
"0. c #FBFFFF",
"q. c #FEFEFC",
"w. c #FFFEFD",
"e. c #FEFFFD",
"r. c #FFFFFD",
"t. c #FFFDFE",
"y. c #FEFCFF",
"u. c #FFFCFF",
"i. c #FEFDFF",
"p. c #FFFDFF",
"a. c #FCFFFF",
"s. c #FFFEFF",
"d. c #FEFFFF",
"f. c white",
"g. c #FEFEFE",
/* pixels */
"0.0.*.) ) ) +.p.p.0.0.0.0.0.p.p.p.p.p.p.+...p.p.p.",
"0.0.*...) ) +.*.p.p.p.*.*.*.p.p.*.p.p.p.....p.4.p.",
"4.p.p.*.....+.*.p.p.*.+.+.+.*.+...+.p.*.) ) p.4.p.",
"4.p.*.W J Z J J J J Z Z B B Z Z v B J J v Z ..p.p.",
"+.) B g q , 0 , 5 - & $ $ $ $ $ $ $ 7 7 - y B W ..",
") Y k w @ @ O O O O X X X X X X . X o + o & z R ) ",
"*.) v a @ O O X O X X X X X X X . X O @ @ , v ) +.",
"*.) v y @ O X X X X X . . . X X . X O @ @ , B ..*.",
"p.) v 3 @ X X . X X X . . X X X . . O o @ , Z *.p.",
"p.) v % @ . . . X X X X X X O X . . X X O & J *.p.",
"0.' B 3 @ . . . X X X O O O O X     . . X $ B +.p.",
"p...B 3 @ . . . X X O O O O O X .   X . X $ Z *.p.",
"p...v % O . . . X X X X X X X X O O @ o @ 7 R p.p.",
"p...v * O . . . X X X X X X X X O @ @ o @ 7 R p.p.",
"p.+.Z 4 @ . X . X O O X X X X X X X X . X $ Z +.p.",
"p.*.J r $ X X X X X O X X X X X . . .   X $ v ..p.",
"p.*.J f $ O X . . X X X X X X X X . . . X & v ..p.",
"%...Z d # O X . . . X X X X X X X X . . O - v ..p.",
"..R v y $ O . . . . X X X X X X O O . X o 7 B ..p.",
") R v s $ @ O X X O O @ @ o O o @ @ O o $ y Z +.p.",
"*.) J j t - & $ & , 4 w 7 7 - - 4 * $ # 7 h Y *.p.",
"p.*.) J z j j j j k z z z z k k z k j g j v W p.p.",
"p.p.p.+.) R R R W ) ....) ) W W ) ) Y J J R +.p.p.",
"4.p.p.p.*.+...+.*.p.p.p.p.p.+.*.p.p.+...) +.p.p.p.",
"p.p.p.p.*.*.*.*.p.p.p.p.p.p.p.p.p.p.p.p.*.p.p.p.p."
};
