/* XPM */
static char *_c644e6b7ab84e18968f953632fc9ad15scXOqrlWsAUScMu[] = {
/* columns rows colors chars-per-pixel */
"50 25 16 1 ",
"  c #8D01F6",
". c #8C02F6",
"X c #8D01F8",
"o c #8E02F9",
"O c #8D01FA",
"+ c #8F00FA",
"@ c #8E02FB",
"# c #8F00FC",
"$ c #8E01FD",
"% c #8E01FF",
"& c #9001FB",
"* c #9000FC",
"= c #9000FD",
"- c #9100FD",
"; c #9000FF",
": c #9100FF",
/* pixels */
"##==============================================&.",
"##==============================================+ ",
"##==============================================. ",
"##==============================================+.",
"##==============================================  ",
"##==============================================+ ",
"##==============================================. ",
"##==============================================+ ",
"##==============================================. ",
"##==============================================+.",
"##==============================================  ",
"##==============================================+ ",
"##==============================================..",
"##==============================================+ ",
"##==============================================. ",
"##==============================================. ",
"&::&&:::::::::=====:::::::::::::===::::::::::::=$.",
"&&&::::::::::=====::::::::::::::==::::::::::==:=..",
"&===&===========================================$.",
"=&==============================================#.",
"&#=============================================&..",
"=&=====================================#=======&.+",
"++&&==========##======================##========.+",
"++&&=========###======================##========..",
"+++@@@$$@#@$$$$$%#@%%#@%==###%%%$$$$$$$$$$$$$$##+."
};
