/* XPM */
static char *_6f838f4880f4742bb9a0501ca7a6da17fCTiPKWLmRXclNu[] = {
/* columns rows colors chars-per-pixel */
"25 50 12 1 ",
"  c #8C00F7",
". c #8D01F8",
"X c #8C00F9",
"o c #8E00F9",
"O c #8D01FA",
"+ c #8F00FA",
"@ c #8E00FB",
"# c #8F00FC",
"$ c #8F00FE",
"% c #9001FB",
"& c #9000FD",
"* c #9000FF",
/* pixels */
"##&&&&&&&&&&&&&&&&&&&&&&#",
"##&&&&&&&&&&&&&&&&&&&&&&#",
"##&&&&&&&&&&&&&&&&&&&&&&#",
"##&&&&&&&&&&&&&&&&&&&&&&#",
"##&&&&&&&&&&&&&&&&&&&&&&#",
"##&&&&&&&&&&&&&&&&&&&&&&#",
"##&&&&&&&&&&&&&&&&&&&&&&#",
"##&&&&&&&&&&&&&&&&&&&&&&#",
"##&&&&&&&&&&&&&&&&&&&&&&#",
"##&&&&&&&&&&&&&&&&&&&&&&#",
"##&&&&&&&&&&&&&&&&&&&&&&#",
"##&&&&&&&&&&&&&&&&&&&&&&#",
"##&&&&&&&&&&&&&&&&&&&&&&#",
"##&&&&&&&&&&&&&&&&&&&&&&#",
"##&&&&&&&&&&&&&&&&&&&&&&#",
"##&&&&&&&&&&&&&&&&&&&&&&#",
"##&&&&&&&&&&&&&&&&&&&&&&#",
"##&&&&&&&&&&&&&&&&&&&&&&#",
"##&&&&&&&&&&&&&&&&&&&&&&#",
"##&&&&&&&&&&&&&&&&&&&&&&#",
"##&&&&&&&&&&&&&&&&&&&&&&#",
"##&&&&&&&&&&&&&&&&&&&&&&#",
"##&&&&&&&&&&&&&&&&&&&&&&#",
"##&&&&&&&&&&&&&&&&&&&&&&#",
"##&&&&&&&&&&&&&&&&&&&&&&#",
"##&&&&&&&&&&&&&&&&&&&&&&#",
"##&&&&&&&&&&&&&&&&&&&&&&#",
"##&&&&&&&&&&&&&&&&&&&&&&#",
"##&&&&&&&&&&&&&&&&&&&&&&#",
"##&&&&&&&&&&&&&&&&&&&&&&#",
"##&&&&&&&&&&&&&&&&&&&&&&#",
"##&&&&&&&&&&&&&&&&&&&&&&#",
"##&&&&&&&&&&&&&&&&&&&&&&#",
"##&&&&&&&&&&&&&&&&&&&&&&#",
"##&&&&&&&&&&&&&&&&&&&&&&#",
"##&&&&&&&&&&&&&&&&&&&&&&#",
"##&&&&&&&&&&&&&&&&&&&&&&#",
"##&&&&&&&&&&&&&&&&&&&&&&#",
"##&&&&&&&&&&&&&&&&&&&&&&#",
"##&&&&&&&&&&&&&&&&&&&&&&#",
"##&&&&&&&&&&&&&&&&&&&&&&@",
"##&&&&&&&&&&&&&&&&&&&&&&#",
"##&&&&&&&&&&&&&&&&&&&&&&#",
"##&&&&&&&&&&&&&&&&&&&&&&#",
"##&&&&&&&&&&&&&&&&&&&&&&#",
"##&&&&&&&&&&&&&&&&&&&&&&#",
"##&&&&&&&&&&&&&&&&&&&&&&#",
"##&&&&&&&&&&&&&&&&&&&%&%#",
"#@@%&%%@%@%%%@%@ @......@",
"@@%@%%@%@%@o%o%o  @ ....@"
};
