/* XPM */
static char *result[] = {
/* columns rows colors chars-per-pixel */
"50 100 227 2 ",
"   c #000000",
".  c #140000",
"X  c #1C0000",
"o  c #000019",
"O  c #250000",
"+  c #2E0000",
"@  c #350000",
"#  c #3A0103",
"$  c #321213",
"%  c #3F2903",
"&  c #020028",
"*  c #0F0635",
"=  c #361225",
"-  c #1A2C34",
";  c #292D39",
":  c #511601",
">  c #690400",
",  c #502D0C",
"<  c #6B2902",
"1  c #4B372C",
"2  c #502E30",
"3  c #6A3025",
"4  c #79530E",
"5  c #5F4E3E",
"6  c #715230",
"7  c #2E3847",
"8  c #33304B",
"9  c #0E1F69",
"0  c #200F7D",
"q  c #25127B",
"w  c #4C2E4F",
"e  c #533948",
"r  c #623F51",
"t  c #2E4458",
"y  c #3B4357",
"u  c #394865",
"i  c #385376",
"p  c #5C4B46",
"a  c #484958",
"s  c #56535E",
"d  c #69594B",
"f  c #695C56",
"g  c #78624E",
"h  c #746157",
"j  c #464B65",
"k  c #4A556B",
"l  c #56576A",
"z  c #485776",
"x  c #545D77",
"c  c #6E5270",
"v  c #4C617E",
"b  c #53637C",
"n  c #5A647B",
"m  c #777267",
"M  c #716B75",
"N  c #8B0800",
"B  c #A31600",
"V  c #A73800",
"C  c #883B3B",
"Z  c #964608",
"A  c #AE4E00",
"S  c #B96B4A",
"D  c #B9744E",
"F  c #BA7558",
"G  c #815C78",
"H  c #85696E",
"J  c #976262",
"K  c #847B78",
"L  c #B27364",
"P  c #C07354",
"I  c #C27D63",
"U  c #AE8E5D",
"Y  c #8F8476",
"T  c #AA9273",
"R  c #C3866E",
"E  c #C1A57A",
"W  c #102597",
"Q  c #33448E",
"!  c #3D5B84",
"~  c #48478D",
"^  c #4D518A",
"/  c #695092",
"(  c #4E6383",
")  c #446188",
"_  c #4C668C",
"`  c #526583",
"'  c #556886",
"]  c #5B6984",
"[  c #536689",
"{  c #566B8C",
"}  c #596E8D",
"|  c #5C718E",
" . c #4E6A94",
".. c #566D91",
"X. c #5A6E91",
"o. c #5D7294",
"O. c #58739A",
"+. c #5D759A",
"@. c #607186",
"#. c #62728E",
"$. c #73758F",
"%. c #617595",
"&. c #657996",
"*. c #687B97",
"=. c #617799",
"-. c #647A9C",
";. c #697D9C",
":. c #5B5DAF",
">. c #5C76A0",
",. c #5E7AA3",
"<. c #667DA1",
"1. c #697FA2",
"2. c #627EA8",
"3. c #6769B9",
"4. c #4E5ECA",
"5. c #646BC8",
"6. c #6A74D9",
"7. c #6E7BE5",
"8. c #717EE5",
"9. c #8C5C89",
"0. c #886686",
"q. c #937291",
"w. c #B1728E",
"e. c #9673A1",
"r. c #A779AB",
"t. c #6C809E",
"y. c #6B81A5",
"u. c #6682AB",
"i. c #6C84AA",
"p. c #7185A5",
"a. c #7087AB",
"s. c #7289AD",
"d. c #6885B3",
"f. c #6D89B2",
"g. c #758DB2",
"h. c #788FB4",
"j. c #728DB9",
"k. c #7990B5",
"l. c #7690BB",
"z. c #7D95BB",
"x. c #7481ED",
"c. c #7887F8",
"v. c #898383",
"b. c #948D86",
"n. c #8E8D98",
"m. c #989493",
"M. c #A4998D",
"N. c #A59D99",
"B. c #9DA09D",
"V. c #ADA39D",
"C. c #8993A3",
"Z. c #8C97AA",
"A. c #8D98AA",
"S. c #929BA9",
"D. c #8197BD",
"F. c #929DB1",
"G. c #AE83AA",
"H. c #B48CBC",
"J. c #BB94BC",
"K. c #95A1B5",
"L. c #9CA5B5",
"P. c #97A3BA",
"I. c #99A6BC",
"U. c #9FA9BC",
"Y. c #AAA6A2",
"T. c #AEAAA4",
"R. c #B5AEA7",
"E. c #B5B1AD",
"W. c #A2ABBC",
"Q. c #AAB1BD",
"!. c #BDBAB4",
"~. c #C6AC83",
"^. c #CBA697",
"/. c #D2B091",
"(. c #CC93AE",
"). c #CBBCA4",
"_. c #D6B4A6",
"`. c #CDB8B1",
"'. c #DDC39C",
"]. c #D6C4A7",
"[. c #C5C2BC",
"{. c #DBC4B9",
"}. c #EAD5B6",
"|. c #849CC1",
" X c #BE95C6",
".X c #9CAAC3",
"XX c #9FAEC8",
"oX c #A3AEC2",
"OX c #A1AFC8",
"+X c #A6B1C4",
"@X c #A3B1CB",
"#X c #A9B5CA",
"$X c #ABB6CC",
"%X c #C59BCA",
"&X c #CDA4D6",
"*X c #D5ABD9",
"=X c #D8AFE2",
"-X c #DDB2E5",
";X c #E6BAEC",
":X c #EBBFF1",
">X c #BBC3D4",
",X c #CAC7C3",
"<X c #D2CDC8",
"1X c #D4D2CC",
"2X c #DED8CB",
"3X c #D5CAD2",
"4X c #DDDCD6",
"5X c #E5D3CA",
"6X c #E5DDD5",
"7X c #F6E8CC",
"8X c #E4E3DD",
"9X c #EBE3D9",
"0X c #F6EAD4",
"qX c #C7CBE1",
"wX c #E1CFE0",
"eX c #E5D8E4",
"rX c #EEC2F5",
"tX c #F3C8FB",
"yX c #ECEBE5",
"uX c #ECEBE7",
"iX c #F2EDE8",
"pX c #FCF5E6",
"aX c #F6F6EF",
"sX c #F6F6F0",
"dX c #F7F8F2",
"fX c #FBFBF4",
"gX c #FFFFFA",
/* pixels */
">X.XXXXXOXOXOXOXOX@X@X@XOXOXOXOX@X@X@XOX@X@XXX.XP.XXOX.XOXOX.X.XOX@X#X#XOXOXOX@XOX#XOXOXOXOXOXOX.XqX",
".Xd.j.j.j.j.j.j.j.j.j.j.j.j.j.j.l.2.l.l.3.j.d.>. .d.l.j.j.f.j.j.j.j.z.3.j.j.j.j.j.j.j.j.j.j.j.j.2.$X",
"OXj.|.z.z.D.z.D.|.z.z.z.z.|.z.z.D.D.D.|.|.D.i.<.<.<.g.z.|.D.D.|.|.D.D.D.z.z.z.z.z.z.z.z.z.z.z.|.l.$X",
"OXj.z.z.z.z.k.z.z.z.z.z.l.l.z.z.k.D.l.|.k.i.o.k.2.<.<.f.k.g.j.k.l.D.l.k.l.z.z.z.z.z.z.z.z.z.z.|.j.@X",
".Xu.g.g.g.k.h.g.g.h.z.l.z.z.h.h.D.s.k.l.1.<.s.|.g.1.<.<.2.g.g.g.g.h.h.k.j.g.g.g.g.g.g.g.g.g.g.k.d.#X",
"I.2.a.i.i.g.g.f.i.1.a.g.h.k.g.g.l.1.1.1.2.1.|.l.2.i.1.1.<.a.g.s.a.j.g.a.a.g.g.g.g.i.i.g.g.s.a.p.,.OX",
".Xj.h.g.f.f.h.h.f.s.s.s.g.f.g.k.1.|.1.>.1.|.1.1.p.a.2.2.+.>.s.k.k.k.k.g.g.h.k.k.k.j.s.h.z.g.s.h.d.$X",
".Xf.k.h.h.h.h.h.h.z.k.h.h.j.k.k.l.1.+.l.|.1.1.j.2.1.a.1.1.<.>.a.z.k.h.j.h.h.k.j.h.k.h.k.k.k.s.D.d.$X",
".Xs.k.k.k.k.k.k.h.k.k.k.k.h.k.k.2.X.1.D.1.1.2.1.1.f.1.s.1.2.+.<.i.k.j.k.k.h.k.k.h.k.k.k.h.k.k.h.d.$X",
".Xi.D.k.g.k.g.h.h.h.h.k.j.h.k.1.+.1.|.j.1.1.1.1.1.1.2.1.2.1.1.2.<.i.h.h.j.k.k.h.g.h.h.g.h.h.g.D.i.#X",
".Xi.k.g.g.g.g.g.g.h.h.g.k.g.2.+.2.|.l.1.1.1.1.1.1.2.1.2.1.1.s.1.+.<.g.g.h.k.h.j.h.h.g.h.h.g.h.k.u.$X",
".Xi.k.g.h.g.g.g.g.g.g.g.j.1.+.1.|.s.1.2.2.j.1.j.1.s.1.f.1.s.2.1.<.+.>.i.g.g.h.g.g.g.g.g.g.g.g.k.u.#X",
".Xi.h.g.g.g.g.g.h.h.f.k.1.O.1.|.1.f.1.1.2.1.s.2.s.s.1.s.2.s.1.1.i.<.+.<.f.g.g.g.g.g.g.g.g.g.g.k.u.#X",
".Xi.g.g.g.s.s.g.s.s.h.1.O.1.l.1.1.1.1.s.s.s.1.1.1.2.2.1.1.1.1.f.1.i.<.+.<.a.g.g.g.s.g.g.g.g.s.h.u.#X",
".Xu.g.g.g.g.g.g.s.g.1.X.1.k.a.1.1.s.s.1.1.1.1.1.1.1.1.s.1.1.1.1.<.<.<.=.X.+.1.h.s.g.a.g.a.g.s.g.u.#X",
"I.u.a.a.a.a.a.f.s.1.O.1.h.a.1.1.2.1.1.1.1.1.1.1.2.<.<.1.<.>.<.<.-.-.-.-.=.O.-.1.f.a.a.a.a.i.i.a.,.+X",
"K.>.i.i.y.i.i.y.<.O.-.k.a.=.<.-.<.<.+.<.<.=.=.<.<.=.<.=.<.=.<.=.-.-.-.<.<.o.O.o.y.i.y.y.y.1.1.y.O.oX",
"P.,.a.i.y.i.s.y.X.+.k.i.1.1.<.-.<.=.<.-.<.<.=.+.1.1.<.=.1.=.1.<.-.<.<.1.<.<.o.X.=.f.y.y.i.s.g.p.>.+X",
"I.u.a.a.i.g.y.{ -.k.1.1.1.2.1.1.<.<.<.<.1.1.<.2.%.] 1.1.1.1.1.2.<.<.2.1.<.<.<.-...+.i.s.a.g.a.g.2.+X",
".Xu.a.a.s.y.X.+.g.1.1.1.<.1.1.1.<.<.1.1.1.1.1.1.x e =.<.1.1.1.1.1.1.1.<.<.<.1.1.-.o.-.i.s.i.a.s.,.+X",
"I.,.a.i.y.X.+.g.i.-.1.1.1.-.<.1.<.1.<.1.<.<.p.; G %XO #.y.-.<.-.<.<.<.<.<.<.-.<.<.+.} +.1.a.a.g.,.+X",
"I.u.s.y.X.+.s.s.<.1.<.<.1.<.<.<.<.1.1.i.i.1.t e.%X&XH.l v a.y.i.1.<.<.<.<.<.<.<.<.<.=...-.u.a.a.,.+X",
"I.u.y.} O.f.i.-.<.<.<.<.<.<.<.<.<.<.z z z z > w.r.w.(.C 2 z z z X.2.<.<.<.<.<.<.<.<.<.+.X.o.p.a.,.+X",
"I.O.o.o.g.y.t.-.-.-.-.-.-.-.<.&.&.%.f h f h F F D F D F L f f d M &.%.-.-.<.-.-.-.<.;.-.+...=.a.,.U.",
"A._ +.s.1.=.-.-.=.*.y.;.;.;.a.j   O yXsXaXaXaXaXaXaXaXiXaXaXiXfXT.  . o.y.;.y.y.-.-.=.=.-.o.} =._ L.",
"Z.! =.s.=.X.X.<.X.o & o o &   E.uX8XaXsXsXsXsXsXsXsXsXsXsXaXsXsXyXyX8Xl   & & &   u y.o.=.+...} ! L.",
"F. .o.=.-.=.-.( l T.T.T.T.T.T.E.!.`.aXsXiXsXaXaXaXaXsXsXaXaXaXfX4XE.`.T.T.T.T.T.R.m.u -.+.{ X.p. .P.",
".X>.o.{ =.-.%.l b.gXgXgXgXgXgXT.O f 1XaXaXaXsXsXaXaXsXsXaXaXaXyXY.@ p uXgXfXfXfXgX8Xp #.} X.-.k.,.U.",
"F.2.1.o.X.<.* R.gXpXaXaXaXaXaXaXdXsX+ ,XfXsXfXsXaXsXaXsXfXdXfXd T.gXaXaXaXaXaXaXaXaXuXp k y.g.p.O.oX",
"F.<.p.1.X.o.  Y.fXaXaXaXaXaXaXaXsXsXyXm.H I S 6XsXaXsX^.D L M ,XuXsXaXaXaXaXaXaXaXdXuXO ( k.1.p.+.oX",
"I.<.1.1.-.j N.4XfXdXdXaXaXaXaXaXaXaXfXM.Z `.^.9XsXaXsX{._.^.> 9XgXaXaXaXaXaXaXaXsXfXsX!.q.` p.p.-.+X",
"F.2.1.p.*.O 3XyX4X9XaXaXaXaXaXaXsXaXdX_._.gXgXfXsXsXsXdXgXiXR 6XaXaXaXaXaXaXaXaXyX8X4XuXY 8 s.p.O.W.",
"I.-.p.y.%.= O   > A 9XfXaXaXdXaXaXaXaXsXaXaXaXaXdXpXaXaXaXaXaXaXaXaXaXaXaXaXaXgX^.N X X + l 1.p.;.oX",
"P.-.p.y.%.O G.H.r.A 6 ,XgXaXaXaXaXfXaXaXaXaXaXaXaXaXaXaXaXaXaXfXaXaXaXaXaXsXdXY Z J H.H.c y p.1.o.oX",
"K.+.y.;.@.O %X;X*Xw.9.n.[.aXaXaXaXaXaXsXaXaXaXaXaXaXaXaXaXaXaXaXaXsXaXaXdXyXY.0.w.(.-X;XG 7 ;.;.+.W.",
"F...&.o.] O *XtXrX&X=X0.d fXaXaXaXaXaXaXaXaXaXaXaXdXaXaXaXaXsXaXaXsXsXaXfX1X  &X*X*XrXtXq.- &.%._ W.",
"F.O.-.%.] O *XtX;XrXrXr.m fXaXaXaXaXaXaXaXfXaXaXaXaXdXaXaXaXaXaXaXaXaXaXfX1X# -XrX:X;XrXq.- *.;...W.",
"P.O.;.-.#.n e  XtXrXtX&X XaXaXaXaXaXdXpXaXaXaXaXaXaXaXaXsXaXsXaXaXaXaXaXfXyXr.rXrXrXrXG s ] #.;.O.W.",
"P.+.p.&.#.&.y / %X:X(.^.5XaXsXaXaXaXaXaXaXsXsXaXsXaXaXaXsXaXaXsXaXsXaXaXaXaXeX(.;X;Xe.a x =.%.;.O.W.",
"P.o.;.*.#.n n - 2 *XL /.7XsXaXaXaXaXdXaXaXaXsXsXaXaXaXdXaXsXsXaXaXaXaXaXaXsXaXL (.J.  x x ` &.;.X.W.",
"K.o.;.*.@.# @ = = X H.eXfXsXsXaXaXdXsXaXaXaXaXaXaXaXpXaXaXaXsXsXsXaXsXaXsXaXiX*X/   2 $ @ a &.;.X.W.",
"F.<.8 u ;.# 5.8.5.% r.eXsXsXaXaXaXaXaXsXaXsXaXfXsXaXfXaXaXaXaXsXaXaXaXaXaXaXsXsXM.q 8.7.z a ;.  ) oX",
"F.8 Q.B.& % 6.c.6.+ *XuXsXaXaXaXaXsXaXsXaXaXaXaXaXaXaXsXaXaXdXaXaXaXsXaXsXaXaXgXM.q c.c.^ X s &XM n.",
"F.  4X4Xc : :.8.x.O 8XgXaXaXaXsXaXsXsXaXaXaXaXaXsXaXaXaXaXaXaXaXaXsXaXaXaXaXaXfXM.0 x.6.j 1 m.fXm q.",
"S.  1XgXyX1 + :.6.+ 8XfXaXaXaXaXaXaXaXaXaXpXdXaXaXaXaXaXsXaXaXaXsXaXaXaXaXpXaXfXN.q x.1   B.gXsXK v.",
"C.  4XgXuXuX}.T w %XuXdXdXfXfXgXfXaXaXaXaXaXaXaXsXaXsXaXsXaXaXaXaXaXfXfXfXfXfXsXwXe.1 '.8XiXsXgXY M ",
"C.u v.<XgX0XE $.3.G yXpX{.m.M.b.!.gXaXaXaXaXaXdXaXaXaXsXaXsXaXaXgXuXm.m.m.M./.fX`./ 5.J ].pXaXY.l C.",
"C.} & v.<X~.l 4.x.  qX{.U g K g Y 1XaXdXaXaXaXaXsXaXaXaXsXaXaXsX8X`.6 K m 4 B 5XK 9 8.W T ).,XO u K.",
"C.z @.a     6.c.6.: 6.W 6 }.fX0X~.  yXsXaXaXaXsXaXaXaXaXaXaXaXfXV., }.pX0X/.o A < ~ x.c.^   . n v C.",
"C.v b b l # 6.c.6.  w $ Y aXpXfX<X# yXfXaXsXsXsXaXsXaXsXaXaXaXgXT.f fXpXfX1XO 2 @ ~ c.c.^ % b b v C.",
"I.2.t.*.%.x ^ ~ / G.a   g 7XsXpX_.o yXdXaXaXaXaXsXaXaXaXaXaXaXgXT.5 7XpXpX].    0.e.Q ~ ^ n &.;.+.U.",
".Xi.a.t.;.-.s O 2 (.C m N.E [.).U 3 yXsXaXaXaXaXaXaXaXsXaXaXaXfX).< V.,X).E m.< H.%X> 1 ] t.t.p.u.Q.",
".Xu.s.p.1.*.;.x : A V 5X8X      3 P iXsXaXaXaXaXaXaXdXaXaXaXaXdX_.V * .   v.dXS (.*XA ;.&.t.y.s.u.#X",
"XXf.k.s.p.1.;.%.] : -X(.A $ ; N R iXaXaXaXaXaXaXaXsXaXaXaXaXaXaXsX5XB 3 $ < S rXG.+ 2 #.t.y.p.h.f.$X",
"I.u.i.i.y.y.*.%.] k q.h < n   R.pXfXaXaXaXaXaXaXaXaXaXaXdXaXaXaXgXdX2Xd 7 l > q.r $ x %.t.t.p.s.u.+X",
".X2.s.y.i.<.1.*.X.X.7 ; j %.8 V.1X,X9XaXfXaXaXaXpXfXaXaXsXfXaXpX2X,X3Xf z ' y ; 7 l %.&.y.u.p.a.,.+X",
".Xf.k.g.a.i.p.p.;.#.*.#.#.] =.8   X /.7XyXyXaXaXiXaXsXsXaXuXyX}.U     ] | @.%.*.&.o.&.y.s.s.g.h.f.#X",
"XXg.k.h.h.h.a.p.1.1.;.*.*.#.*.*.@.b 1 1 , f aXfXeX&XfXgX`.X 1 , l o.#.%.%.%.%.%.&.t.t.p.g.g.k.k.f.#X",
".Xf.k.k.h.h.g.s.p.1.1.;.;.;.*.%.' z b x i k q.b.K c b.b.$.u j y b %.%.&.;.;.*.;.t.t.t.p.g.h.h.k.d.#X",
".Xf.k.h.h.h.g.g.s.p.p.1.1.1.;.{ z %.%.} [ ` - * ; 7 * & y | ` ` v } *.;.;.;.p.1.t.t.s.s.g.g.g.k.d.#X",
".Xi.h.g.g.g.g.g.g.s.a.i.a.1.o.[ &.;.} ] ` ] } } ' ] } #.' ] ' ' ` [ =.1.p.p.p.a.p.p.g.g.h.h.h.h.u.#X",
".Xi.h.g.g.g.g.g.g.g.s.g.a.<.X.1.a.=.X.X.} ' ] ] ` ` ` ` ' } X.%.X.{ X.1.a.g.s.s.s.s.g.g.s.h.s.h.u.#X",
".Xi.h.g.g.g.g.g.g.g.g.g.<.+.1.z.1.-.-.=.%.X.X.} } } } X.X.%.=.=.-.-.X.+.a.g.h.g.g.g.g.h.h.g.h.h.u.#X",
".Xu.g.g.g.s.s.g.h.a.s.1.X.1.D.2.1.1.-.-.-.-.=.o.#.#.o.%.=.&.-.-.<.1.<.+.+.a.h.s.g.g.s.s.g.s.s.h.u.#X",
".Xu.h.s.g.g.s.g.f.g.1.X.i.h.2.1.1.i.1.1.<.<.-.=.-.%.=.-.<.=.<.-.=.<.<.<.O.X.y.g.j.g.g.f.g.s.s.k.u.+X",
"I.2.a.i.i.a.i.a.a.<.X.i.g.y.<.<.1.1.1.1.<.=.-.-.<.o.o.-.-.-.-.-.>.<.=.=.=.+.o.1.i.p.a.p.y.y.i.a.,.+X",
"K.+.i.y.y.i.a.i.<.X.1.h.y.-.<.-.<.+.-.<.<.<.=.-.-.<.-.+.<.-.<.-.<.=.<.<.-.+.X.X.1.a.y.1.i.y.y.y.O.oX",
"I.,.s.a.i.a.s.-.X.1.k.2.1.1.<.-.<.-.<.=.<.<.-.-.<.1.<.<.<.-.<.<.=.<.<.<.<.-.-.O.o.i.i.i.a.s.s.a.>.+X",
"P.u.s.s.a.f.-...-.z.1.1.3.1.<.1.<.<.1.<.1.<.1.<.1.1.1.<.<.1.2.1.1.1.1.1.1.1.1.-.O.X.a.g.i.a.s.s.u.+X",
"P.y.s.a.s.t.{ y.h.1.1.1.;.<.1.1.1.<.1.1.1.1.1.<.1.1.<.<.<.1.1.1.1.1.1.1.<.1.1.<.-.+.o.y.s.a.a.s.,.+X",
"I.u.s.s.-._ y.s.1.<.1.<.1.1.<.1.<.1.<.<.<.<.<.1.<.<.-.<.-.<.<.<.1.-.-.<.1.<.<.1.<.-.X.O.y.s.i.s.,.+X",
"K.u.s.-...y.a.i.<.<.;.<.;.1.<.1.<.<.<.<.<.<.<.<.<.<.<.1.<.<.<.1.<.<.<.<.<.<.<.<.<.1.+.X.+.<.s.a.,.+X",
"P.u.y. .<.s.1.=.1.<.<.<.1.<.-.<.<.<.<.<.<.<.<.<.<.<.<.<.<.<.<.-.<.<.<.-.<.<.-.<.-.1.1.=.X.+.1.g.,.+X",
"P.O.X.o.s.1.<.<.<.=.-.<.-.-.<.-.;.<.=.<.=.<.=.<.<.-.-.<.<.-.<.-.-.<.<.<.-.-.<.<.-.-.=.-.+.X.=.1.+.U.",
"A.) +.g.<.o.=.<.+.+.-.=.+.=.-.-.o.+.o.+.o.=.o.=.=.=.o.+.<.-.-.-.-.=.=.=.o.=.-.-.=.=.=.+.=.=.X.#.) L.",
"Z.) o.s.=.o.o.o.o.o.+.o.o.o.=.+.o.=.<.=.o.<.X.+.=.-.-.o.o.o.=.X.o.o.X.+.+.+.=.X.+.=.-.o.+.o.X.X.! L.",
"I. .X.=.=.=.+.=.=.=.=.=.=.=.=.=.<.=.<.=.=.<.=.=.=.=.=.=.-.=.+.-.-.=.=.=.=.=.=.=.=.-.-.-.=.{ X.1. .U.",
"I.+.=...+.-.=.<.-.-.-.-.-.-.-.-.=.<.-.-.-.<.=.<.<.-.<.-.-.-.-.-.-.-.-.-.<.&.-.-.-.-.-.=.X.o.1.D.,.U.",
"P.,.y.o.{ o.=.=.-.-.=.=.-.=.-.-.=.-.-.=.-.=.-.-.-.=.-.-.-.-.-.-.-.=.-.-.=.-.-.-.=.-.-./ =.1.D.1.O.+X",
"P.<.y.y.X.{ o.<.-.=.-.-.-.-.-.=.=.=.-.-.=.&.=.-.=.&.&.=.=.&.=.=.-.&.=.=.=.-.=.-.-.=.X...1.1.1.1.+.+X",
"F.-.1.1.1.X.[ X.-.=.=.=.=.=.=.=.=.%.=.=.=.=.=.=.=.=.=.%.=.=.=.=.t.o.+.&.+.&.=.=.=...{ i.g.1.1.C.u.W.",
".X1.s.g.1.1.o.X.X.-.=.=.=.%.%.%.=.*.=.%.%.=.=.=.=.%.=.%.=.%.%.*.#.+.+.&.&.+.*.o.} { y.a.g.1.1.1.t.W.",
"F.<.1.1.1.1.1.+.[ X.+.%.&.+.=.=.=.=.=.%.=.=.=.%.=.=.=.=.=.=.%.%.+.&.+.+.+.&.o...{ <.a.y.1.1.1.1. ..X",
"F.-.1.C.1.1.1.;.X.[ o.o.%.%.o.%.o.o.%.o.%.o.o.=.o.%.%.o.o.=.o.%.+.| t.+.o.o.| ` *.p.p.y.1.1.C.1.t.W.",
".X+.1.1.;.1.;.;.1.{ [ X.o.o.X.X.X.} o.X.X.#.#.%.X.o.o.X.X.o.o.%.o.o.o.X.t._ i t.a.1.1.1.1.1.;.1. .W.",
"F._ =.o.=.=.1.-.-.&.{ [ { ..X.o.X.X.X.X.X.X.} X.} X.X.X.X.X.o.o.} ..| | _ v t.u.*.-.;.=.=.=.*.;.) U.",
"F.+.;.1.;.-.=.;.1.1.;.{ ` } o.o.o.o.o.o.X.X.X.X.} X.o.o.X.X.X.X.{ | | _ v t.t.t.;.;.1.=.=.=.=.1.t..X",
"P.=.1.1.1.1.;.1.1.1.1.-.} ` | o.%.o.%.o.o.o.o.o.X.#.o.#.o.X.X.X...t.' v t.u.u.t.<.1.1.;.;.;.;.1. .W.",
"P.+.1.1.;.1.1.1.t.t.t.t.+.} ` ..%.| o.%.o.%.o.%.#.o.#.o.%.#.o.o.t.v v t.t.t.t.t.t.t.t.t.t.t.t.t.t.K.",
"F.o.1.1.;.;.;.;.t.t.+.t.t.&.{ ` } o.| o.o.| | o.o.o.X.o.o.o.o.o._ v t.t.t.t.t.t.t. .t.t.t.t.t.t.t.I.",
"P.+.1.1.;.;.;.;.t.&.t.t.t.&.+.' ` } | | | | o.| o.X.#.#.#.o.#.[ v t.t.t.t.t.t.t.t.t.t.t.t.t.t.t.) I.",
"F.o.1.$.;.;.;.;.t.t.+.&.t.t.t.+.` ` } %.| o.| | o.X.o.X.X.#.[ `  .t.t.t.t.t. .t.t.t.t.t.t._ t.t.t.K.",
"K.X.t.;.;.p.;.*.t.t.t.t.&.t.;.t.%.` v } | | | | | | | } #.` ( #.t.t.t.t._ t.t.t.t.t.t.t.t.t.t.t.t.U.",
"F.o.;.*.;.$.-.*.#.t.o.t.&.&.&.*.;.%.` v } | | | } } | } [ ( #.-.t.t.' t.t.t.t.' _ t.' t.t.t._ t.) U.",
"F.{ &.| &.&.%.#.| | &.&.o.o.*.&.&.*.| ` ' ' ' } ' ' } ] v #.;.-.' t.@.t.@.t.t.t.' t.t.t.t.' t.t.v I.",
"S.) | | #.%.| | | | o.%.| | o.#.o.#.%.| v v ' ' ' ' ` v } t.*.%.t.' t.) t.' t.' t.t.@._ t.' t.t.v L.",
"F...t.| | t.t.| | t.| t.| @.} t.b t.t.t.v v v @.t.v v b t.t.t.v t.v t.@.v t.t.t.v t.v t.b v t.@.v I.",
"F.| t.t.t.t.| t.t.| t.t.t.t.t.t.t.t.t.@.t.t.b b v v t.p.t.t.t.t.t.t.t.t.t.t.t.@.t.t.@.t.t.t.t.t.t.W.",
"Z.v } } ..} } ..b } } } { @.v ' t.v v t.v t.v k i v ' t.@.{ v t.v t.v _ @.t.v t.v t.v t.v t.v t.v B.",
"Q.C.A.A.A.A.A.A.A.A.A.A.k.S.S.k.A.A.A.S.h.A.h.t.p.k.S.p.A.A.A.B.k.A.B.k.k.B.k.B.p.B.k.S.k.B.k.p.h.!."
};
