/* XPM */
static char *result[] = {
/* columns rows colors chars-per-pixel */
"50 100 235 2 ",
"   c #000000",
".  c #070500",
"X  c #170000",
"o  c #10130B",
"O  c #260001",
"+  c #340000",
"@  c #3B0100",
"#  c #3E0B02",
"$  c #281503",
"%  c #381604",
"&  c #39250F",
"*  c #150D36",
"=  c #2B112F",
"-  c #092A31",
";  c #2C2931",
":  c #4C0000",
">  c #441305",
",  c #6B0700",
"<  c #50300C",
"1  c #723207",
"2  c #460735",
"3  c #46282D",
"4  c #55382B",
"5  c #412A31",
"6  c #46363C",
"7  c #533A38",
"8  c #623B3C",
"9  c #69472D",
"0  c #1C1B58",
"q  c #211844",
"w  c #14254D",
"e  c #2A2A47",
"r  c #323B49",
"t  c #333957",
"y  c #4F314C",
"u  c #602555",
"i  c #4B386F",
"p  c #354153",
"a  c #39455A",
"s  c #384B67",
"d  c #50484E",
"f  c #47485B",
"g  c #6B5555",
"h  c #796C4E",
"j  c #746358",
"k  c #474C67",
"l  c #465267",
"z  c #44546B",
"x  c #4A596E",
"c  c #55546F",
"v  c #4C5C73",
"b  c #4A5B79",
"n  c #6C4863",
"m  c #765271",
"M  c #4E6076",
"N  c #4E617D",
"B  c #556379",
"V  c #52637C",
"C  c #756A65",
"Z  c #636476",
"A  c #776E78",
"S  c #8A0000",
"D  c #A41C00",
"F  c #922200",
"G  c #883800",
"H  c #A93700",
"J  c #AC4700",
"K  c #AC5105",
"L  c #845F2A",
"P  c #99503A",
"I  c #AD5228",
"U  c #8B6F51",
"Y  c #877356",
"T  c #BE745B",
"R  c #82586F",
"E  c #89796D",
"W  c #A86D75",
"Q  c #C47E63",
"!  c #96846D",
"~  c #8A837D",
"^  c #B19568",
"/  c #B39576",
"(  c #C79077",
")  c #3A3891",
"_  c #2F5381",
"`  c #3A5B83",
"'  c #3740A1",
"]  c #4B5293",
"[  c #6D5090",
"{  c #4D6281",
"}  c #48658B",
"|  c #526683",
" . c #5A6783",
".. c #556985",
"X. c #5A6B85",
"o. c #526688",
"O. c #556B8C",
"+. c #5A6E8C",
"@. c #5C708D",
"#. c #4E6B93",
"$. c #546D92",
"%. c #5A6E91",
"&. c #536F99",
"*. c #5E7293",
"=. c #55729C",
"-. c #5E7599",
";. c #61738D",
":. c #70738A",
">. c #617694",
",. c #657996",
"<. c #697B97",
"1. c #617699",
"2. c #647A9C",
"3. c #697D9C",
"4. c #5356A9",
"5. c #5977A3",
"6. c #5B79A4",
"7. c #6967A2",
"8. c #667DA1",
"9. c #697FA2",
"0. c #617FAA",
"q. c #5B66C9",
"w. c #636CC8",
"e. c #626DD2",
"r. c #6C76D9",
"t. c #6B79E3",
"y. c #866987",
"u. c #996C9D",
"i. c #987496",
"p. c #A87692",
"a. c #8C6CAE",
"s. c #A57BAA",
"d. c #6D809E",
"f. c #7E8797",
"g. c #5F81B3",
"h. c #6B81A5",
"j. c #6482AC",
"k. c #6D84A9",
"l. c #7185A5",
"z. c #7187AB",
"x. c #7289AE",
"c. c #788DAF",
"v. c #6B88B4",
"b. c #758DB2",
"n. c #788FB4",
"m. c #728DB9",
"M. c #7990B5",
"N. c #7D94BB",
"B. c #7A94BC",
"V. c #7F98C0",
"C. c #7583EE",
"Z. c #7786F7",
"A. c #898787",
"S. c #948B84",
"D. c #948D8A",
"F. c #8E908E",
"G. c #99938D",
"H. c #9B9794",
"J. c #A9928C",
"K. c #A39A97",
"L. c #BBA98E",
"P. c #A5A19A",
"I. c #8995A7",
"U. c #8D98AA",
"Y. c #8198BD",
"T. c #B08DB3",
"R. c #A9A6A3",
"E. c #B1ACA6",
"W. c #B8B4AE",
"Q. c #BBB8B5",
"!. c #C99988",
"~. c #CEAE93",
"^. c #D198B6",
"/. c #CEBAAF",
"(. c #DBC39C",
"). c #D8C3AC",
"_. c #C5C2BB",
"`. c #EAD4AB",
"'. c #EDD4AB",
"]. c #EBD4AE",
"[. c #829AC2",
"{. c #BC8DC4",
"}. c #B792CB",
"|. c #9DABC5",
" X c #A0ADC7",
".X c #A1AFC8",
"XX c #A3B1CA",
"oX c #B8BCC4",
"OX c #8D89EB",
"+X c #C39BCA",
"@X c #D8A4CC",
"#X c #CDA3D4",
"$X c #CFACD5",
"%X c #D3A9D7",
"&X c #D2B2D2",
"*X c #E4ADD5",
"=X c #DAAEE1",
"-X c #DDB2E3",
";X c #DFB4E9",
":X c #E5B9EB",
">X c #EABEF1",
",X c #BFC2CB",
"<X c #CAC9C5",
"1X c #C1C6CE",
"2X c #D5CFCE",
"3X c #D4D3CC",
"4X c #C3C7D0",
"5X c #C4C9D4",
"6X c #C6CDD9",
"7X c #C9CFDB",
"8X c #DBCAD9",
"9X c #DCDBD4",
"0X c #DCDCD7",
"qX c #E1CFC6",
"wX c #E5D8C9",
"eX c #E1DCD8",
"rX c #E8E4DC",
"tX c #F5EBD7",
"yX c #FAECD1",
"uX c #D2D7E0",
"iX c #E8DDE6",
"pX c #EDC2F5",
"aX c #EFC6FA",
"sX c #F3C7FA",
"dX c #EDEBE5",
"fX c #ECE9E7",
"gX c #F1EDE7",
"hX c #F6F5EF",
"jX c #F8F4E8",
"kX c #F4ECF0",
"lX c #F6F7F0",
"zX c #FAF6F4",
"xX c #F7F8F2",
"cX c #FBFBF4",
"vX c #FEFFFA",
/* pixels */
" X.X.X X X.XXXXXXXXX.X.X.X.X.X.X.XXX.XXXXX.X|.|.|.|. X|. X X|. X.XXXXXXX.X.XXXXXXXXXXX.X.X.X.XXX|.uX",
"m.m.m.m.m.m.m.m.m.m.m.m.m.m.m.m.m.v.m.m.m.m.v.#.#.v.m.m.m.m.m.m.m.m.m.v.m.m.m.m.m.m.m.B.m.m.m.B.g.6X",
"N.N.N.Y.N.Y.N.N.Y.N.Y.Y.Y.N.[.Y.N.[.[.N.[.M.9.8.8.8.M.[.N.Y.[.B.[.Y.Y.[.Y.Y.[.Y.N.N.N.B.N.N.N.[.m.6X",
"N.N.N.N.N.B.N.B.N.N.N.B.M.N.M.N.N.N.M.N.b.8.8.m.0.8.8.x.n.n.N.M.M.Y.M.M.b.N.M.Y.N.N.N.B.N.N.N.Y.v.6X",
"x.b.b.b.b.M.b.b.b.b.M.N.N.N.b.M.M.M.m.b.9.2.n.[.9.0.8.8.9.m.n.x.b.M.m.M.z.b.n.n.M.b.b.M.M.b.b.M.j.6X",
"k.k.k.k.k.b.b.b.0.k.x.m.n.M.b.b.x.x.z.8.2.n.[.0.9.z.9.8.8.x.x.b.x.b.b.x.z.m.b.x.x.k.k.x.b.z.k.z.5.6X",
"b.M.b.b.x.b.b.b.b.x.x.x.x.x.b.M.b.b.8.-.n.Y.9.z.9.9.x.9.7.8.b.n.M.N.M.z.x.n.M.M.m.x.x.M.M.b.c.M.j.6X",
"n.N.M.b.m.M.n.b.n.N.M.M.M.m.M.M.b.8.=.M.N.9.0.z.x.0.9.0.0.8.6.x.N.M.M.M.m.M.M.M.M.M.M.M.M.M.M.N.v.6X",
"n.M.n.n.n.M.M.M.n.n.n.n.n.n.N.b.9.%.M.M.k.9.0.9.h.h.h.h.h.8.-.8.z.m.M.M.M.n.M.n.n.N.n.b.M.b.M.M.v.6X",
"n.n.n.n.n.n.c.M.n.n.n.n.n.M.b.8.=.x.N.k.9.j.9.9.8.h.0.j.j.j.8.-.8.x.M.M.n.m.M.n.b.n.n.n.M.M.b.M.j.6X",
"c.n.n.b.b.n.b.n.b.n.n.n.b.x.8.=.x.N.k.j.k.z.0.z.h.j.h.h.h.h.k.8.7.8.x.n.M.M.b.b.n.n.b.n.n.b.M.M.j.6X",
"x.b.b.b.b.c.b.b.b.b.b.b.b.8.-.k.[.9.9.9.k.0.z.9.h.k.h.k.j.h.h.h.8.=.8.x.b.b.b.b.b.b.b.b.c.b.c.c.j.6X",
"b.n.b.b.b.b.b.b.b.b.b.m.8.%.x.B.h.j.k.k.h.k.k.k.h.k.k.k.h.k.h.j.h.8.-.8.b.b.b.b.c.b.b.b.b.b.b.M.j.6X",
"x.b.b.x.x.b.x.b.b.b.b.8.&.z.M.k.9.9.9.k.k.9.k.j.h.j.k.h.k.j.h.h.k.0.8.-.8.x.b.b.b.x.x.b.b.x.x.n.j.,X",
"x.b.b.x.b.b.b.b.x.x.8.%.z.b.z.9.k.k.h.9.9.h.h.h.h.8.9.h.h.8.h.8.8.8.8.-.%.2.k.b.x.x.b.b.x.x.b.n.j.6X",
"k.z.z.z.k.z.z.z.z.8.%.k.b.k.8.9.9.9.0.h.9.8.8.8.8.2.8.8.8.-.8.8.2.2.-.2.6.%.8.k.x.z.z.z.z.z.k.z.5.6X",
"h.h.h.k.h.k.k.k.8.%.8.N.8.2.8.-.8.8.6.2.8.2.2.2.2.2.2.-.8.-.-.2.8.-.-.8.2.-.$.-.h.k.h.h.h.h.9.l.=.,X",
"h.k.k.k.h.k.k.d.%.8.N.9.9.8.8.8.8.-.2.8.8.8.-.8.8.h.8.8.8.8.h.8.-.8.h.8.2.2.-.*.8.x.h.h.k.x.k.z.5.,X",
"z.z.x.x.k.k.d.#.9.n.9.9.h.h.8.9.8.8.8.8.8.8.8.8.9.8.8.8.8.8.h.8.h.8.8.h.8.8.h.-.$.2.x.x.x.x.x.x.g.6X",
"k.x.k.x.x.d.#.h.x.k.9.8.8.8.8.9.8.8.9.9.9.9.9.8.8.h.8.h.h.8.h.8.8.h.h.8.8.h.8.8.1.&.2.k.x.x.z.x.6.7X",
"z.k.x.z.d.#.h.z.9.8.8.8.8.8.8.8.9.8.8.8.8.9.8.8.9.8.2.8.9.2.8.8.8.8.8.8.8.8.2.8.2.*.*.8.k.k.k.x.5.,X",
"k.z.k.2.#.d.b.k.8.9.8.8.8.8.8.8.8.8.8.8.8.8.8.8.8.8.8.8.8.8.8.8.8.8.h.8.8.8.8.8.9.8.*.$.8.k.z.x.g.6X",
"k.k.d.$.-.b.h.-.9.8.8.2.8.8.8.8.8.8.8.8.8.8.8.8.8.8.2.8.8.8.8.8.8.8.2.8.8.8.8.8.8.8.8.*.%.2.z.x.=.6X",
"k.d.$.-.M.h.-.d.2.2.8.8.8.2.8.2.2.8.8.2.8.2.8.8.2.8.8.8.8.2.8.2.2.8.8.2.8.8.2.2.8.8.8.-.%.%.2.b.=.,X",
"-.+.2.x.8.1.2.1.1.1.8.1.1.2.8.2.1.1.1.1.1.-.1.-.1.-.*.2.2.2.2.1.-.2.2.2.-.2.8.2.1.-.1.-.1.%.%.1.} ,X",
"O.#.2.x.%.*.-.-.*.-.2.%.%.-.1.1.1.1.1.-.-.-.*.*.2.2.-.-.1.-.-.-.*.*.*.-.*.-.-.-.-.1.1.-.1.1.O.%._ ,X",
"8.%.*.2.2.-.1.-.-.1.-.1.1.1.1.1.2.2.2.2.2.2.*.1.2.2.2.1.-.1.1.*.-.-.2.-.1.1.1.-.1.8.2.1.%.O.-.l.} ,X",
"z.2.$.$.1.2.2.2.2.2.2.2.2.2.1.2.2.2.2.2.2.2.2.2.2.2.2.2.2.2.2.2.2.2.2.2.2.2.1.2.1.8.2.1.%.%.9.n.5.,X",
"9.9.9.%.%.1.7.2.2.2.2.2.2.2.2.2.2.1.2.2.1.2.2.2.2.2.2.2.2.1.2.2.2.2.2.2.1.2.1.2.2.2.1.%.O.k.c.l.5.,X",
"9.z.9.8.%.O.-.2.1.1.2.1.1.1.1.,.1.2.2.1.2.1.2.,.1.1.1.,.2.2.2.,.2.1.1.2.2.2.1.2.2.1.O.O.k.z.d.l.=.,X",
"z.l.9.9.2.O.%.-.8.2.1.1.1.1.1.2.1.1.1.1.1.,.1.1.1.1.1.1.1.1.1.1.1.1.1.1.1.1.1.2.-.$.+.l.z.h.d.z.g.7X",
"9.9.9.l.9.2.O.O.-.1.-.1.1.>.1.1.1.1.1.1.1.1.1.1.1.1.1.1.1.1.>.1.>.1.>.1.1.1.2.*.+.+.h.x.k.h.h.k.=.,X",
"9.z.z.9.9.z.2.%.O.*.2.-.1.-.-.,.1.1.1.1.>.1.1.1.1.1.1.1.1.1.2.-.1.1.>.1.1.1.>.O.+.2.c.h.h.d.9.l.-.5X",
"I.9.9.9.9.9.9.1.O.+.*.*.-.,.-.-.*.1.1.1.1.1.1.1.*.1.1.*.*.1.*.1.1.>.1.1.1.*.O.o.2.x.h.h.h.h.9.l.=.5X",
"9.9.9.9.9.9.9.9.-.o.O.*.*.@.+.$.+.+.*.%.+.%.1.%.*.*.%.%.*.*.*.*.>.*.*.%.1.+.| 2.l.d.h.h.d.l.3.l.&.4X",
"7.>.>.>.<.9.2.3.2.*.o.o.@.@.*.*.%.%.%.+.%.+.%.%.%.+.+.%.+.*.*.*.@.+.*.$.%.| 9.l.2.2.2.,.2.1.1.<.} 4X",
"3.1.2.2.3.2.2.3.9.9.1.o.O.+.*.*.*.%.>.%.%.+.%.+.+.%.%.*.@.+.$.+.%.*.%.o.o.9.9.3.-.d.d.-.-.-.d.d.#.4X",
"l.9.9.9.9.3.2.9.9.9.2.1.| O.*.*.1.*.1.1.>.%.1.+.%.*.*.1.*.*.*.@.*.*.O.o.1.9.9.8.2.h.h.-.d.-.d.h.&.4X",
"3.l.3.9.9.9.9.9.l.3.9.3.*.} ..=.*.*.@.@.*.*.*.>.*.*.*.*.*.*.*.-.*.o. .>.l.9.9.9.-.h.d.h.d.d.d.d.&.4X",
"3.3.9.3.d.3.3.3.3.h.3.3.d.@.| ..*.@.@.1.>.@.*.*.*.*.>.*.*.@.*.@.O.| <.l.9.3.3.3.d.d.d.-.d.d.d.d.&.4X",
"d.3.3.3.3.3.3.3.d.=.d.d.*.d.$.N o.@.*.*.@.*.*.@.*.@.*.@.*.*.@.O.| ,.l.3.3.d.2.d.2.d.d.2.d.d.d.d.&.4X",
"3.3.3.3.9.3.3.3.d.d.d.d.d.d.d...| o.@.*.*.@.*.*.*.*.@.*.*.@.O.N 1.9.3.3.3.d.d.2.d.2.<.d.d.@.*.d.$.4X",
"3.<.3.2.2.3.3.3.d.d.d.d.d.d.d.d.%.{ o.+.@.*.+.+.@.@.+.*.@.o.{ -.3.3.3.3.3.2.3.3.d.2.2.d.d.d.d.d.#.1X",
"3.3.<.<.<.<.<.2.@.d.@.d.$.d.@.d.<.+.V o.+.@.@.@.@.+.@.+.| N @.d.3.2.<.2.<.<.2.<.<.2.<.<.d.@.d.d.O.1X",
"<.,.>.>.2.,.>.;.d.@.d.d.@.d.*.d.,.d.O.N o.+.+...O.+.+.| N @.d.2.<.<.1.,.,.,.,.<.,.,.d.d.*.d.@.d.} 1X",
"*.@.@.@.>.>.@.@.@.@.X.@.@.@.@.@.*.*.*...N | | o...o.| N @.l.>.;.>.>.;.+.>.*.,.>.*.*.*.;.@.@.d.d.` 1X",
",.,.>.@.>.1.,.1.@.@.@.d.*.@.;.d.@.*.,.,...N | +.@.| N @.d.<.2.>.;.>.,.>.>.,.1.>.*.@.@.@.@.X.@.@.} 1X",
",.,.,.1.<.<.,.,.@.d.@.@.d.d.*.d.@.d.,.,.-.+.N N { b @.d.<.,.,.,.,.,.,.,.,.,.,.,.d.*.;.d.d.@.*.d.o.1X",
",.,.;.,.,.,.,.,.,.,.,.,.,.,.,.,.,.,.,.>.,.>. .{ b +.<.3.,.,.,.,.,.,.,.,.,.,.,.,.,.,.,.,.,.,.,.d.} 1X",
",.,.;.,.>.,.,.,.,.,.,.,.,.;.,.,.,.,.>.,.>.,.>.{ | 1.2.>.,.1.>.;.,.,.,.>.,.>.,.>.,.,.,.,.,.,.;.<.} 1X",
"M.N.M.M.M.B.B.M.c.M.N.N.N.M.M.M.M.B.n.N.Y.n.x.9.9.Y.n.n.n.n.b.b.Y.Y.n.N.n.n.N.N.M.M.B.M.M.M.M.B.v.7X",
"B.N.N.B.Y.N.N.N.Y.N.Y.N.N.N.N.Y.[.V.N.N.N.N.M.0.s *.[.Y.[.N.N.Y.Y.Y.[.Y.Y.Y.B.B.Y.Y.N.Y.N.N.N.Y.v.7X",
"N.N.B.B.M.N.B.B.B.N.N.N.N.B.N.9.2.z.N.N.B.b.6.o.y.m 2.N.N.B.N.N.9.2.9.N.N.N.N.N.N.N.N.N.B.M.N.Y.v.7X",
"M.N.N.N.M.N.B.B.N.N.N.N.N.M.c.y + c N.N.z.2.>.+ :X}.  l.b.b.M.z.6 : c N.b.M.N.N.N.M.N.N.B.B.N.Y.m.7X",
"x.x.x.m.n.b.b.x.z.x.b.B.B.d.O =X%Xs.d c.b.| n T.:X=Xs.5 d.[.9.y T.-X+X. z.n.b.b.b.x.x.n.b.b.b.c.6.6X",
"z.x.k.k.x.x.b.x.k.k.z.M.+.y.#XsXT.2   q 0   2 :X>XpX#X  * t q   u $XaX{.Z 1.b.b.b.k.k.b.b.x.k.x.6.6X",
"b.B.n.b.x.x.M.b.b.b.x.M.p R *X@X! Y K.S.G.S.K.;X>X>X%XD.D.S.D.F.h J.*X@X: +.N.M.M.x.c.M.B.n.c.M.v.7X",
"M.M.M.b.M.M.M.M.M.b.M.n.M 1 K J ~.tXvXcXcXcXhX+XpX=X&XcXcXcXvXxXyX( H K < :.M.n.M.M.M.M.M.M.M.M.j.7X",
"n.M.M.n.M.M.M.b.N.N.N.e L.'.'.jXgXhXhXhXhXhXhXhXjXgXhXhXhXhXhXhXjXjXtX`.'.! x [.N.M.M.M.n.n.n.M.j.7X",
"c.n.n.n.M.b.c.Y.X.q t   9 U U S.rXvXgXhXhXlXhXhXhXlXlXhXhXhXhXhXcX<X~ U U >   t q d.N.M.n.n.n.M.j.7X",
"c.n.b.n.b.b.M.;.A.K.G.H.S.D.S.  K.eXzXhXhXhXhXlXlXhXlXhXlXlXlXlX3XC X H.D.H.K.G.H.:.2.M.b.b.c.M.j.6X",
"x.b.b.b.b.b.c.= _.vXcXcXcXcXxXC . G.hXjXhXhXhXhXhXhXhXhXhXhXgXfXj O K.vXcXcXcXcXvXG.k c.c.b.b.M.j.7X",
"x.b.x.n.M.3.5 0XhXhXhXhXhXhXhXgXlX_.3 hXcXcXvXlXhXhXlXcXcXvX0X  fXgXgXhXhXhXjXhXhXxXQ.= c.b.b.n.0.6X",
"c.n.x.x.M.8.  rXxXjXhXhXhXhXlXxXcXgX_.D.J.( !.hXhXzXdX/ ( J.H.3XgXxXlXhXhXhXhXhXkXvX/.  M.b.b.b.0.6X",
"x.b.x.n.2.:.E.gXzXhXhXhXhXhXlXhXhXcXjX, / !.~.zXlXlXdX!.~.P E vXhXhXhXhXhXhXhXlXlXcXrXG.;.9.b.c.0.6X",
"k.k.k.x.s j lXdXdXdXhXhXhXhXhXhXhXlXfXT rXvXzXzXlXlXlXzXvX/.( zXhXhXhXhXhXlXhXhXgXrXgXrX@ +.z.z.5.5X",
"h.h.h.k.c + & ; G !.cXhXhXhXhXhXhXhXhXgXhXhXhXhXlXlXhXhXhXhXhXhXhXlXhXhXlXhXxXlXT 1 ; % + ;.k.k.&.5X",
"k.k.k.z.v 7 s.T.W K A.kXcXhXhXlXhXlXhXxXhXhXhXlXhXhXhXhXhXhXzXhXlXhXhXhXhXcX0XC K p.T.i.@ ;.z.l.5.5X",
"z.z.z.x.l n -X-X^.W m Q.rXxXhXhXlXhXlXhXhXhXhXhXhXhXhXlXhXhXhXhXhXhXhXhXzX9XT.R p.@X:X#X# +.z.x.6.6X",
"z.z.k.l.l m pXsX-X+X#X  /.cXhXhXhXhXhXhXlXhXlXhXlXlXhXhXhXhXhXhXhXhXhXhXvXD.u ;X+X:XsX-X> ;.l.z.6.5X",
"z.k.k.l.p m sXpXpXpXpX2 _.cXhXhXlXlXhXlXhXhXlXlXhXlXhXlXhXhXhXhXhXhXhXgXcXG.y.>X>X>XpX:X@ +.k.z.6.6X",
"k.z.h.*.v B R :XaXpXaXs.8XcXhXhXhXhXhXhXlXhXhXhXhXhXhXhXhXhXhXzXhXhXhXhXhX&X+XsX>XsX%Xn c *.h.l.6.5X",
"k.k.*.{ 1.@.r s.-X:X^.8XfXlXhXlXlXhXhXlXlXhXhXhXlXhXjXlXhXlXhXhXhXlXhXhXlXfX&X^.>X#Xy.- | +.3.z.-.5X",
"k.2.+.-.3.B B . T.@XH tXcXhXhXhXhXlXhXhXjXhXlXlXlXhXlXhXlXhXhXlXlXhXhXlXhXcXqXH :XA    .x N 1.l.=.4X",
"%.$.8.x.f + + % $ , I tXlXhXhXlXhXlXlXhXlXlXlXhXhXhXlXlXlXhXhXlXlXhXhXhXhXcXqXD 3 # > + @ b O.>.` ,X",
"*.o.  3.c t r.r.) Y rXhXlXlXhXhXhXhXhXlXhXhXhXhXlXhXhXhXhXhXlXhXhXhXlXhXhXhXgXwX< 4.r.w.+  .s * ` ,X",
"+.Z E.Z O c Z.Z.' ! cXlXlXhXlXhXlXjXlXhXlXhXlXlXhXlXhXhXhXlXhXhXlXhXhXhXhXhXxXhX4 w.Z.C.3 * :.E.w ,X",
"x g vXH.> i e.C.4.~ cXhXhXlXlXlXhXlXhXlXhXhXhXhXhXhXlXlXlXhXjXlXhXhXhXxXhXhXxXfX< w.C.w.5 3 _.jX  ,X",
"b j fXvXW.  + t.OX&XcXhXhXhXhXhXhXhXlXhXhXlXlXhXlXhXhXhXhXhXlXlXhXhXhXhXhXjXhXgX< e.w.X   9XcX0X  oX",
"k j vXzXfX9X(.g u.*XjXcXcXcXcXcXlXhXlXhXhXlXhXlXjXlXlXhXlXlXhXhXhXxXcXvXvXcXzXkXW.i ! ].eXgXvXdX  oX",
"X.Z E.kXhX3X^ 8.[ E.vXtX_.R.E.R.rXcXhXlXlXhXlXlXhXhXhXlXjXhXhXhXcX3XR.E.E./.wXzX#Xa.:.!.yXjXeXP.s oX",
"3.+.  <X]./ 0 C.' h jX~.U 9 j < Q.dXlXhXhXlXhXhXhXlXhXlXlXlXhXhXrXG.< j 9 , !.iXT.OXq.y ~.wXR.  } oX",
",.;.;.; X i C.Z.] U '.& / yXcX'.h D.cXhXlXjXhXlXlXlXhXhXhXhXlXhXd ^ yXxX'.! , K + q.Z.t.= X d ;.N oX",
">.;... .r i Z.Z.4.+ j X _.cXhXcXE S.cXhXhXlXhXhXhXhXlXhXhXhXhXhX7 W.cXgXcXK.O 7 . e.Z.t.@ l V ;.N oX",
">.@. . .x k 4.4.m G     W.jXjXyXE S.cXhXhXhXlXhXlXhXhXlXhXhXlXhXy L.jXlXyX~   % G [ 4.4.f B  .@.` ,X",
"@.X.o.V V v > $ G P m A / ).9X~.9 J.cXhXzXhXhXlXhXhXlXhXhXhXhXhXj T ).9X(./ A n I 1 $ & V V V +.N XX",
"<.>.;.+...V N ..r n #XxXR.  + * F ~.vXhXhXhXhXhXhXlXhXhXhXhXhXhXQ 1   +   3XfX{.; l  .| V V @.,.} ,X",
"9.2.,.>.@...V O.q E gX$Xm   7 S ).jXhXhXhXlXlXhXlXhXhXhXhXhXhXjXkX!., 6   u.-XfX7 l  .V ..@.>.d.#.1X",
"9.3.3.2.,.;. .;.q ~ cXiX2XH.+ ).jXcXlXhXhXlXhXhXhXhXhXhXhXhXhXlXvXgX~.  Q.8XfXhX4 z X...@.....d.j.,X",
"3.3.3.<.,.;.X.;.; A fXfXzX8Xn 3X9X9XjXxXlXlXhXlXlXlXhXhXzXhXlXtX9X0XoXn kXhXfXiX4 z @.{ d.d.d.d.#.,X",
"9.3.3.3.2.,.;.;.d n +XT.=X:X{.@   U '.dXgXhXlXhXjXjXhXhXgXgXrX(.9   n #X:X#X{.{.; M ..d.d.@.d.d.#.5X",
"3.3.3.3.<.<.>.>.+.c 8 -XsX>X+X7 p f 4 g 3 W.vXvX!./.vXcX~ 7 g 9 Z ; m #X>XsX#X% B ;.d...d.d.d.d.#.1X",
"d.2.d.2.<.2.,.>.@.B f i.p.i.A f x a e p w C P.K.L Y P.K.l - r f V l c y.i.D.A p B V d.d.d.d.@.d.d.1X",
"<.<.,.<.2.<.>.;.X...V -   . ; B B x l l V p     = *     f z M  .V V l $ o . p d.X.d.V d.d.@.d.d.} 1X",
",.*.*.>.<.1.;.+...V V V V V V M B V x s s x v v z b M x l M V V M V M V N V V V V d.d.d.d.d.d.d.N ,X",
"*.@.@.@.@.;.@.+...V V M v v M V V V B M z z l l z s s l v +.V V V V M v M M V V V V @.V } d.#.j.b ,X",
",.,.;.>.@.d.@.X.X.O.M V V V V V V @.@.d.x s z x x z s V d.M X.V V V V V V V V V X.d.M d.V V ..d.} 1X",
"d.,.,.d.d.d.d.d.@.d.d.@.@.X.V d.V d.d.V d.V v M M z V d.V d.d.@.d.@.V d.V d.d.;.X.d.d.d.d.d.d.d.#.1X",
"@.O.+.+.+.@.$.@.O.........V @.X.O.$...O.V V N s s N ..$...O...#.....@.V V V ..O.V d.V d...d.N d.N ,X",
"U.U.U.U.U.U.U.U.U.U.U.I.U.I.I.U.U.U.U.U.I.I.c.f.f.U.U.I.U.U.U.U.U.U.U.U.U.c.U.U.U.U.c.U.c.U.c.f.f.3X"
};
