/* XPM */
static char *result[] = {
/* columns rows colors chars-per-pixel */
"50 100 230 2 ",
"   c #000000",
".  c #0C0000",
"X  c #190400",
"o  c #100A11",
"O  c #240000",
"+  c #2B0000",
"@  c #350101",
"#  c #390201",
"$  c #390E03",
"%  c #391604",
"&  c #281015",
"*  c #3E2B05",
"=  c #050035",
"-  c #0D0D34",
";  c #351223",
":  c #392532",
">  c #3B323C",
",  c #4A0F00",
"<  c #520000",
"1  c #710F00",
"2  c #51260B",
"3  c #6C2B11",
"4  c #47102E",
"5  c #463728",
"6  c #4F3133",
"7  c #473938",
"8  c #693B37",
"9  c #554838",
"0  c #604736",
"q  c #0C0D44",
"w  c #0C1157",
"e  c #221D43",
"r  c #262548",
"t  c #2A324E",
"y  c #32334E",
"u  c #473B48",
"i  c #4C2B56",
"p  c #463573",
"a  c #7B3762",
"s  c #334555",
"d  c #395274",
"f  c #444052",
"g  c #585053",
"h  c #634E4F",
"j  c #755E45",
"k  c #775F48",
"l  c #726256",
"z  c #756558",
"x  c #474C62",
"c  c #46546A",
"v  c #4A556C",
"b  c #54556A",
"n  c #465976",
"m  c #4C5C75",
"M  c #4D5E79",
"N  c #545E78",
"B  c #6B5068",
"V  c #765072",
"C  c #41637F",
"Z  c #4E617C",
"A  c #51637D",
"S  c #5C6479",
"D  c #716A71",
"F  c #890100",
"G  c #960000",
"H  c #902F00",
"J  c #843F3C",
"K  c #93590F",
"L  c #AD4809",
"P  c #914E32",
"I  c #B05A33",
"U  c #B4682C",
"Y  c #975259",
"T  c #836B4A",
"R  c #8E6A57",
"E  c #B27154",
"W  c #89726D",
"Q  c #857C75",
"!  c #AC7769",
"~  c #C37455",
"^  c #89837B",
"/  c #97847A",
"(  c #AE9668",
")  c #B09474",
"_  c #C38F74",
"`  c #C9AB7B",
"'  c #283390",
"]  c #3C5982",
"[  c #475F81",
"{  c #544E90",
"}  c #57559E",
"|  c #6E5786",
" . c #4F6382",
".. c #496489",
"X. c #526583",
"o. c #586781",
"O. c #566986",
"+. c #5A6A86",
"@. c #53678A",
"#. c #566B8B",
"$. c #596D8D",
"%. c #5C718E",
"&. c #4E6993",
"*. c #556D91",
"=. c #5A6E91",
"-. c #577094",
";. c #5D7293",
":. c #5D759B",
">. c #5A749D",
",. c #697087",
"<. c #61728E",
"1. c #617695",
"2. c #657996",
"3. c #687B97",
"4. c #617699",
"5. c #647A9C",
"6. c #697D9C",
"7. c #4F53A5",
"8. c #585EB8",
"9. c #5E78A2",
"0. c #5E63B7",
"q. c #667DA1",
"w. c #697FA1",
"e. c #627FA8",
"r. c #6968B1",
"t. c #6972D4",
"y. c #6C78E2",
"u. c #727EE8",
"i. c #876487",
"p. c #8E758C",
"a. c #9A759A",
"s. c #A178A6",
"d. c #C17A8B",
"f. c #6C809F",
"g. c #77849B",
"h. c #6B81A5",
"j. c #6A84AB",
"k. c #6C84AA",
"l. c #7084A5",
"z. c #7A89A3",
"x. c #7D8BA3",
"c. c #7187AA",
"v. c #7289AD",
"b. c #6C87B0",
"n. c #6E89B4",
"m. c #758DB2",
"M. c #788FB4",
"N. c #718DB8",
"B. c #7991B5",
"V. c #7791B9",
"C. c #7C94BB",
"Z. c #7682EC",
"A. c #7888FA",
"S. c #8E8681",
"D. c #8A8786",
"F. c #938983",
"G. c #908E95",
"H. c #A29C98",
"J. c #B3A59D",
"K. c #808EA5",
"L. c #8793A8",
"P. c #8493AC",
"I. c #8D98AA",
"U. c #939CAD",
"Y. c #8595B2",
"T. c #8498B9",
"R. c #8B9DBC",
"E. c #939DB1",
"W. c #B28CB4",
"Q. c #8EA0BE",
"!. c #97A1B2",
"~. c #9AA4B5",
"^. c #9CA6BA",
"/. c #9EA8BD",
"(. c #B4B1B0",
"). c #BBB9B4",
"_. c #C99888",
"`. c #C18092",
"'. c #CAAF8D",
"]. c #D5B689",
"[. c #D3B8AB",
"{. c #C1BEB8",
"}. c #E3C89A",
"|. c #D3C5BB",
" X c #EAD1A5",
".X c #ECD4AC",
"XX c #ECD5AF",
"oX c #899EC1",
"OX c #BB94C7",
"+X c #8EA1C2",
"@X c #91A3C3",
"#X c #9EABC1",
"$X c #A2AEC4",
"%X c #A3B0C7",
"&X c #A5B2CA",
"*X c #AEBACF",
"=X c #C59BCF",
"-X c #CFA5CF",
";X c #D4A8D8",
":X c #E1AFDA",
">X c #DEB3E8",
",X c #E7BCEE",
"<X c #E9BFF1",
"1X c #CAC8C3",
"2X c #D1CEC7",
"3X c #D5D3CD",
"4X c #DCD6C8",
"5X c #D4CFD0",
"6X c #DBDAD4",
"7X c #E3CEC4",
"8X c #E4D8C7",
"9X c #F0DEC2",
"0X c #E1DCD4",
"qX c #F1E6CF",
"wX c #E8E3DA",
"eX c #F3EAD8",
"rX c #DEC9E1",
"tX c #E5D6E3",
"yX c #EEC2F5",
"uX c #F4C8FB",
"iX c #EBEBE7",
"pX c #ECEBE5",
"aX c #F2EEE5",
"sX c #F7F3E7",
"dX c #F6F6EF",
"fX c #F9F7EC",
"gX c #F6F7F0",
"hX c #F7F8F2",
"jX c #FBFBF4",
"kX c #FEFFFA",
/* pixels */
"*XT.+XoXoX+X+X+X+X+X@X+X+X+XoX+X+X+X+X+X+X+XoXY.P.T.+XoXoXoXoXT.+X@X+X@X+X+X+X+X+X+X+X+X+X+XoXoXR.#X",
"&Xn.C.V.V.N.V.V.C.V.V.V.V.V.V.V.V.V.V.V.V.V.N.e.>.e.V.V.V.V.C.C.C.V.V.V.V.V.V.V.C.V.V.V.V.V.V.V.N.+X",
"&XN.T.C.C.oXC.T.oXT.C.C.V.T.oXV.oXV.oXC.oXV.w.q.9.q.w.oXT.C.C.C.C.T.C.C.V.oXoXV.C.T.C.C.C.C.oXoXC.@X",
"&XN.C.C.C.B.C.C.V.V.C.C.V.V.T.V.C.V.m.C.N.q.>.V.M.q.9.e.m.m.C.B.V.C.C.C.n.n.oXC.C.C.C.C.C.C.V.C.V.@X",
"%Xe.m.m.m.m.M.m.m.M.v.V.T.V.V.M.V.M.M.m.e.e.m.T.w.w.w.q.w.m.M.m.b.m.m.M.v.m.V.M.m.m.v.m.M.m.m.m.b.R.",
"#Xe.v.k.k.v.m.b.w.w.v.M.m.m.M.M.v.v.c.q.4.w.oXv.e.m.v.r.9.h.b.m.M.M.M.b.w.m.m.m.m.v.j.v.m.v.k.c.e.T.",
"%Xn.C.m.m.b.M.B.N.M.v.v.v.v.M.M.M.M.w.q.w.oXb.e.w.w.m.w.q.:.k.M.V.V.m.m.v.M.M.V.M.N.m.M.C.M.v.B.m.@X",
"%Xn.B.M.M.M.B.M.M.V.V.M.V.V.M.V.V.e.-.n.oXe.w.c.w.e.w.e.e.5.:.k.Y.M.Y.M.V.V.V.M.V.M.M.M.B.B.B.B.m.+X",
"%Xb.B.M.M.B.B.B.M.M.M.V.M.M.B.B.w.=.b.C.c.w.w.e.w.k.k.w.w.k.q.:.w.T.m.V.V.M.V.M.M.M.V.M.B.B.M.B.m.R.",
"%Xb.B.M.M.M.M.m.M.M.V.m.M.M.M.e.>.b.C.v.e.k.k.w.e.w.e.w.e.e.q.q.>.e.m.m.m.M.M.M.m.V.M.M.M.M.v.B.m.R.",
"%Xk.B.M.m.M.B.M.M.M.M.m.B.v.w.>.k.B.v.e.c.k.k.w.c.w.k.e.c.w.k.w.q.:.w.V.M.V.m.M.M.m.m.M.m.M.v.M.b.R.",
"%Xk.B.v.M.v.v.M.M.v.m.M.m.w.>.w.T.b.w.k.w.k.e.c.k.k.k.k.w.k.k.e.q.9.q.w.m.m.M.b.v.M.M.v.m.M.M.m.m.R.",
"%Xj.M.m.m.m.m.m.m.M.m.m.e.>.e.T.k.w.k.w.k.k.k.k.k.k.j.w.k.k.w.k.w.w.:.:.w.C.m.M.M.m.m.m.m.m.m.M.k.R.",
"$Xj.M.b.v.m.v.m.m.b.m.w.=.w.T.k.k.e.w.k.w.k.w.k.w.k.k.k.w.k.k.w.w.e.w.:.9.w.m.m.M.v.v.m.m.m.v.m.v.R.",
"%Xj.M.v.v.m.m.m.v.m.w.>.k.V.k.w.w.k.k.w.w.k.w.w.e.q.q.w.e.q.w.w.e.q.q.q.:.:.w.m.v.v.v.m.v.m.v.m.v.R.",
"/.9.v.c.k.c.k.k.v.w.=.w.M.w.q.w.w.w.w.e.w.q.q.q.q.q.q.w.q.4.q.q.w.q.4.4.4.:.;.w.v.c.v.k.k.h.k.c.h.Y.",
"/.>.l.h.h.k.k.k.q.=.q.M.c.4.q.:.q.q.4.q.q.4.q.:.q.q.4.4.q.q.q.5.q.4.q.q.q.4.;.>.q.c.c.w.w.w.w.w.9.Y.",
"^.h.v.k.h.k.v.f.>.4.M.k.q.h.q.5.q.4.5.q.q.q.4.q.q.e.q.5.w.4.q.q.4.5.q.e.4.q.4.=.>.b.c.w.c.M.N.w.e.Y.",
"#Xj.j.b.b.v.h.*.4.B.h.w.w.h.q.j.q.q.w.w.w.e.q.q.w.q.w.q.e.w.w.e.w.w.w.w.q.w.w.q.=.=.w.v.n.v.v.v.b.Y.",
"#Xj.b.k.v.f.-.:.M.w.w.q.q.q.q.w.q.q.q.e.w.q.w.q.w.w.w.w.w.w.w.q.e.w.e.w.q.w.q.q.5.>.>.w.v.c.c.v.j.Y.",
"/.9.c.c.f.-.f.b.k.q.q.q.q.q.q.q.q.q.q.q.w.q.w.q.q.q.q.q.w.5.q.q.q.w.q.q.q.5.q.q.q.5.=.>.w.b.w.M.h.Y.",
"#Xh.v.h.-.:.c.c.q.w.q.q.q.q.q.q.w.q.q.q.q.q.q.q.q.q.5.q.q.q.q.q.q.q.q.q.q.q.q.q.q.q.5.=.:.q.M.w.h.T.",
"#Xj.h.*.:.b.c.:.w.q.q.q.q.q.q.5.q.q.q.q.q.q.q.q.q.q.q.q.q.q.q.q.q.q.q.q.q.q.q.q.q.q.q.4.=.=.w.v.j.T.",
"#X-.;.%.M.k.:.f.5.5.5.q.5.5.q.q.5.q.q.5.q.5.5.q.5.q.5.q.q.5.q.5.5.5.q.5.q.4.q.q.5.5.5.q.4.=.:.w.h.x.",
"Q...:.v.w.:.4.4.:.1.5.4.:.4.q.5.4.4.4.:.4.:.;.4.4.4.:.4.5.4.4.4.1.4.4.q.4.4.q.q.4.4.;.4.4.4.=.=.*.z.",
"I.] ;.c.4.=.:.1.:.;.1.:.;.:.:.1.;.4.5.4.:.4.;.:.4.4.4.=.4.:.:.:.;.:.;.;.=.:.;.;.:.4.q.;.;.:.=.#...g.",
"^.&.;.:.4.4.4.4.4.4.4.4.4.4.4.4.4.5.5.5.4.q.4.4.4.5.5.4.4.4.4.4.4.4.4.4.4.4.4.4.4.5.q.4.4.=.*.w.:.z.",
"$X>.4.#.>.q.4.4.4.q.4.q.4.q.4.5.q.4.q.5.5.5.5.5.q.5.5.q.q.4.q.5.q.4.q.4.q.4.4.q.4.q.4.q.=.*.5.M.h.M.",
"/.9.l.;.#.;.5.q.5.5.5.5.5.5.2.5.4.4.5.5.5.5.4.5.4.5.5.5.5.4.5.5.5.4.5.5.4.4.5.4.4.5.4.=.$.2.M.l.q.Y.",
"/.9.l.h.=.#.=.5.5.4.2.4.4.4.3.4.4.5.4.4.4.4.5.5.4.4.2.4.4.5.5.2.5.5.4.4.4.5.4.q.q.4.;.@.5.m.f.h.q.P.",
"^.:.l.h.w.=.#.=.4.r.4.4.4.4.4.4.4.4.4.4.4.3.4.4.4.4.4.4.4.4.4.4.1.4.4.1.4.4.4.4.4.=.@.q.v.l.h.l.f.Y.",
"/.>.h.h.h.w.=.*.=.4.4.4.4.4.4.4.4.4.1.1.4.4.1.4.4.4.1.1.1.4.1.1.4.1.4.4.4.1.5.1.=.#.5.v.v.w.h.h.q.Y.",
"$Xq.z.w.w.v.w.;.@.=.4.4.4.1.4.4.4.4.4.4.4.4.4.1.1.4.4.4.4.4.4.4.1.4.4.4.4.4.1.=.O.2.c.l.h.h.l.l.5.P.",
"#Xq.w.w.w.w.w.w.=.#.=.;.1.:.1.;.1.;.;.1.1.;.1.4.=.1.4.1.=.1.1.4.4.1.4.1.;.1.=.@.1.c.h.h.6.h.w.l.q.P.",
"E.:.w.w.w.w.w.w.q.@.@.=.;.;.;.$.$.=.;.;.=.=.;.4.=.;.=.=.=.1.;.1.1.;.;.=.1.$.@.=.v.h.f.h.w.w.w.w.5.P.",
"!.} 2.1.4.6.6.5.5.4.#.@.$.$.;.;.=.=.=.$.$.=.$.=.=.=.=.$.$.=.1.=.=.$.=.=.$.@.1.c.5.5.5.1.4.3.4.5.=.K.",
"^.-.6.5.6.6.4.5.w.w.5.$.X.#.:.;.;.;.;.1.=.=.=.=.$.$.=.;.=.$.$.=.#.=.;.$. .4.w.w.:.:.h.:.:.-.-.-.4.x.",
"^.:.h.w.w.6.6.w.w.w.w.5.#.X.$.;.;.;.;.1.1.=.1.=.=.4.1.;.1.$.=.=.;.4.$. .1.w.w.w.f.:.h.f.f.f.f.f.q.Y.",
"^.:.l.6.w.w.w.w.w.w.w.w.:.#.X.*.=.1.;.;.<.;.1.4.1.s $.1.;.1.;.;.;.#.@.=.w.w.w.w.f.f.:.f.f.f.f.f.4.P.",
"^.-.l.6.w.6.6.g.6.w.6.6.f.2.#.X.<.=.;.;.1.$.1.+.N a N $.1.;.;.;.#.X.<.w.z.6.6.6.f.f.f.f.f.f.f.f.4.P.",
"~.-.f.6.6.f.6.6.f.5.f.f.5.f.5.X. .$.;.%.%.;.1.c 6 =XV y 2.<.;.#.X.#.w.w.2.f.f.f.5.f.f.:.%.f.f.f.4.K.",
"~.:.f.f.6.6.6.5.6.f.5.f.f.2.f.2.X.@.;.1.4.3.s i.;X<X;Xa.y 2.=.@.4.z.w.w.f.f.:.f.f.2.f.f.f.f.f.f.4.P.",
"~.-.f.3.3.6.5.f.f.3.f.6.5.f.f.f.1.t e r r t . 4 i.a.i.i . r - e y x 3.w.f.2.2.f.;.f.:.f.%.f.%.f.:.K.",
"~.-.f.1.6.6.1.3.2.:.2.3.2.2.%.A o.R Q S./ p.D.S.^ Q Q ^ F.^ F.F.Q T S o.+.f.2.2.f.f.;.f.f.f.f.f.1.P.",
"!.#.2.%.1.2.1.%.;.%.3.1.%.;.g # 9 }.aXkXjXjXjXjXhXjXjXjXjXjXhXjXfX.Xz + u 3.:.f.%.f.f.%.f.%.%.f.=.x.",
"!...<.%.;.1.<.%.%.1.3.f.3.- J.XXiXaXsXdXdXdXdXsXdXdXgXdXdXdXhXgXdXaXaX0X'.- 2.h.%.f.%.f.f.%.f.f.#.g.",
"!.#.2.%.;.2.2.3.3.y - r r F U ].eXkXgXdXdXdXgXdXhXdXgXdXdXdXdXsXfXjXeX}.U F 6 e e r %.%.+.+.%.%.;.K.",
"!.-.f.2.2.2.f.<.A F.F.S.F._._.) '.|.iXgXgXgXgXdXdXdXdXdXdXhXdXhXdX2X'._ _.'.F.p.^ / S %.f.%.f.%.;.K.",
"!.#.f.f.3.2.2.o.6 pXkXjXjXgXkX3X.   1XhXaXdXdXgXdXdXdXgXfXsXaXaX6X+   ).kXgXjXjXjXgXl b 3.2.4.3.%.x.",
"!.#.f.%.4.6.f ^ iXsXdXdXdXsXdXdXpXdXD.1 ~ L 8XjXdXdXdXjXwXI ~ P D aXiXaXdXdXdXdXdXdXdXH.r 3.2.5.;.x.",
"&Xn.m.m.M.oXd z kXgXgXdXdXdXdXgXdXgX0XH.3 |.aXgXdXdXdXdXsX7XY / 3XjXhXhXgXdXdXgXdXdXkXG.= oXB.B.M.Q.",
"&XB.C.C.T.g.,.(.gXgXgXgXgXdXgXdXdXdXkX2X3 hXjXdXdXdXdXdXdXkXz J.kXsXdXgXdXdXdXdXdXdXhX|.D.6.C.V.V.@X",
"&XN.C.C.C.  ).fXiXiXiXdXdXgXgXdXdXdXjX7XE dXgXdXdXgXdXgXdXhX_ [.jXgXgXdXdXdXgXdXdXaXpXjX5X  V.oXV.@X",
"&XN.C.V.C.f % 5 f L 7XhXsXgXgXdXdXdXdXdXaXdXgXdXdXdXdXgXdXdXaXsXgXgXdXgXgXdXsXkXwXI 0 5 * 6 v.C.V.@X",
"/.j.b.c.v.> D s.a.L R (.kXgXdXdXdXdXdXdXfXfXgXdXgXgXdXdXdXdXhXhXgXdXdXdXdXdXkX|.R L a.s.i.$ w.m.j.R.",
"$Xj.c.h.c.o W.>X>X`.Y p.2XaXgXdXdXdXdXdXdXdXgXfXdXdXdXgXdXgXdXdXdXdXdXgXdXdX3XG.a d.-X>XOXX w.l.j.T.",
"%Xn.B.v.m.  W.uXyX-X;XW.  pXhXdXdXdXgXgXdXdXdXgXdXdXdXgXdXgXdXgXdXdXdXdXhXdX5 a.;X-X<XuX=X. w.m.m.Q.",
"&Xv.B.v.m.o W.uX<X<XyX=XX pXhXdXdXgXfXgXgXdXdXdXdXgXdXgXdXdXdXdXdXgXdXdXdXdX9 W.yX,X,XuX;X. w.m.b.Q.",
"%Xc.B.v.x.  W.uX,X<XuX,Xs.aXhXfXdXdXdXdXdXgXdXgXgXdXdXfXdXgXgXdXdXdXdXdXgXgXW.=XuX<XuX=XD +.w.v.v.Q.",
"%Xb.B.v.c.c a.-XyXyX:X-XrXdXdXdXdXgXdXgXdXdXdXdXdXdXgXdXdXdXgXfXdXgXdXhXgXgX0X-X:X<X-XD s k.l.v.v.Q.",
"%Xj.B.c.f.z.s B ,X,Xd.( jXdXhXdXdXfXgXdXgXgXgXdXgXdXgXfXgXdXdXdXdXdXdXdXgXdXjX'.E ,X4 v f.3.l.v.b.R.",
"$Xj.m.c.h.f.f.#.6 u F _.hXdXdXdXgXdXgXdXdXfXdXdXdXdXgXgXdXdXdXgXgXgXdXgXdXdXfX[.G u <.5.3.f.h.c.c.R.",
"%Xb.B.v.h.b 7 * @   J.wXdXdXdXdXdXdXdXgXdXgXgXdXdXdXdXdXgXdXgXdXdXdXdXdXdXdXdXaX{.  5 5 9 x h.v.v.Q.",
"!.C f.v.c.: p } }   |.kXdXdXdXhXgXdXdXdXdXdXdXdXgXdXgXdXdXdXdXgXgXfXdXdXdXdXdXjX6X. { 7.p @ h.M.q.g.",
"^ # D b.h.* 0.A.u.q {.kXdXdXgXdXgXdXdXdXgXdXgXgXdXdXdXgXdXdXdXgXdXdXdXdXdXdXdXjX3XX u.A.t.% 3.v.,.k ",
"Q '.)   O # r.A.u.q {.jXiXdXsXdXsXdXgXgXdXdXdXdXdXgXgXdXdXgXdXdXgXdXdXdXdXdXdXjX3XX y.A.t.$ +   T XX",
"D 4XsX2X6X9   7.A.= {.kXjXkXjXkXkXgXdXdXdXgXdXdXdXgXdXdXdXgXgXdXdXdXkXkXjXkXjXkX3X  Z.8.= X 2X3XwXfX",
"G.H.iXkXjX{./ / 8.V 5XfX[.-X).).).dXgXdXdXdXgXdXgXdXdXgXgXdXdXdXhXgX|.).).).[.aXpXV 8.p.( (.dXkXpX{.",
"/.  H.dXdXjXqX'.r =XrXXXG 2 6 6 0 4XdXdXdXdXdXgXdXdXdXdXdXdXdXhXdXwXz % 9 2 F [.tX=Xi ) 9XfXsXaX(.; ",
"U.4.x z gX9X( w A.OXd.H 7 ].eXaX}.# 1XkXdXgXdXdXhXdXdXdXdXgXdXjXwXO '.eXaX}.g H ! =XA.' K XXjXH.= P.",
"U.#.+.S Q T } t.u.| 8 , 6 wXfXdXwX# 1XjXsXgXdXgXdXdXdXdXdXdXdXjX6XX 0XfXsXaXl < 8 V u.y.e.k ^ S [ x.",
"E.*.3.M =   8.A.u.y X o @ 8XfXfXqX$ 1XkXdXdXdXdXdXdXdXfXdXdXdXjXwX  XXfXhXqXh   + + y.A.y.  r S 1.g.",
"E.-.#.n +.7 } y.t.f , u D ` 8X8X].< 1XkXsXdXdXfXdXhXdXdXdXdXdXjX0X< ` 7X0X'.D 0 2 u t.y.0.2 +.1.=.g.",
"~.&.X.A <.+.f # , & G _.gXh O & 5 G 7XjXdXdXdXgXdXdXdXdXdXhXdXjX0XL 2 & # @ iX[.H A ; @ y n v +.1.g.",
"U.] $.6.o.M m v c c b W _ ,   3 I 0XsXdXdXdXfXfXdXfXdXdXdXdXdXdXsX0X_ 1 & # _ ! b m v c v Z M X.M g.",
"U.] <.6.@. .M M m M n b J p.B < P 8XhXjXgXhXhXfXhXhXhXdXhXhXgXjXjXeXE < : s J B d N A Z Z A A X.[ 6.",
"/.&.$.=.;.@.X.N M  .N M [ OXi.  u '.8XwXwXaXsXaXaXaXaXaXaXaXwXwX0X].h o u Z C Z A A A X.A M X.6.q.z.",
"$X9.4.@.=.=.$.+.o.o. .o.A n m A M ; # X 5 }. X X X X X X X Xk   # @ v Z Z A A X.+.#.#.+.X.X.4.v.w.P.",
"^.9.w.4.@.$.=.=.=.$.+.o.X.A A Z M v v v v j j j j j j j j j b c v v Z A A A +.#.#.#.%.O.@.4.v.l.q.Y.",
"^.9.l.w.1.@.$.1.;.;.=.$.+.X.A A Z A Z A Z y t t t t t t t t m Z Z A A A X.o.+.+.1.;.#.@.3.v.6.h.q.Y.",
"$X:.w.w.w.=.*.=.4.;.1.;.%.+.X.X.X.A A M M A A A A A A A A S Z Z A A A X.#.%.$.1.;.=.@.w.m.h.h.l.h.I.",
"E.q.z.M.w.w.;.#.=.4.1.;.%.%.%.#.O.O.X.A A N M Z m m M Z Z Z Z Z X.X.+.#.%.<.1.;.$.@.w.c.k.h.h.h.h.I.",
"$Xq.w.w.w.w.w.1.@.=.:.1.1.;.;.;.%.$.+.+.o.X.X. .A A A A X.A S +.+.$.$.;.;.1.1.$.+.6.c.l.h.h.w.w.f.B.",
"^.>.z.w.v.w.w.w.=.@.;.1.1.;.;.;.;.$.%.$.#.@.o.o.X.o.+.X.O.#.+.#.$.;.1.;.;.1.$.@.4.c.w.w.b.a.w.w.h.x.",
"E.>.w.w.w.w.6.w.w.#.@.=.;.;.%.%.#.$.=.=.#.#.$.$.o.#.#.@.#.%.%.%.;.;.;.$.%.*.#.;.v.w.w.w.w.w.6.6.f.x.",
"E.*.5.4.1.5.5.5.5.5.#.@.#.#.;.;.$.=.=.#.$.$.$.$.$.#.#.#.#.#.%.%.$.$.=.=.%.O.:.c.5.5.5.4.2.3.4.1.&.x.",
"#X=.w.6.6.5.5.5.w.w.5.=.X.*.;.;.;.;.;.1.<.=.=.$.$.=.=.1.;.#.#.=.=.;.;.@. .5.h.:.5.6.w.5.4.5.4.w.f.x.",
"E.4.w.w.w.w.6.w.w.w.w.5.*.X.#.:.1.;.4.;.=.;.4.;.=.=.1.;.;.;.=.;.;.;.#. .5.h.f.f.5.w.w.w.q.6.q.w.f.B.",
"$X>.g.w.w.w.w.6.f.f.f.f.;.#. .%.;.;.;.;.;.;.;.;.1.1.;.1.;.1.;.1.%.#. .;.l.f.:.f.-.f.f.f.f.f.%.f.f.m.",
"^.=.l.6.6.6.6.6.f.f.:.f.f.f.#. .%.%.1.;.;.%.;.;.<.=.<.1.;.%.1.$.%.A %.c.f.f.f.f.f.f.f.f.f.f.f.f.f.x.",
"^.=.w.6.6.6.6.6.f.f.f.f.f.:.f.X.A %.%.%.%.;.;.%.=.%.1.$.%.1.$.#.C %.f.f.f.f.f.f.f.f.-.f.f.-.f.f.f.x.",
"E.:.w.6.6.6.w.6.%.f.f.%.f.f.f.;.X. .%.;.%.%.%.;.;.;.$.;.=.$.#.X...f.f.f.f.f.:.f.-.f.f.f.f.f.f.f.f.f.",
"^.-.3.6.6.6.6.6.f.f.%.f.%.f.f.f.2.X.Z *.%.%.%.%.%.%.%.%.<.#.M =.f.f.f.f.f.f.f.f.f.f.f.f.f.f.f.f.f.x.",
"^.-.6.3.6.6.2.2.f.f.f.f.f.f.;.f.f.;.O.A O.%.%.%.+.%.%.%.O.Z ;.3.f.f.f.%.%.f.%.%.f.%.f.%.f.f.%.f.f.x.",
"!.@.2.<.2.2.<.<.%.%.%.f.%.%.f.<.2.f.%.X.Z #.O.O.X.#.*.#.Z %.3.f.f.%.%.f.%.f.f.f.f.f.%.f.f.A f.f...x.",
"!...<.#.<.1.1.$.%.%.%.%.%.%.;.;.%.;.;.%.X.Z X.O.O.+.X.Z X.f.6.;.O.f.%.%.%.#.%.f.O.%.%.%.f.C f.f.#.g.",
"!.*.2.%.%.f.%.%.%.%.+.f.f.%.%.f.+.f.%.%.%.C A O.%.O.C O.f.f.%.%.%.+.f.%.f.%.f.%.f.A f.C f.A f.A A x.",
"!.%.f.f.f.f.f.f.f.f.f.f.%.f.f.f.f.f.f.f.f.f.A A A A +.f.f.f.f.f.f.f.f.f.f.f.f.%.f.f.A f.f.%.f.f.f.x.",
"U.[ %.+.-.#.#.#.A %.%.#.%.%.C A #.-.%.%.A +...C d ..%.;.%.-.#.$.#.%.A O.%.#.#.-.A #.f.f.f.A C f.C x.",
"(.L.I.I.I.I.I.Q.I.I.I.I.I.I.I.I.I.I.I.I.L.I.I.x.g.L.!.I.I.I.I.I.I.I.I.I.I.I.I.I.I.I.x.I.x.I.L.L.I.~."
};
