/* XPM */
static char *result[] = {
/* columns rows colors chars-per-pixel */
"100 50 201 2 ",
"   c #000000",
".  c #040A0B",
"X  c #0C0D0D",
"o  c #10100E",
"O  c #0A0E12",
"+  c #001717",
"@  c #0C1015",
"#  c #0E1219",
"$  c #001B1B",
"%  c #121211",
"&  c #18151B",
"*  c #1C1C1B",
"=  c #20201E",
"-  c #151C24",
";  c #191F26",
":  c #181F29",
">  c #012D2D",
",  c #1A222C",
"<  c #182832",
"1  c #1E2835",
"2  c #003E3E",
"3  c #093B3E",
"4  c #173434",
"5  c #252524",
"6  c #24242D",
"7  c #262D34",
"8  c #242E3B",
"9  c #362836",
"0  c #27303D",
"q  c #333332",
"w  c #3E303E",
"e  c #35383C",
"r  c #3E3D3B",
"t  c #1B3A46",
"y  c #293543",
"u  c #293545",
"i  c #2C3B4B",
"p  c #363A47",
"a  c #303E51",
"s  c #4F3C4F",
"d  c #004545",
"f  c #184851",
"g  c #085557",
"h  c #005C5C",
"j  c #29404D",
"k  c #3D4247",
"l  c #2D4254",
"z  c #324154",
"x  c #364659",
"c  c #394A5D",
"v  c #1E5561",
"b  c #3A4D62",
"n  c #384B66",
"m  c #3E5066",
"M  c #3D526C",
"N  c #3B5370",
"B  c #006464",
"V  c #007373",
"C  c #007B7B",
"Z  c #444745",
"A  c #4D4D4B",
"S  c #51514D",
"D  c #46475B",
"F  c #594159",
"G  c #5E485E",
"H  c #49525A",
"J  c #545454",
"K  c #5D5D57",
"L  c #5C5C59",
"P  c #615D5C",
"I  c #62625D",
"U  c #425369",
"Y  c #575B61",
"T  c #445973",
"R  c #495D75",
"E  c #445D7C",
"W  c #495E7A",
"Q  c #684C68",
"!  c #755D7D",
"~  c #5F666E",
"^  c #4A617E",
"/  c #58697A",
"(  c #616161",
")  c #696965",
"_  c #6D6D6B",
"`  c #73756F",
"'  c #616974",
"]  c #697077",
"[  c gray44",
"{  c #7A7875",
"}  c #7D7D75",
"|  c #82827B",
" . c #455F80",
".. c #456282",
"X. c #4A6585",
"o. c #4F6984",
"O. c #4A668A",
"+. c #4D6A8C",
"@. c #506683",
"#. c #516984",
"$. c #526E8D",
"%. c #5E7185",
"&. c #54708F",
"*. c #4E6C92",
"=. c #516E92",
"-. c #547194",
";. c #5B7695",
":. c #5D7897",
">. c #56749A",
",. c #59769C",
"<. c #5C799D",
"1. c #657588",
"2. c #617894",
"3. c #607C9E",
"4. c #5677A0",
"5. c #5778A2",
"6. c #5C7CA2",
"7. c #5E7FA8",
"8. c #617EA2",
"9. c #8B7489",
"0. c #9D789D",
"q. c #008A8A",
"w. c #188484",
"e. c #009999",
"r. c #338C8F",
"t. c #00A1A1",
"y. c #09ACAC",
"u. c #00B7B7",
"i. c #00B9B9",
"p. c #7B838A",
"a. c #5F80A6",
"s. c #5F80A9",
"d. c #6381A6",
"f. c #6982A1",
"g. c #6283AB",
"h. c #6985AB",
"j. c #6988AF",
"k. c #6687B0",
"l. c #6788B1",
"z. c #6C8CB4",
"x. c #6E8FB8",
"c. c #708FB6",
"v. c #708FB8",
"b. c #6F90B9",
"n. c #7090B7",
"m. c #7293BB",
"M. c #7898BF",
"N. c #7697C2",
"B. c #7798C3",
"V. c #7899C4",
"C. c #7F9FCA",
"Z. c #00C1C1",
"A. c #00C9C9",
"S. c #00D0D0",
"D. c #00D9D9",
"F. c #00E2E2",
"G. c #00E8E8",
"H. c #00F0F0",
"J. c #00F8F8",
"K. c #8B8286",
"L. c #8C8C85",
"P. c #8C8E89",
"I. c #909089",
"U. c #928492",
"Y. c #969690",
"T. c #9B9B93",
"R. c #9A9A9A",
"E. c #A1A19A",
"W. c #ABAB9F",
"Q. c #AE87AC",
"!. c #B789B7",
"~. c #ABABA2",
"^. c #AAAAAA",
"/. c #B4B4AC",
"(. c #B8B8AC",
"). c #BBBBB2",
"_. c #BCBCBC",
"`. c #C2C2B9",
"'. c #C8C8BE",
"]. c #CC98CC",
"[. c #D29BD2",
"{. c #C5A2C5",
"}. c #DEA6DE",
"|. c #DFBCD9",
" X c #EDB5ED",
".X c #EDB6ED",
"XX c #CCCCC3",
"oX c #D3D3CA",
"OX c #D9D9CC",
"+X c #DDDDD2",
"@X c #DFDFDF",
"#X c #E2E2D5",
"$X c #E6E5D9",
"%X c #E9E9DC",
"&X c #F8C0F8",
"*X c #EEEEE0",
"=X c gray91",
"-X c #F4F4E5",
";X c #F8F8E7",
":X c #F8F8E8",
">X c #F6EFF0",
/* pixels */
"N.B.V.B.N.N.B.V.V.B.B.B.B.V.B.B.B.N.B.B.N.B.V.k.5.s.C.N.N.B.B.B.N.N.B.B.B.B.B.B.B.B.N.B.B.B.B.B.B.N.B.V.V.B.B.B.V.B.B.B.B.V.B.B.N.B.b b %.c.B.N.b.5.5.V.B.N.B.B.B.B.B.B.B.B.B.B.B.B.B.N.B.B.B.B.B.B.N.B.",
"N.N.N.B.N.N.N.N.N.N.B.N.B.N.N.N.N.N.B.N.N.N.b.s.5.s.x.N.N.N.N.N.B.B.B.N.N.N.N.B.N.B.B.N.N.B.N.N.N.N.N.N.N.N.N.N.B.N.N.V.N.N.N.N.N.B., X q / h.m.l.4.5.z.N.N.N.N.N.B.N.B.N.B.N.N.N.N.N.N.N.B.N.B.B.N.B.N.",
"N.N.N.N.N.N.N.B.B.N.N.B.N.N.N.N.N.N.N.N.B.N.5.5.5.5.5.N.N.N.N.B.N.N.N.B.N.N.N.B.N.N.N.N.N.B.V.B.V.B.N.N.V.N.N.V.N.B.N.N.N.N.N.N.B.B.h.;   . U k.5.*.5.5.l.B.N.N.N.N.N.B.N.B.N.N.B.B.B.B.N.N.N.B.B.V.B.N.",
"m.m.N.m.N.m.N.N.m.N.N.m.m.N.N.m.N.N.m.N.b.5.4.N.V.s.4.4.k.z.b.b.x.b.N.m.b.x.m.N.N.N.b.N.N.b.N.N.m.N.m.m.m.m.N.m.N.m.m.N.m.N.N.m.m.m.  J & R s.4.>.  z.5.5.7.l.x.m.x.b.N.N.m.x.b.B.m.N.N.m.N.m.N.B.m.B.m.",
"l.l.l.l.x.x.x.l.l.l.x.b.B.m.m.m.x.b.z.l.6.4.V.b.l.l.s.4.4.k.x.x.z.x.x.x.x.z.b.x.b.b.l.l.z.x.z.z.z.k.l.k.l.z.b.b.z.l.l.z.b.N.m.N.d.  ( j., M 5.l.h.    -.6.4.7.x.x.x.z.x.x.x.l.x.b.z.b.l.l.n.n.z.l.l.l.z.",
"x.x.x.l.x.l.b.x.l.z.l.x.b.x.b.m.b.b.l.6.5.b.b.z.k.k.k.7.4.5.k.b.b.b.b.x.z.l.b.b.b.b.z.z.b.b.x.z.z.b.b.z.z.z.z.b.b.z.z.z.z.b.z.b.d.  f.n.O.*.M , -     , +.6.4.7.x.x.x.m.x.l.l.b.b.b.b.z.l.n.n.n.z.z.z.b.",
"m.m.m.b.x.x.m.b.b.b.b.b.b.b.b.m.b.z.s.4.l.B.l.k.k.s.k.k.7.4.5.l.b.N.m.m.x.b.m.m.m.m.b.b.m.N.n.n.b.m.N.N.b.b.b.b.b.b.b.b.b.b.b.;.y r b.s.4.n e k n     b >.s.5.4.k.x.m.m.m.x.m.m.m.N.N.b.b.b.M.m.b.b.m.B.",
"m.m.m.m.m.m.m.m.m.N.m.m.m.m.m.m.b.6.4.l.V.k.s.k.s.k.k.s.s.s.4.4.z.b.N.m.m.b.N.m.m.m.b.m.m.b.M.m.b.m.b.m.b.b.b.m.b.N.m.m.m.b.b.&.@ 1.s.>.n p H 2.-.  z 6.g.h.g.5.>.k.x.N.m.N.m.m.m.m.n.m.m.n.m.m.m.m.m.m.",
"n.M.n.M.n.n.n.n.m.m.m.m.m.m.m.m.6.4.k.N.g.g.s.g.k.s.s.k.k.s.s.>.4.z.b.m.m.m.m.m.m.m.m.m.M.n.n.m.m.m.m.m.m.m.m.n.b.b.m.m.m.m.m.&.# g.>.>., k 2.g.>., k.s.s.k.g.s.4.4.k.x.m.m.N.N.b.m.m.v.m.m.m.m.n.M.n.n.",
"n.n.n.n.M.M.n.n.c.m.n.m.b.b.x.6.>.l.b.k.k.s.s.k.s.k.s.g.s.g.s.s.4.4.l.b.m.m.b.m.v.v.n.m.m.n.n.m.c.c.m.m.n.m.m.n.m.n.n.m.m.n.n.&.@ 4.s.Y 6 T g.s.s.k.s.k.g.g.g.g.7.4.4.g.b.b.b.b.b.b.v.m.m.m.m.n.n.n.n.n.",
"n.M.n.n.b.n.n.n.m.n.n.n.N.l.6.4.z.x.k.g.s.k.s.g.g.s.s.g.g.s.g.g.7.4.6.k.m.b.b.m.m.n.n.n.n.n.n.n.m.c.n.m.n.n.n.n.n.n.n.n.m.m.n...O g.x.# ..g.s.g.s.s.g.s.s.g.g.g.g.7.5.4.7.x.b.m.m.v.m.c.n.n.n.n.n.n.n.b.",
"n.n.n.n.n.n.n.n.x.x.n.m.l.6.4.k.m.l.s.g.s.s.s.s.g.s.s.k.s.s.s.g.s.6.4.5.k.b.m.b.n.n.n.n.n.n.n.n.m.c.n.n.n.n.n.n.b.n.n.n.b.b.z           ^ g.s.g.g.s.g.s.s.s.s.g.s.7.7.4.4.k.x.b.v.c.m.c.n.n.n.n.n.n.n.b.",
"n.n.n.n.n.n.n.n.n.n.n.z.7.4.7.N.j.s.s.s.s.g.g.s.s.s.s.k.g.g.s.s.s.s.6.>.4.x.n.n.n.c.x.z.n.n.n.z.c.c.m.c.n.n.n.n.c.n.n.n.8 @ ` T.* OXOX* . N a.g.g.g.s.s.g.s.g.g.s.g.k.6.4.4.l.x.v.x.c.c.c.c.n.n.n.n.n.n.",
"n.n.n.z.n.z.z.z.n.x.z.4.>.7.M.s.a.s.a.s.a.g.s.a.s.g.a.s.s.a.s.d.7.s.a.6.>.>.z.b.c.c.n.x.x.c.n.z.c.c.c.c.n.n.z.n.z.n.z.z P.T.} A X K K o   M d.g.s.s.g.s.g.s.a.s.8.7.8.6.6.>.>.s.x.c.x.z.z.x.n.z.n.n.n.n.",
"n.n.z.z.z.n.z.z.z.z.4.>.g.m.s.a.d.s.a.a.a.a.a.a.a.a.6.a.a.6.6.6.6.4.6.4.4.>.>.l.x.z.x.z.z.z.z.z.z.z.c.c.z.z.z.z.f.c x . K } J q q q q q X 7 ^ a.a.a.a.6.a.a.a.6.7.6.6.6.4.,.>.>.8.x.z.x.z.x.z.z.z.z.z.n.",
"g.g.h.j.g.j.j.j.j.,.-.j.j.s.6.6.6.6.6.6.a.6.6.<.5.5.,.6.6.6.4.6.6.,.,.4.4.>.*.4.d.j.j.h.h.h.h.g.h.h.d.h.j.j.&.U R K K K S * * Z ( ( Y ( q 5 y E 6.6.5.,.,.4.6.5.6.4.4.4.4.4.,.>.>.6.j.j.j.h.h.g.g.g.h.g.",
"d.g.g.h.g.j.j.g.5.>.g.z.g.6.6.4.6.6.,.4.6.4.,.4.5.6.<.,.5.5.,.5.<.5.4.<.a.>.4.*.<.a.j.s.a.h.g.g.a.a.h.s.g.6.c = r ;X:X:X#XI * * J J ( ( ( L q ; +.5.6.5.,.4.6.,.6.,.4.,.4.6.4.>.>.>.6.k.z.7.7.8.g.g.g.g.",
"j.j.l.h.k.j.k.a.>.5.m.g.6.8.6.6.4.,.6.,.6.6.6.4.,.a.a.4.a.6.<.6.5.,.6.6.5.5.>.-.*.>.l.l.j.j.z.z.j.k.j.z.h.y } ;X;X;X:X:X;X;X$XT.    ( ( ( ( ( Z O 6.6.8.6.6.6.4.6.6.4.6.6.6.6.6.4.*.>.k.h.h.z.z.z.j.h.j.",
"z.z.z.z.j.l.,.*.5.m.8.7.8.7.6.8.6.s.6.a.6.a.6.a.a.6.6.a.a.a.6.a.a.a.6.a.a.a.a.6.>.>.>.l.z.j.z.z.j.c.z.j., T.:X:X;X;X:X:X:X:X:X*X/.  ( ( ( ( q       6.6.6.a.s.6.a.a.6.g.6.8.6.8.5.5.>.*.8.x.j.v.j.j.z.z.",
"j.j.j.z.z.4.-.a.v.8.7.7.6.6.6.6.6.6.a.6.6.6.6.6.6.6.6.6.6.6.6.6.6.6.a.6.6.a.a.a.a.4.*.>.h.j.j.l.j.j.j.1.'.%X:X;X;X;X:X:X:X:X:X*X/.  X X X X Z } } } # # o.6.6.6.6.6.6.a.6.6.6.6.6.6.5.*.>.8.j.k.j.z.j.j.",
"z.j.z.l.>.*.s.z.8.8.8.6.5.8.5.8.6.6.6.6.6.6.6.6.6.<.6.6.a.<.6.6.6.a.<.6.a.<.5.6.a.5.>.*.>.g.z.j.j.j.j.q '.;XW.K K K K %X:X:X:X;XOX| T.T.T.T.W.)./.I.K K 7 8 U 6.6.6.6.6.6.6.6.6.6.6.6.4.=.4.5.k.j.z.j.j.",
"j.j.g.>.*.a.j.s.5.8.6.6.6.8.5.5.6.6.6.6.6.6.6.6.6.6.5.6.5.6.6.6.5.6.<.a.<.a.a.6.>.a.a.4.=.4.^ x x c x . (.W._ Q Q Q Q { OX:X:X:X;X$X:X:X;X;X*X#X+X'.^./.{ ) H n 6.6.6.6.6.6.6.6.6.6.6.6.5.=.4.8.j.j.j.z.",
"j.k.a.*.>.z.a.a.4.5.5.5.6.5.5.8.6.6.6.6.6.6.6.6.6.6.6.5.<.6.6.6.5.6.5.6.a.5.a.5.<.a.a.>.>.M p q r A A o I.K.0.}.}.}.].F { OX:X:X:X:X:X;X;X;X;X;X;X:X#X#X+X#XY.k M <.6.6.6.6.6.6.6.6.6.6.,.>.>.=.g.j.j.g.",
"h.a.*.>.m.a.<.<.8.4.8.8.5.8.8.5.<.6.6.<.,.6.<.,.6.6.<.6.<.a.5.6.<.6.<.6.5.>.<.a.>.>.a.>.^ ; e ` Y.`.`.% J {.&X&X&X X}.].9 T.:X:X:X:X:X*X#X+X+X+X%X:X:X:X:X:X%X/.A E 6.,.6.6.<.6.,.6.,.6.5.4.>.*.*.g.j.<.",
"*.*.>.n.,.>.5.,.>.>.,.,.5.,.,.8.,.>.>.>.>.>.>.,.>.>.>.>.,.,.,.4.,.>.>.>.,.>.4.6.,.>.>.>.:     6 I.I.I.% L {.&X&X&X&X&X}.9 T.;X;X:X:X:XoXE.I.I.E.oX:X:X:X:X:X:X:XOX  >.>.,.,.>.,.,.,.5.>.=.,.>.4.&.*.*.*.",
"+.*.-.j.=.>.>.>.=.>.>.>.=.=.,.=.>.>.,.>.>.,.-.=.>.,.4.>.>.>.>.>.>.-.>.>.>.=.>.>.-.>.,.,.>.>.=.n o I.I.( & 0.&X&X&X&X X[.9 T.;X;X:X:XoXY.I.I.I.I.Y.oX:X:X:X:X:X:X-XoX[ >.>.-.-.>.>.,.,.,.,.>.>.>.*.+.*.*.",
"6.>.=.5.,.>.>.>.,.,.>.>.,.,.,.,.,.,.6.,.,.5.,.>.,.,.,.,.>.,.>.>.>.,.,.,.,.>.>.>.>.,.,.3.>.=.=.>.@.o XXI.| r 9. X&X X&X>X#X%X;X;X:X:X] ) ( | I.I.I.Y.:X:X:X:X:X:X:X-XX O.,.,.,.>.,.,.,.,.5.,.,.*.+.d.a.-.",
"l.6.=.*.,.,.,.,.,.,.5.,.,.,.,.,.,.6.,.,.,.<.5.<.6.,.6.,.,.,.<.,.,.,.4.,.,.,.,.,.,.8.4.4.>.*.=.6.h.@.q 5 T.L.L.9.s w U.%X:X:X;X;X:X-X( _._.L._ _ _ _ :X:X:X:X:X:X:X:X(.p.;.,.,.,.,.,.,.,.,.,.=.*.,.z.k.a.",
"h.h.8.=.=.>.4.8.,.,.,.,.6.,.,.,.6.,.,.,.,.,.,.,.,.,.,.,.<.<.,.<.<.<.<.<.,.,.<.,.,.,.6.>.*.n a x a z     T.XX).E.) } /.*X:X:X:X:X:X:Xq @X=XXX[ S R.q ;X;X:X:X:X:X:X:X;XS o.,.6.,.4.8.>.,.4.*.=.>.n.j.h.h.",
"g.h.h.d.+.*.=.,.,.,.,.,.,.,.,.,.,.,.,.,.,.,.,.,.,.,.,.,.,.,.<.,.>.,.>.>.,.,.,.,.5.,.>.+.n F s G s   r q /.*X#XoX#X:X:X:X:X:X:X:X:X:XA Y.=X>X^.L R.I :X;X:X:X:X:X:X:X;X= T ,.,.,.,.,.,.,.=.+.3.v.h.f.g.f.",
"d.d.d.d.6.=.*.=.,.,.,.,.,.,.,.,.,.,.;.,.,.;.,.,.,.,.,.;.,.>.,.,.,.>.,.;.,.,.,.,.5.>.*.*.i ! ]..X[.  I.T.#X:X%X#X:X:X:X:X:X:X:X:X:X:XOXZ R._._.R.K :X:X:X:X:X:X:X:X*X(.o T ;.>.,.,.,.,.=.+.8.j.h.f.g.f.f.",
"g.d.h.d.8.4.*.*.=.4.,.,.,.>.>.>.>.>.>.>.,.,.>.;.>.>.>.>.>.;.>.>.,.>.>.,.-.;.,.,.=.*.*.8.h.y Q ].!.  I.'.*X:X:X:X:X:X:X:X:X:X:X:X:X:X:XoXq     r :X:X:X:X:X:X:X:X-XXX    T >.>.>.,.>.*.*.8.7.h.h.g.g.g.d.",
"h.8.8.8.8.h.4.=.*.=.>.>.>.>.>.;.>.:.>.>.-.,.,.>.>.>.>.,.>.:.>.>.>.,.>.-.,.,.;.=.*.*.3.j.8.h.a   % I.oX-X:X:X:X:X:X:X:X:X:X:X{ * [ [ [ P.+X;X:X:X:X:X:X:X:X:X:X:X:X:XXX* T >.>.;.=.=.*.<.h.h.g.8.6.f.d.d.",
"8.7.8.8.8.8.8.,.*.O.=.>.>.>.>.,.-.>.-.>.>.>.-.>.>.-.;.>.-.>.>.>.>.>.,.;.-.>.>.+.*.<.h.8.8.8.>.U % I.Y.XX-X:X:X:X:X:X:X:X:X:X%XOX$X$X$X%X-X;X:X:X:X:X:X:X:X:X:X:X:X:X* N *.>.>.>.=.+.=.: O O p ' d.d.d.d.",
"8.8.8.8.8.8.8.8.,.O.O.=.-.-.*.*.=.=.=.-.=.=.=.>.-.*.;.*.&.-.>.-.-.-.>.-.*.-.O.O.8.h.8.8.8.8.8.W o I.I.E.XX%X:X:X:X:X:X:X:X:X;X;X-X+XY.Y.'.%X:X:X:X:X:X:X:X:X:X:X;XOX  X.-.=.-.T - - , V y.i.y.r.' ' d.8.",
"<.8.,.,.8.8.3.<.,.>.O.O.+.&.*.-.=.=.=.=.$.=.=.=.*.*.*.*.+.*.*.-.&.*.*.*.*.*.O.d.8.8.8.<.8.3.8.T o I.I.).OX-X:X:X:X:X:X:X:X:X;XOX| R././.OX*X:X:X:X:X:X:X:X:X:X:X$X) i O.=.=.M t B C C A.e.C w.r./ / ,.;.",
"8.<.<.<.<.:.<.6.6.8.>.+.O.*.*.-.=.-.=.-.=.=.=.=.&.+.*.-.*.=.*.=.*.=.=.=.O.+.8.d.6.3.3.<.;.;.-.T % I.W.%X;X:X:X:X:X:X:X:X:X:X+X/.I E.:X:X:X:X:X:X:X:X:X:X:X:X*XXXU.7 =.=.=.n f B S.F.e.e.v 8 D ' ;.<.<.<.",
"8.8.8.8.6.8.<.8.8.8.8.-.+...*.-.=.>.-.>.>.=.=.=.*.-.-.-.>.*.=.*.*.>.=.+.O.,.h.6.<.<.8.8.<.:.a.T o I.`.$X-X:X:X:X:X:X:X:X:X:X'.~.:X:X:X:X:X:X:X:X:X:X:X:X:X%X).} 1 =.=.=.*.< h A.H.q.; : b R E ^ 2.3.8.8.",
"8.8.8.8.8.8.8.8.8.8.8.8.&.O.O.$.=.-.-.-.-.-.-.-.-.=.-.-.-.-.&.-.=.=.O.O.-.h.8.8.a.3.8.6.d.6.a.T % I.I.`.%X-X:X:X:X:X:X:X:X:X:X:X:X:X:X:X-X:X:X:X:X:X-X-XOXE.Z , -.=.=.*.O.1 h A.D.  $.$.t $ $ 4 1.3.3.8.",
"8.<.8.8.3.3.3.8.3.3.3.8.a.;.O.X.=.=.-.-.-.-.=.-.-.-.-.-.-.-.-.-.-.O.X.;.h.d.3.8.<.f.<.f.3.3.f.T % I.I.I.`.%X:X:X:X:X:X:X:X:X:X:X:X:X:X:X+X%X:X:X:X:XoXXXq   i -.-.-.O.O.+.0 h A.D.      q.F.J.G.y.( P 2.",
"8.3.3.3.3.3.3.3.;.a.f.f.&.a.;.^ X.+.=.-.$.-.-.=.&.&.=.&.-.=.-.-.O.X.,.d.:.a.:.f.;.a.:.a.;.a.;.a.^ % I.+X*X;X:X:X:X:X:X:X:X:X$X#X:X:X:X:X+XoXoXoX).= * * X z +.-.-.X.O O X . V H.J.D.D.D.F.B > 4 / 2.:.2.",
"3.3.3.3.,.8.3.3.a.;.;.a.%.a.a.o.O.O.+.=.-.$.-.&.-.-.&.-.-.&.&.X.X.,.3.3.f.;.a.:.a.;.f.:.f.;.f.;.#.  I.oX-X:X:X:X:X:X:X:X:X:XXX~.+X:X:X:X*X| q q q T.T.T.5 # - - - - q.q.q.2 C J.G.2 2 d 2 l T ^ ;.:.a.:.",
"2.3.3.8.<.8.3.3.f.a.a.a.a.a.a.a.=.X.X.*.&.-.+.&.=.=.=.=.=.+.O.X.&.d.d.3.a.a.:.a.:.a.;.a.;.a.a.a.#.  q T.oX%X;X;X:X:X:X:X:X;XOXY.I ;X:X;X;XK , 0 X A S A * d V V V V d d d + C J.D.  b b b j 8 0 y f.:.a.",
"3.,.,.2.2.<.;.;.&.a.%.a.a.%.%.a.2.=...X.+.&.+.&.$.$.$.$.+.O...+.d.f.:.:.;.;.a.:.f.;.:.:.a.a.&./ U G G P E.#X;X;X:X:X:X:X%X%X/.) = %X:X;X;XT.H u . d d d d h V V V V 8 8 8 o V F.F.d b c c f g h g 1.b -.",
":.;.;.-.<.:.:.-.&.a.&.a.a.&.a.a.;.a.-.E ..O.+.&.+.+.$.$.X...$.8.:.:.;.a.;.:.;.a.;.:.a.;.;.:.;.T =  X X& S /.OX#X*X*X%X'.W.T.A   * T.;X;X;X;X} . d q.q.q.q.3 - - ; - :.:.a.i g t.F.i.2 2 2 e.Z.i.y.~ , &.",
">.&.&.&.-.-.-.=.&.&.&.&.o.$.o.&.&.;.;.$.^ ..X...X.X.X...^ -.d.;.;.-.-.-.&.&.-.<.:.-.;.-.a.-.a.T & !.!.6 O J } L.(.(./.*   . + + + + OX;X;X-XK.> q.X O O O l X.f.:.>.&.-.&.&.j > t.t.D.D.D.D.V o - :.&.&.",
"-.-.-.-.>.;.;.;./ &.&.&.a.$.&.;.&.-.-.;.=.....X.+.+...^ -.3.3.>.-.-.;.;.-.:.;.;.-.&.&.&.&.&.&.N       @.-.8               V i.i.i.u.  OX;X|..X!.@ +.+.X.E O.3.3.:.-.;.-.:.-.:.^             i &.&.&.-.;.",
";.:.;.;.;.;.,.;.a.&.;.a.&.;.$.a.;.;.>.:.:.+.........^ -.3.:.:.:.;.-.;.;.;.:.:.;.:.;.;.-.&.&.;.&.X.@.#.:.;.$.#.b $ t.t.t.t.d + + + + o.7 Q..X&X!.. ....^ +.:.3.,.,.:.-.:.:.-.-.:.#.#.o.X.o...$.-.-.&.;.;.",
":.:.:.:.:.;.;.:.;.:.;.;.:.:.:.:.:.;.;.:.;.2.+...E  .O.8.<.:.:.:.;.:.:.:.;.;.:.:.:.2.:.:.2.;.;.;.:.:.:.;.2.:.:./ A > > > > j T T T U f.T e w w p M E  .O.:.8.:.;.:.:.:.2.2.;.;.:.;.;.:.:.:.:.2.:.;.;.:.:.",
":.;.:.:.;.:.:.:.:.;.%.:.;.:.:.:.2.;.:.;.;.:.:.X.E X.f.2.:.:.;.;.;.;.;.2.;.;.;.:.:.;.;.;.;.2.;.;.:.;.;.;.;.;.;.;./ c b c c o.;.;.;.:.%.;.T c c m &.E  .2.2.,.:.:.;.;.:.;.:.:.;.;.2.:.;.;.:.;.;.;.;.;.;.;."
};
