/* XPM */
static char *result[] = {
/* columns rows colors chars-per-pixel */
"50 100 182 2 ",
"   c #000000",
".  c #04090A",
"X  c #0D0C0C",
"o  c #0B0F14",
"O  c #001717",
"+  c #0E1218",
"@  c #131312",
"#  c #12171D",
"$  c #1D161D",
"%  c #1C1B1B",
"&  c #171E25",
"*  c #1A1E23",
"=  c #161E28",
"-  c #201920",
";  c #052C2E",
":  c #1C242E",
">  c #1D2631",
",  c #003F3F",
"<  c #242423",
"1  c #21262C",
"2  c #2C2C2A",
"3  c #31312E",
"4  c #262D35",
"5  c #232E3B",
"6  c #29323C",
"7  c #343432",
"8  c #383738",
"9  c #3E3D3A",
"0  c #253544",
"q  c #2A3644",
"w  c #2D3B4C",
"e  c #2D3C51",
"r  c #303E50",
"t  c #0E464A",
"y  c #1E4B57",
"u  c #0D5456",
"i  c #005C5C",
"p  c #3B4247",
"a  c #324154",
"s  c #33465B",
"d  c #37475A",
"f  c #39495D",
"g  c #3B4D64",
"h  c #3F5269",
"j  c #006262",
"k  c #007373",
"l  c #007C7C",
"z  c #366868",
"x  c #454645",
"c  c #484846",
"v  c #4C4C4A",
"b  c #53534E",
"n  c #474E56",
"m  c #545453",
"M  c #5C5C56",
"N  c #57595A",
"B  c #62625E",
"V  c #42546C",
"C  c #535B66",
"Z  c #455A73",
"A  c #485D74",
"S  c #435E7D",
"D  c #4A5E7B",
"F  c #684C68",
"G  c #715B77",
"H  c #5F6469",
"J  c #4C627D",
"K  c #586677",
"L  c #636362",
"P  c #6B6B65",
"I  c #64686B",
"U  c #6B6C6A",
"Y  c #74746F",
"T  c #646E7A",
"R  c #6D7176",
"E  c #6A717B",
"W  c #717270",
"Q  c #7E7E76",
"!  c #83837E",
"~  c #456283",
"^  c #4A6685",
"/  c #476388",
"(  c #4A668B",
")  c #4E6A8C",
"_  c #536A86",
"`  c #516E8D",
"'  c #59728D",
"]  c #4E6C92",
"[  c #516E92",
"{  c #547194",
"}  c #5B7695",
"|  c #5D7995",
" . c #56749A",
".. c #59769C",
"X. c #5C7A9C",
"o. c #687584",
"O. c #687687",
"+. c #64768B",
"@. c #707B8A",
"#. c #617690",
"$. c #647A94",
"%. c #6B7D93",
"&. c #607D9E",
"*. c #5677A0",
"=. c #5779A2",
"-. c #5C7CA2",
";. c #5E7FA8",
":. c #617EA2",
">. c #8B718F",
",. c #987699",
"<. c #009B9B",
"1. c #1B9898",
"2. c #348C8D",
"3. c #00A0A0",
"4. c #07BBBB",
"5. c #48858E",
"6. c #6B819C",
"7. c #5F80A9",
"8. c #6481A6",
"9. c #6C85A4",
"0. c #6383AB",
"q. c #6985AB",
"w. c #6788AD",
"e. c #6988AF",
"r. c #718AAA",
"t. c #6587B0",
"y. c #6788B1",
"u. c #6C8CB4",
"i. c #6E8FB8",
"p. c #708FB5",
"a. c #6F90B9",
"s. c #7090B7",
"d. c #7293BB",
"f. c #7697C1",
"g. c #7798C3",
"h. c #7A9BC4",
"j. c #00C7C7",
"k. c #00C8C8",
"l. c #00D0D0",
"z. c #00D8D8",
"x. c #00E7E7",
"c. c #00F7F7",
"v. c #00F8F8",
"b. c #8D8D85",
"n. c #909088",
"m. c #98988F",
"M. c #9B9B92",
"N. c #A2A29B",
"B. c #ABAB9F",
"V. c #A782A6",
"C. c #B688B6",
"Z. c #BA90BA",
"A. c #ABABA2",
"S. c #AEAEA9",
"D. c #B6B6AC",
"F. c #BABAAE",
"G. c #B7B7B1",
"H. c #BBBBB3",
"J. c #C096BE",
"K. c #C1C1B7",
"L. c #C4C4BA",
"P. c #C9C9BC",
"I. c #C999C9",
"U. c #D3A1D3",
"Y. c #DBA7DB",
"T. c #D9A8D9",
"R. c #E4ACE4",
"E. c #EBB5EB",
"W. c #F7BFF7",
"Q. c #CECEC4",
"!. c #D1D1C7",
"~. c #D2D2CA",
"^. c #D9D9CB",
"/. c #DCDCD1",
"(. c #E7D6DD",
"). c #E2E2D6",
"_. c #E4E4D8",
"`. c #EAEADD",
"'. c #F5CDF0",
"]. c #EEEEE0",
"[. c #F5F5E6",
"{. c #F8F8E8",
/* pixels */
"d.f.d.f.f.f.f.f.f.g.g.g.f.f.f.f.f.g.f.f.g.f.f.t.7.y.f.f.a.f.u.u.+.%.g.g.g.%.T g.h.h.r.I d.f.d.d.f.f.",
"g.g.f.f.g.g.f.f.f.g.f.f.f.f.f.f.f.f.f.f.f.f.f.=.=.t.f.f.f.g.g.g.o.o.f.f.f.%.I g.h.d.r.B g.g.g.g.g.g.",
"f.f.f.f.f.f.f.f.g.f.f.f.f.f.f.f.f.f.f.f.f.f.=.=.=.=.;.f.g.f.g.%.5.5.$.g.%.5.2.%.d.r.| 2.%.p.f.g.f.f.",
"d.f.f.f.a.f.f.f.f.f.f.f.f.f.f.f.f.f.f.f.a.;.=.f.y.;.=.=.i.i.f.c 1.1.n f.C 2.4.N e.K z j.c #.d.g.f.f.",
"u.u.u.i.i.a.a.i.u.i.a.d.a.f.d.a.a.a.a.u.7.-.a.d.y.t.;.=.7.i.i.  <.<.+ i.1 l z.  :.q , c.  Z i.u.i.u.",
"y.y.u.y.u.u.i.i.t.y.u.i.a.a.a.a.i.a.y.;.=.y.g.t.t.t.7.=.=.7.u.  <.<.+ i.> l z.  :.q , c.  Z y.u.u.y.",
"a.d.a.i.i.y.f.a.i.i.u.i.i.i.a.f.a.a.;.=.t.h.t.t.t.t.7.t.=.*.t.  <.<.+ i.> l z.  8.q , c.  A s.s.d.f.",
"f.f.d.a.a.f.a.a.a.f.f.d.a.a.f.d.a.=. .u.h.t.7.t.7.t.t.7.7.=.*.  <.<.+ d.> l z.  8.q , c.  D s.d.d.d.",
"d.d.d.d.d.d.d.d.a.d.d.d.d.d.d.a.=. .i.a.t.7.t.7.0.t.7.t.0.0.*.  <.<.+ d.: l z.  8.w , c.  A s.d.s.d.",
"p.d.d.d.s.d.d.d.d.d.d.a.d.a.u.7. .u.a.t.t.7.7.t.0.7.t.0.7.0.;.  <.3.; 8.> l z.  _ 0 t c.  A d.d.d.s.",
"d.p.s.s.s.d.s.s.s.s.s.d.a.y.7. .t.a.t.0.7.t.7.7.7.7.0.7.0.0.0.  <.x.3.    l z.    k k.c.  Z s.s.s.s.",
"d.p.s.s.s.s.s.s.a.s.d.a.i.7.=.7.f.t.0.7.7.7.7.7.7.7.0.7.7.7.0.  k l.v.v.v.v.v.v.v.c.x.4.  A s.s.s.s.",
"p.p.p.p.s.s.s.s.s.s.s.i.=. .7.h.0.7.7.7.7.7.0.0.t.7.7.0.0.0.:.~ y j k.k.x.v.v.v.l.k.3.; ` w.s.s.s.s.",
"p.p.p.p.s.s.s.u.s.s.6.+.' w.f.0.7.;.7.8.) a a a a a a =.0.0.0.;.Z y i i k l l l j i u d s.s.u.p.s.s.",
"p.s.s.s.p.u.u.i.u.u.o.T @.9.8.7.0.8.) J a 7 9 2 3 9 7 ^ D ^ ;.;.-.V $ = . O ;   & : r s.u.u.u.u.i.i.",
"w.w.w.w.e.e.e.e.e.-.{ w.q.R | } [ [ 2 % B ^.{.F.P.[.~.8 % 1 ) ) [ +.E ..: i 3.  } y.y.e.w.w.w.w.0.q.",
"8.7.0.w.8.w.w.0.-.{ ;.d.0.-.W 8     ^.{.{.{.{.{.{.{.{.{.{.F.    x o.=.X.= i 3.  ] w.w.8.8.8.0.8.0.0.",
"w.w.e.w.w.e.u.$.R R R O.;.-.: B K.^.n.H.).{.{.{.{.{.{.^.S.N.^.D.x q -.:.: i 3.  H 6.w.w.t.u.u.e.w.0.",
"e.u.u.u.u.i...] +.9.%.O.T 0 n.K.!.N.S.~.].{.{.{.{.{.{.`.Q.N.N.`.D.U q o.* i 3.  J ` 0.u.u.u.u.u.u.u.",
"e.u.e.p.u...{ 7.u.0.$.K v M `.{.~.W !.].{.{.{.].].{.{.{.`.K.R {.{.F.b x @ i 3.  ) { [ 7.u.e.e.e.e.e.",
"e.e.u.w. .] 7.e.&.D N 9 b {.{.{.!.m ~.{.{.].H.N.A.F.].{.].Q.m {.{.{.^.7 @ i 3.  ` ..]  .-.y.y.u.e.e.",
"u.u.7...] 7.w.6.W     v ~.{.{.{.F.  D.`._.!.      $ !.[._.M.  {.{.{.[.Q.7 i 3.  ) -.*.{  .;.e.e.e.e.",
"e.w.7.] ..i.0     !.7 M {.{.{.{.{.{.%       !.].).F.      9 {.{.{.{.{.{.9 i 3.    g -...{ ] 0.0.e.w.",
"e...]  .d.5 Y F.F.7 m.^.{.{.{.{.{.{.F.F.F.F.].{.[.).F.F.H.P.{.{.{.{.{.{.9 i 3.  M.H 0 *. .] ] 0.e.:.",
"] ] ..X.r W P.{.{.  F.{.{.{.{.{.{.{.{.{.{.{.{.{.{.{.{.{.{.{.{.{.{.{.{.{.9 i <.  ^.B.U w  ...] ] [ ] ",
"] ]  ._   ^.{.^.M.v P.{.{.{.{.{.{.{.{.{.{.{.{.{.{.{.{.{.{.{.{.{.{.{.{.[.9 i 3.  ^.{.F.   . .] ] ] ) ",
"-. .( J % ^.{.F.  !.].{.{.[.^.^.).`.{.{.{.{.{.{.{.{.{.{.{.{.{.{.{.{.{.{.9 i 3.  ^.{.P.% ^ ( ] 8.;. .",
"y.-.w 9 {.{.{.F.  !.].{.[.!.$   < n.`.{.{.{.{.{.{.{.{.{.{.{.{.{.{.{.{.{.9 i 3.  ^.{.{.{.  a ..u.e.-.",
"q.q.a 9 {.{.).N.  [.[.`.H.% Z.Y.,.@ b.^.[.{.{.{.{.{.{.{.{.{.{.{.{.{.{.{.9 . 5 T.8 B.{.{.  g p.q.q.q.",
"0.q.a 9 {.).! P ! {.{.D.v m.U.E.E.,.9 A.{.{.{.{.{.{.{.{.{.{.{.{.{.{.{.{.9   - '.- M.{.{.  Z 9.q.9.0.",
":.0.a 9 {.^.v 9 ).{.{.M.% {.(.(.'.'.- M.{.{.{.{.{.{.{.{.{.{.{.{.{.{.{.{.9   * R.$ M.{.{.  V 0.8.9.8.",
"q.8.a 9 ].~.v 9 {.{.P.Q B {.{.{.`.Z.9 G.{.{.{.{.{.{.{.{.{.{.{.{.{.{.{.{.9 O 0 ,.8 M.P.].  g 8.8.8.8.",
"q.:.r 7 !.~.v 9 {.{.9 M {.{.{.{.F.  ^.{.{.{.{.{.{.{.{.{.{.{.{.{.{.{.{.[.9 i 3.  ^.M 8 Q.  h :.8.:.9.",
":.q.:.D       9 {.{.A.D.{.{.{.).K.n.`.{.{.{.{.{.{.{.{.{.{.{.{.{.{.{.{.{.9 i 3.  ^.M     :.8.:.9.0.:.",
":.:.:...D D 1 9 {.{.).`.{.{.{.[.`./.{.{.{.{.{.{.{.{.{.{.{.{.{.{.{.{.{.{.9 i 3.  ^.M # D :.:.:.:.:.:.",
" ...{ }  .-.5 9 {.{.{.{.{.{.{.{.{.{.{.{.{.{.{.{.{.{.{.{.{.{.{.{.{.{.{.{.9 i 3.  v n V ....X... . . .",
":.:.&.&.X.X.5 9 {.{.{.{.{.{.{.{.{.{.{.{.{.{.{.{.{.{.{.{.{.{.{.{.{.{.{.{.9 i 3.    g :.X.....| X.:.X.",
":.:.:.:.:.:.5 9 {.{.{.{.{.{.{.{.{.{.{.{.{.{.{.{.{.{.{.{.{.{.{.{.{.{.{.{.9 i 3.    g :.:.X.X.-.X.:.:.",
":.:.:.:.8.&.5 9 {.{.{.{.{.{.{.{.{.{.{.{.{.{.{.{.{.{.{.{.{.{.{.{.{.{.{.{.9 i 3.    g :.:.:.:.8.8.:.:.",
"&.&.&.&.&.:.5 7 !.{.{.{.{.{.{.{.{.{.{.{.{.{.{.{.{.{.{.{.{.{.{.{.{.{.{.{.9 i 3.    g &.&.&.:.| 8.:.&.",
"&.&.&.&.&.5 . X 7 {.{.{.{.{.{.{.{.{.{.{.{.{.{.{.{.{.{.{.{.{.{.{.{.{.{.{.9 i 3.    # q X.$.8.X.X.&.&.",
"&...&.` r x 8 <   ).[.{.{.{.{.{.{.{.{.{.{.{.{.{.{.{.{.{.{.{.{.{.{.{.{.{.9 i 3.  9 9 7 a X.8.X.8.&.&.",
"&.X.X.Z   Y U c   K.).].{.{.{.{.{.{.{.{.{.{.{.{.{.{.{.{.{.{.{.{.{.{.{.{.9 i 3.  W U c   X.X.X.X.X.X.",
"..$.' A @ m L m X Q H./.{.[.{.{.{.{.[.{.{.{.{.[.[.{.{.{.[.[.{.{.{.[.[.[.9 i 3.  N L m @ _ } X.X.$.X.",
"| | w < n.L ! ! H   P D.[.Q.[.{.{.{.~.`.{.{.{.^._.{.{.{.)./.{.{.{.`.~.{.9 i 3.  Q Y U n.  g | X.....",
"{ ) 0 % L $ x v X   v n.Q.m.Q.`.].~.N.K./.{.~.A.D./.{./.F.A.~.{.).H.N.~.8 i 3.  N 2 < L   f | | ` ` ",
"} w p x < f 8 6 f s 1 m N.n.N.L.!.A.n.N.H.).A.m.M.S.).S.M.n.B./.H.N.n.B.2 i <.  % q q < M w a ` } | ",
"} = 2 m 5 ' g w } } a p B n.n.N.S.b.n.b.N.G.n.b.n.m.G.n.n.n.n.F.N.b.! M % i 3.  1 Z _ 5 M < 4 } } } ",
"| 5 : 6 } } } } } } } h 4 P ! n.n.n.n.b.n.n.n.n.n.n.n.n.n.n.n.b.n.! N & # u k # ' | | | & & a } } } ",
"} } } } } } } } } } } } _   ! n.n.n.n.n.n.n.n.n.b.n.n.n.n.n.n.n.n.M o } L 3 X L ' } } | } } } } } } ",
"a.f.a.d.f.f.f.f.g.g.g.g.g.d.+ 3 P n.n.n.n.b.n.n.n.b.n.n.n.n.n.B < w g.g.g.f.f.g.f.g.g.d.d.f.d.f.f.d.",
"g.g.g.g.f.g.g.f.f.f.g.f.g.g.' a % < V.Z.>.< < < < < < V.J.,.< # d q.f.f.g.f.f.f.g.f.g.g.g.g.g.g.g.f.",
"f.f.f.f.f.f.f.f.f.f.f.f.g.g.f.} w   I.R.C.F . > & X F U.R.V.  g &.g.g.f.f.g.f.g.g.g.g.g.g.g.f.g.f.f.",
"f.f.f.f.a.f.f.f.f.f.f.f.d.f.f.d.0.w ,.T.E.Y.  } d $ Y.W.I.,.q d.s.g.g.d.i.f.f.f.f.d.f.d.g.d.g.d.f.f.",
"u.i.u.a.a.a.a.u.u.u.i.f.d.f.d.s.a.a.> ,.Y.Y.# [ g 4 Y.Y.G 5 i.i.i.a.s.s.u.i.i.i.i.i.i.s.a.a.s.u.i.u.",
"y.u.y.y.u.u.a.i.t.y.u.i.d.d.d.s.u.i.t.0     g.t.0...    e 0.u.i.i.a.s.i.u.i.d.i.i.u.y.u.s.s.y.e.y.u.",
"d.d.d.u.u.u.d.s.i.i.u.i.i.u.a.a.u.u.=.=.t.h.t.0.t.t.0.0.*.*.0.f.d.f.a.i.i.a.f.d.d.d.u.s.d.d.s.s.a.f.",
"d.d.d.d.d.d.d.d.f.d.f.d.a.f.d.f.f.*.*.y.h.t.t.0.7.7.t.t.;.*.*.0.d.d.f.d.d.d.f.d.d.d.d.d.g.d.d.d.d.d.",
"d.d.d.d.d.d.d.d.s.d.d.d.f.a.d.a.=. .a.a.t.7.t.0.t.0.0.t.0.;.=.*.;.f.a.i.d.d.d.d.d.s.d.d.d.d.d.d.d.d.",
"d.d.s.d.d.d.d.s.s.d.d.s.a.a.i.-. .i.a.t.t.7.7.0.t.0.7.t.7.0.;.=.*.:.a.f.d.d.d.d.d.d.d.d.d.d.d.d.d.s.",
"p.p.d.p.d.s.s.d.d.s.a.a.a.y.7. .y.i.t.t.0.0.0.7.;.0.7.t.t.0.0.;.=.*.:.u.i.f.i.a.s.s.s.s.s.s.s.s.s.s.",
"p.d.d.p.s.d.s.s.s.s.a.a.i.7.=.7.f.t.7.7.7.7.7.7.;.7.;.;.;.;.;.t.;.*.*.t.i.i.a.a.s.s.s.s.s.s.s.s.s.s.",
"s.s.s.s.d.u.s.u.s.s.a.a.=. .t.g.0.7.7.0.t.7.0.0.7.0.0.7.0.0.;.t.;.;. .*.y.a.a.s.s.a.s.s.s.s.s.s.s.s.",
"p.s.s.s.u.s.s.s.s.s.i.=. .0.f.7.7.7.7.7.7.7.7.0.7.7.7.0.0.0.:.;.0.:.:.*.*.:.s.s.s.s.a.s.s.s.p.s.s.s.",
"p.p.u.p.p.u.p.p.i.u.*. .e.i.0.8.0.8.8.7.7.7.7.7.7...-.8.:.;.;.-.-.=.X..... .-.u.a.u.u.i.u.u.u.u.u.u.",
"w.w.w.w.w.e.e.e.0.-. .0.q.0.=.-.;.=.X.;.7.7...7.7...*.;.-.*.*.X.=.X.=... . . .;.t.u.y.w.w.w.w.w.w.w.",
"7.7.0.0.8.w.e.w.=. .:.a.0.X.*...-.-...=...=....... . .5.*...=.X.=.=.X.=.*. . . .7.0.w.0.8.0.7.7.7.8.",
"w.w.u.w.w.u.e.=. .=.g.:.;.-.-.=...=.*...=.7... .7.7.7. .7...;.=...=.-.-.*.*. .] { w.w.0.w.u.u.w.w.w.",
"u.u.u.u.u.u...] ;.f.;.;.;.:.:.=.-.7.7.7.X.7.X.7.7.X.7.-.;.7.7.X.-.:.;.;.-.:.:.-.] ] 7.i.u.u.u.u.u.u.",
"w.w.u.u.u. .{ 7.i.:.-.-.;.:.=.:.-.-.X.7.-.-.7.7.X.7.X.7.-.-.X.7.-.-.;.-.-.-.-.-.*. .] 7.u.e.e.u.e.e.",
"u.w.u.w...] 7.w.:.:.-.-.=.=.:.:.-.-.7.-.-.7.X.X.=.7.-.-.-.-.-.-.-.-.-.-.-.-.-.-.-...{ *.7.w.e.e.e.e.",
"u.w.7.7.] 7.e.7.-.-.=.:.=.:.=.-.-.-.X.-.X.=.=.7.7...-.-.X.-.-.-.-.-.-.-.-.-.-.-.-.-...] { 7.e.e.u.e.",
"w.0.7.) ..u.:.=.:.:.=.:.X.:.-.-.=.-.-.=.-.-.-.-...7.-.=.X.-.-.-.:.-.-.-.-.*.-.-.-.-.-. . .] q.y.w.w.",
"w.7.] { a.:.=.:.*.*.=.*...=.-.=.-.-.X.=.X.=.X.=.X...-.=.-.-.-...*.=.*.:.:.*.*.:...-.*.*. .] ] :.e.X.",
"] ] ..s.*. ..... . .:. . ...X..... . . . . . . . . . . ........... . ... ...-.*. . . . . .*.] ] { ] ",
"] )  .w. .{  . . . . .[  . . . .{ ..X. . . .{ {  ..... . . . . .{ {  . . .[  .{  . . . . . .] ] ] ( ",
"-. .[ =.*. ..... . ...............X.*.X...=.......X........... ... ......... ... ....... .] ] :.7. .",
"y.-.[ ] ..*...................=...*.*.X.X.=.X.=.*.*...........*.....*...........-.-.*...[ ]  .p.e.-.",
"q.q.:.[ ] ....=.....X.....=.....*...X.......X...X.....-...| *.-.&...*.......*.:.....:.[ [ ..s.q.q.q.",
"0.q.q.:.] ( [ ....=.=...........X.....X.............................................] (  .p.q.q.8.q.",
";.r.:.;.:.] (  ....... ....... .......} .. ..... ...X. ... ... . ... . . ... . . .[ ( :.f.;.;.q.8.0.",
";.;.r.r.:.:.[ ] [ .. . .}  . .}  . . . .#. . ...}  . ...}  .}  . .} ..} }  .....] ) :.t.V.;.t.:.8.8.",
":.r.:.:.:.;...[ (  . . . .} .. . ...}  . . . . . . . . . . . .......{  . . . .' ) ..:.;.:.:.:.:.8.8.",
":.:.;.:.:.:.:. .] ( [  .{  . .{ { {  .{ { {  . .{  .} [ { {  .} {  . . .{ { [ ( [ u.r.:.:.:.:.:.8.8.",
":.:.:.:.:.:.:.:...( ( [  .{ ] [ [ ] { [ [ [ [ ..[ [ [ [ [ [ [  . .{ { [ [ [ ( ` p.:.:.:.:.:.:.:.:.:.",
":.......[ &.:.:.X.{ ( ( ( ) [ [ ` [ [ ) [ [ [ [ [ [ [ ] [ [ [ [ ] [ [ [ [ ) [ e.:.:.:...X.....{ {  .",
":.:.X.:.:. .....:.:.-.( ( ] { { [ [ { [ [ [ [ [ ) [ [ { [ [ [ [ [ [ [ ) /  .q.X.X...:.........:.:.X.",
":.:...:.:.:.:.:.:.:.:. .( ( ] { [  . . .[ [ [ [ [ [ {  .{ [ [ [ [ [ [ /  .:.q.X...:.:.:.:...:.:.:.:.",
":.:.:.:.:.:.:.:.X.6.7.X.} ( ( ) { { { { { { { { [ [  .{ { { { { { ] / ) 8.8.:.:.X.8.-.6.8.8.6.8.:.:.",
"&.:.&.:.$.:.:.:.8.| | 7.X.} ( / ) { { { ` { { { [  .{ [ { '  .[ ) ~ ` q.8.&.-.6.X.8.X.7.X.-.X.X.&.&.",
"&.&.&.&.X.&.&.&.| 8.8.7.-.X.| / ~ { { ` { [ ` { { [ { [ [ ' [ ) / ) q.:.&.&.&.X.6.X.X.X.X.$.$.7.&.&.",
"X.&.&.X.&.&.&.&.7.| | | X.8.X.| ~ ~ ) { { ` { { ' [ { ' [ [ ( / ) 9.&.&.&.X.&.&.8.X.6.X.X.7.X.7.X.&.",
"X.&.X.&...&.&.&.7.8.} 7.X.-.| 7.} ~ ~ ) [ ` [ ` { ` { ` [ ^ ^ [ 8.6.} &.8.| 7.| | X.8.| X.&.X.$.&.X.",
"| X.| | $.&.#.{ | | | | | | | X.| ] ~ ( ) [ ` ` ` ) ` ) ) ~ ` | 8.7.} 5.| | | 7.| X.| X.X.X.X.X.X.| ",
"X.| } [ X.|  .{ { } ..| } } | | | | ` ~ ( ] ` ` ^ ) ) ( ~ ) X.&.| | | | } } | ..X.| | X.| | X.| | | ",
"{ [ ` [ ' { ` [ ` ` { { ` [ { { { { } ) z ~ ~ ^ ^ ^ ~ J ~ 8.| } { { { ` { { ..| { { { } ..{ | | { ] ",
"{ ..} { } | ..} { { } } } } { } ' } } | { h ~ ( ) / z ( :.$.X.} [ } } { } ..} } { ` ` { ` ) ) ` } } ",
"} | | | | | | ..} } } } } }  .| } } }  ... .S ~ J ~ ( :.&.X.X.| ..} ..} | $.| .. .| } } | } } | | } ",
"| } } | } } } } | } } } } } | | } | } } } } ) S S (  .&.#.....#.} | | } } } } } | | | } | } | } } } ",
"} } } } } } } } } } } } } } } } } } } } } ..| ~ S ` :.$.} } | } } } } } ' | | } } } } } } } } } } } "
};
