/* XPM */
static char *result[] = {
/* columns rows colors chars-per-pixel */
"50 100 185 2 ",
"   c #000101",
".  c #0C0C0C",
"X  c #10100E",
"o  c #0B0E13",
"O  c #001717",
"+  c #0C1015",
"@  c #011817",
"#  c #001F1F",
"$  c gray7",
"%  c #141A1F",
"&  c #1E1E1C",
"*  c #161D25",
"=  c #1A1E23",
"-  c #161F29",
";  c #181F29",
":  c #012E2E",
">  c #1A232E",
",  c #1E2631",
"<  c #003F3F",
"1  c #252524",
"2  c #25292C",
"3  c #2B2B29",
"4  c #30302D",
"5  c #222E3C",
"6  c #24303E",
"7  c #333332",
"8  c #38353A",
"9  c #3E3D3A",
"0  c #253243",
"q  c #2A3645",
"w  c #2B3846",
"e  c #2C3B4D",
"r  c #303E51",
"t  c #4E394E",
"y  c #0C545A",
"u  c #005D5D",
"i  c #3B4147",
"p  c #334253",
"a  c #33455B",
"s  c #394758",
"d  c #3A4A5D",
"f  c #364961",
"g  c #3A4C62",
"h  c #3C4F69",
"j  c #3F5267",
"k  c #3D526A",
"l  c #3E5571",
"z  c #096E71",
"x  c #007373",
"c  c #007C7C",
"v  c #454543",
"b  c #494945",
"n  c #42474B",
"m  c #4B4C4B",
"M  c #53534F",
"N  c #584358",
"B  c #5D485D",
"V  c gray33",
"C  c #5C5C56",
"Z  c #595A59",
"A  c #63635D",
"S  c #425266",
"D  c #44556A",
"F  c #565864",
"G  c #435873",
"H  c #445A76",
"J  c #445D7C",
"K  c #6F5A6E",
"L  c #5F6366",
"P  c #546B6B",
"I  c #4F6D75",
"U  c #49607E",
"Y  c #626261",
"T  c #6B6B66",
"R  c #656669",
"E  c #6D6D6A",
"W  c #72726E",
"Q  c #666C75",
"!  c #7C607C",
"~  c #796978",
"^  c #6D7175",
"/  c #69717C",
"(  c gray44",
")  c #7B7B74",
"_  c #7D727B",
"`  c #7E7E79",
"'  c #82827E",
"]  c #455F80",
"[  c #456283",
"{  c #4B6585",
"}  c #4B6686",
"|  c #4A668B",
" . c #4D6A8C",
".. c #526783",
"X. c #516A86",
"o. c #596D86",
"O. c #516D8D",
"+. c #53748B",
"@. c #5C718C",
"#. c #4E6C92",
"$. c #516E92",
"%. c #547194",
"&. c #5B7695",
"*. c #5D7896",
"=. c #56749A",
"-. c #59769C",
";. c #5C799D",
":. c #667485",
">. c #62758D",
",. c #6A7D97",
"<. c #607D9E",
"1. c #5677A0",
"2. c #5779A3",
"3. c #5C7CA2",
"4. c #5E7FA8",
"5. c #617EA2",
"6. c #825F82",
"7. c #867886",
"8. c #967496",
"9. c #008A8A",
"0. c #3C8181",
"q. c #00A8A8",
"w. c #18AAAA",
"e. c #00B7B7",
"r. c #00BABA",
"t. c #4F8391",
"y. c #68859C",
"u. c #5F80A9",
"i. c #6481A6",
"p. c #6B85A5",
"a. c #6383AB",
"s. c #6985AB",
"d. c #6788AD",
"f. c #6988AE",
"g. c #6586B0",
"h. c #6788B1",
"j. c #6C8CB3",
"k. c #6E8FB8",
"l. c #708EB5",
"z. c #6F90B9",
"x. c #7090B7",
"c. c #7292BB",
"v. c #7697C1",
"b. c #7798C3",
"n. c #7A9BC5",
"m. c #00C3C3",
"M. c #00D2D2",
"N. c #00D8D8",
"B. c #00E9E9",
"V. c #00F7F7",
"C. c #00F8F8",
"Z. c #8A8A83",
"A. c #8D8D84",
"S. c #909088",
"D. c #99998F",
"F. c #9B9B92",
"G. c #A2A299",
"H. c #A8A89E",
"J. c #AA9CA4",
"K. c #B68CB5",
"L. c #AAAAA1",
"P. c #B5B5AC",
"I. c #B9B9AD",
"U. c #BCBCB2",
"Y. c #C3C3BA",
"T. c #C6C6BA",
"R. c #D29AD2",
"E. c #D7A3D7",
"W. c #E4ACE4",
"Q. c #EEB6EE",
"!. c #F5BDF5",
"~. c #CCCCC3",
"^. c #D2D2C6",
"/. c #D4D4CA",
"(. c #D9D9CB",
"). c #DCDCD1",
"_. c #E4C8DC",
"`. c #E3E3D6",
"'. c #E5E5D9",
"]. c #EAEADC",
"[. c #F8C0F8",
"{. c #EEEEE0",
"}. c #F4E8E7",
"|. c #F5F5E5",
" X c #F8F8E8",
/* pixels */
"c.v.c.v.v.v.v.v.v.b.v.v.v.v.v.v.b.b.v.b.b.v.v.g.u.h.v.k.v.v.h.h.v.n.v.v.v.v.v.b.v.b.b.v.v.v.v.z.v.v.",
"b.b.v.v.v.v.v.b.b.b.v.v.v.v.v.v.v.b.b.v.v.v.z.u.u.u.v.v.v.b.b.b.b.b.v.v.v.v.v.v.b.v.v.b.v.v.b.b.v.b.",
"v.v.v.v.v.v.v.v.b.v.v.v.v.v.v.v.b.b.v.v.v.v.2.2.2.2.u.v.b.v.v.v.v.v.v.v.v.v.v.b.v.v.b.b.v.b.b.v.v.v.",
"c.v.v.v.z.v.v.v.v.v.v.v.v.v.v.v.c.v.v.v.z.2.2.v.g.u.2.u.z.z.z.v.v.v.v.v.z.v.v.v.v.v.v.v.v.z.v.v.v.v.",
"j.j.j.k.k.z.k.k.k.k.z.c.v.v.z.z.z.z.z.j.u.2.z.z.h.g.4.1.u.h.z.z.z.z.z.z.k.k.k.z.z.k.k.z.z.x.x.x.h.k.",
"h.h.j.h.j.j.k.k.g.h.j.k.k.k.z.z.j.k.h.u.2.j.b.h.g.g.u.1.1.g.h.z.z.z.z.j.h.k.z.z.k.j.g.h.z.x.h.f.h.h.",
"z.z.c.k.k.j.z.z.k.k.j.k.k.k.z.z.k.k.u.2.h.n.u.h.g.g.g.g.1.1.g.z.z.v.v.z.z.z.v.z.v.z.j.z.c.c.x.x.z.z.",
"v.v.c.z.v.k.v.k.v.z.v.z.z.c.v.v.z.2.1.j.b.h.g.d.u.g.u.g.u.2.1.u.v.z.z.z.v.z.v.z.c.c.c.v.c.c.c.c.v.v.",
"c.c.c.c.c.c.c.c.z.c.c.c.c.c.c.z.1.#.z.z.h.u.h.u.h.u.a.a.g.u.2.1.u.z.z.c.c.c.c.c.c.c.c.c.c.c.c.c.c.c.",
"c.x.x.c.c.x.c.x.c.c.c.z.c.c.j.u.1.k.z.h.u.u.u.u.u.h.u.a.u.u.Q @.1.u.z.Q l.c.c.p.R c.l.c.c.c.c.x.c.c.",
"c.x.c.x.c.x.x.x.x.x.z.z.z.h.u.1.h.z.d.d.u.h.u.g.u.u.a.a.u.g.Q @.2.-.u.L f.c.c.s.A l.c.l.x.c.x.x.c.x.",
"x.x.x.x.x.x.x.x.x.x.x.c.j.4.1.u.v.d.u.u.u.u.u.u.a.u.u.u.u.&.0.+.*.=.o.0.y.l.s.t.0.,.l.c.x.x.x.x.x.x.",
"x.x.x.x.x.x.j.x.x.x.k.z.2.1.u.b.u.u.u.u.d.u.u.i.g.u.u.a.u.V w.0.P &.V m.P ,.:.I r.V f.x.x.x.x.x.x.x.",
"l.x.x.l.k.x.x.x.x.k.j.1.=.h.c.u.i.u.u.i.u.u.i.u.u.u.u.u.i.  r.u 0 ]   C.# D f < C.  <.l.x.l.j.x.x.x.",
"x.j.l.l.x.x.x.j.j.j.-.=.f.j.a.u.u.u.u.u.u.u.u.u.u.u.u.u.u.  r.u 5 H   C.# f e < C.  <.l.l.k.j.k.j.j.",
"d.d.d.d.d.d.d.d.d.u.=.d.f.u.3.u.u.;.;.u.u.3.3.3.;.2.-.3.3.  r.u 5 G   C.# f q < C.  <.s.s.s.a.a.f.a.",
"i.i.a.d.i.d.d.a.3.=.4.c.u.2.3.-.3.2.-.2.;.;.=.2.2.3.-.-.-.  r.u , H   V.# f e < V.  =.a.g.5.a.5.i.a.",
"d.d.j.d.d.h.h.3.%.3.c.u.u.3.3.-.2.-.-.=.2.u.-.-.3.u.3.2.u.  r.u 0 H   C.# f e < V.  =.s.h.j.j.s.s.h.",
"j.j.f.j.h.k.-.#.3.c.a.5.3.i.3.3.u.u.3.u.-.u.u.u.u.3.5.3.u.  r.u 0 J   C.# h r < V.  %.j.j.h.j.j.j.j.",
"f.j.j.f.j.-.%.u.j.i.3.3.3.3.u.3.;.u.;.u.u.u.;.u.3.3.3.3.u.  r.q.z %   V.# % y q.V.  [ 5.j.j.f.j.f.d.",
"h.d.d.g.-.#.u.d.a.3.3.3.3.3.3.;.3.3.3.3.-.u.t.3.3.3.;.3.;.  q.N.e.c c C.9.c q.N.N.  { =.2.j.j.f.f.f.",
"f.h.d.;.#.u.d.d.3.2.3.3.3.3.3.2.3.3.3.3.u.-.2.3.2.3.3.3.2.* z m.B.B.C.C.C.B.B.N.9.* $.$.1.4.g.f.d.j.",
"h.d.u.#.-.d.u.u.3.3.2.3.3.3.3.3.3.3.2.3.2.3.3.3.3.3.3.2.3.3.- x r.m.C.C.V.M.e.9.  3.3.1.$.#.5.h.d.a.",
"d.3.#.=.c.u.;.-.;.;.3.;.2.;.3.3.;.3.3.;.;.3.-.2.3.;.3.3.3.;.3.5               ; 2.;.2.2.1.#.$.5.f.3.",
"#.#.-.x.-.=.-.=.=.-.2.-.=.-.2.1.=.=.=.=.J * * * J =.=.=.2.=.-.U G p   9.O 0 H { =.=.=.=.=.-.#.#.#.%.",
"#. .=.f.=.%.=.=.=.$.=.=.=.%.=.=.=.k f f D m 8 b r g f h -.=.=.=.%.l   e.O f =.=.=.-.2.=.%.=.#.#.#. .",
"3.=.#.-.-.=.-.-.-.@.%.=.-.-.$.} } 2 & & v ~.F.~.V & & 2 } } -.-.1.l   e.O f =.=.=.-.-.3.=.$.#.5.u.=.",
"h.3.%.#.=.-.-.>.( ( ~ -.-.-.H     P.]. X X X X X X X].P.    H -.-.H   r.O f -.-.=.5.-.-.$.#.-.l.f.3.",
"s.g.5.$.#.=.-.-.&.&.&./ >.a m (.(.|.|. X X X X X X X|.|.(.(.7 k >.V   e.O f ;.;.-.3.-.$.$.=.x.s.s.s.",
"5.s.s.5.#.| %.-.-.-.1.>.d Y L. X X X X X X X X X X X X X X XI.F d D   e.O f -.-.1.=.$.| -.l.p.a.i.s.",
"5.a.5.s.5.o.o.@.>.>.=.S F L. X XT.).|. X X X X X X X|.`.Y. X XF.F e   e.O s >.>.=.$.| 5.l.s.p.a.p.i.",
"s.s.s.i.5.:.^ ^ ~ ^ | 2 H. X{.'.Z.~.{.|. X X X X X X].~.' '. X XH.X   e.O n ^ / #.#.3.s.s.5.i.i.i.i.",
"5.s.5.5.s.5.<.$.| $.  I.]. X/.W  X X X X X X X|. X X X X X( /. X].F.  e.@ f %.$.#.-.s.s.s.5.5.5.5.5.",
"s.5.5.5.5.5.5.-.$.|   ^.|. XI.X  X X X' & & & 1 & Z. X X X$ U. X|.P.  e.@ a $.| @.f.5.5.5.5.5.5.s.5.",
"5.5.5.5.5.5.5.5. .0 T `. X X(.) ' ' ) W E ) ) ) T W ` ) ) ) ). X XI.  e.O r  .$.f.5.5.5.5.5.5.5.5.5.",
"=.<.-.=.-.5.O.H a   ).|. X X X X9 9 9 A.`. X X X`.A.9 9 9  X X X XI.  e.O 0 { f.5.-.<.;.5.<.=.-.-.<.",
"5.5.-.5.5.-.5        X X X X X X|. X X X X X X X X X X X X X X X XI.  e.O   p 5.-.<.5.-.=.;.;.;.5.<.",
"5.5.5.5.5.* F. XI.   X X X X X X|. X X X X X X X X X X X X X X X XI.  r.O F.` * ;.5.5.5.<.;.;.<.5.5.",
"5.5.5.5.; S.'.I.C I. X`.) 9 C L. X|. X X X X X X X X X X X X X X XI.  : 8.~ ` S.; <.5.5.5.5.i.i.5.5.",
"5.5.@.e ` (. XF.9  X`.) ~ ! K b T.|. X X X X X X X X X X X X X X XI.    E.B ` (.) r &.<.<.<.;.i.5.<.",
"<.<.O.   X X XF.9  XY.v K.Q.R.8 T `. X X X X X X X X X X X X X X XI.    R.N )  X X  O.<.;.y.;.;.<.<.",
"<.<.O.   X X XF.9  XS.]._.W.!.!.  (. X X X X X X X X X X X X X X XI.    K.t )  X X  X.<.i.;.;.;.<.<.",
"<.<.X.   X XC M Y.A.^.|. X_.E.!.  (. X X X X X X X X X X X X X X XI.  e.@ F.) 9  X  X.<.;.;.;.;.&.<.",
"&.&.X.   X XC V (.S.{. X X{.}.}.  (. X X X X X X X X X X X X X X XI.  e.@ F.) 9 |.  X.<.*.y.;.*.<.&.",
";.*...   X XC C ].I. X X X'.Y.F.C ]. X X X X X X X X X X X X X X XI.  e.@ F.) 9  X  X.*.;.*.;.;.=.*.",
"O.O.J o (. XC C  X X X X XT.' &  X X X X X X X X X X X X X X X X XI.  e.@ D.) 4 (.o U &.*.%.*.-.$.O.",
"&.*.=.%.  I.C C  X X X X X X X X X X X X X X X X X X X X X X X X XI.  e.@ ' T     O.O.$.%. .O.+.&.&.",
"=.k & Y ` 3 X A  X X X X X X X X X X X X X X X X X X X X X X X X XI.  e.@ ' T 1 ` L = j &.&.&.%.=.*.",
"S i C Y W m & C  X X X X X X X X X X X X X X X X X X X X X X X X XI.  e.@ 7 v v ( C C i S &.*.&.*.&.",
"w 4 ) Y Y E 3 C  X X X X X X X X X X X X X X X X X X X X X X X X XI.  e.@   8 E Y Y ` 4 w &.&.&.&.&.",
"d 1 V V R ` 4 C  X X X X X X X X X X X X X X X X X X X X X X X X XI.  e.O . b ' R V V 1 d l.c.v.v.c.",
"b C     S.E 1 C  X X X X X X X X X X X X X X X X X X X X X X X X XI.  e.@ 8 A E S.    C b , b.v.v.v.",
". w %.  R 1 . X Z  X X|.`.'. X X X).{. X X|./.|. X X{.). X X X).`.I.  e.O . . 1 R   %.w . , v.v.v.v.",
"d { j.d 4 p d 5 8 '. X`.Y.~.'. X'.P.~.{.{.).P.).|.{./.P.`. X'.~.Y.L.  e.O 5 d p 4 d l...d H v.v.v.v.",
"j.j.j.k.> *.k.U r F.{.~.F.L.~.{.U.D.P.~./.U.S.U./.~.L.F.U.{.~.G.H.S.  e.O H c.=.> k.j.x.z.z.k.k.l.j.",
"j.j.j.h.j.j.k.j...  ^.D.S.S.G.^.S.S.A.S.S.S.S.S.S.S.S.S.S./.F.S.S.T   e.O G x.k.k.j.s.k.k.z.d.f.h.j.",
"c.c.c.j.k.k.c.x.l.k.  ` S.S.S.A.S.S.S.S.S.S.S.S.S.S.S.S.S.S.S.S.` n   e.O H c.c.c.c.j.c.c.c.x.x.c.c.",
"c.c.c.c.c.c.c.c.c.c.O.8 A S.S.S.S.A.S.S.S.S.S.S.S.S.S.A.S.S.S.S.Y $   e.O H c.c.c.c.c.c.v.c.c.c.c.v.",
"c.c.c.c.x.c.c.c.c.c.c.D n v C S.) ) Z.S.S.S.S.S.S.S.' _ _ A.C v n w   e.@ H c.c.c.c.c.c.c.c.c.c.c.c.",
"c.c.c.c.x.c.c.c.c.c.c.c.d = 9 J.7._ _ T T T T T T T T _ 7.J.9 = a { & 9.% o.c.c.x.c.x.c.c.c.c.c.c.c.",
"c.c.x.c.x.x.x.x.x.c.c.x.c.>.7.[.!.R.t               t R.!.!.7.>.2.%.F   V ,.c.x.c.x.c.x.x.c.x.x.x.x.",
"x.x.x.x.x.x.x.x.l.x.k.c.q ! Q.R.    k a.a.u.a.u.a.a.D     R.Q.B 5 1.-.g.x.c.c.x.x.x.k.l.x.x.x.x.x.x.",
"x.x.x.x.x.x.x.l.c.k.l.x.0 6.Q.R.  h 2.u.u.a.u.a.u.a.%.H   R.Q.B 6 a.=.=.h.x.k.x.x.x.x.x.x.x.x.x.x.x.",
"j.l.x.x.k.x.l.k.l.k.j.1.f F 8.6.0 -.a.u.a.u.a.a.4.5.a.;.5 :.8.F h i.4.=.=.a.x.k.l.l.k.k.x.x.l.l.x.l.",
"x.l.x.k.j.k.j.k.k.j.2.=.h.k + + a.a.a.u.u.u.u.u.u.u.3.u.u.+ + l 3.3.2.-.-.=.u.j.k.j.x.j.j.j.j.j.j.j.",
"d.d.d.f.d.f.f.f.h.3.%.s.j.u.3.3.3.3.3.3.u.-.-.t.3.2.3.3.-.-.;.3.2.-.-.-.=.=.=.2.d.d.j.d.d.d.d.a.d.d.",
"u.i.a.a.a.d.f.a.3.%.3.x.3.3.2.-.3.3.-.2.u.1.-.-.2.3.-.-.2.=.2.-.3.1.2.2.1.=.=.1.u.h.s.a.i.d.a.u.u.a.",
"d.d.f.d.a.j.f.3.=.3.c.a.3.3.3.2.-.2.-.-.-.u.-.=.3.3.3.2.u.-.u.2.-.2.3.5.2.1.=.#.#.a.a.d.d.j.j.d.d.d.",
"j.j.j.j.j.j.-.#.4.c.5.4.5.5.3.3.u.3.u.u.3.u.u.u.3.u.3.4.u.;.u.u.5.4.4.3.3.4.5.2.#.#.u.j.h.j.j.j.j.j.",
"f.f.j.j.j.-.%.u.j.5.4.3.4.3.3.5.u.3.;.u.u.;.;.u.3.3.3.4.u.u.u.;.3.3.3.3.3.5.3.3.2.=.%.u.j.h.j.d.f.f.",
"j.d.d.d.-.#.u.d.5.4.3.3.2.4.3.3.;.3.3.3.;.u.;.;.3.3.-.t.-.u.;.;.3.3.3.3.3.3.3.3.u.=.%.%.u.h.g.j.d.f.",
"f.f.u.u.#.u.d.a.3.3.3.3.2.3.2.5.3.3.3.3.2.;.2.u.3.3.u.-.u.-.u.;.3.3.3.3.3.3.3.5.;.u.=.%.%.u.d.d.j.f.",
"d.d.3.#.=.4.4.5.2.5.2.5.2.5.2.2.2.3.3.3.3.3.2.3.3.3.3.-.3.3.2.3.3.1.3.3.3.3.5.2.2.3.3.=.=.$.5.h.d.s.",
"d.3.#.=.v.5.5.5.2.-.2.2.5.2.5.-.;.3.3.-.2.;.;.3.2.3.3.2.3.3.3.;.3.3.3.3.3.-.2.-.;.3.1.1.=.#.#.a.f.-.",
"#.#.-.x.-.=.2.-.=.=.5.=.=.=.5.-.=.=.=.=.=.=.=.=.=.=.=.=.;.=.-.-.=.=.=.-.%.=.2.3.-.=.=.=.1.-.#.#.#.#.",
"#.#.=.d.=.$.=.=.$.=.=.$.=.$.=.=.%.-.-.-.=.=.=.#.=.-.-.=.=.=.=.=.=.%.=.=.%.=.=.%.=.-.1.=.=.%.#.#.#.#.",
"3.%.$.2.1.=.-.-.-.=.-.-.=.-.-.-.-.2.;.-.2.-.-.-.2.-.-.-.-.-.-.-.=.-.3.=.=.=.=.-.=.<.-.-.=.$.#.5.u.=.",
"j.3.$.#.=.1.-.-.2.-.-.-.-.2.-.-.2.-.3.-.-.;.-.3.-.-.2.-.-.-.-.-.-.-.=.-.-.3.-.-.1.1.1.=.$.$.=.l.d.u.",
"s.s.5.=.#.=.-.-.-.-.5.-.-.2.-.-.-.-.-.-.-.-.-.-.;.-.;.;.-.-.1.-.3.-.3.-.3.-.-.-.-.-.<.$.$.=.x.s.p.s.",
"a.s.5.5.#.| =.-.-.-.-.-.-.-.-.-.-.-.-.;.;.-.-.-.;.-.-.-.-.-.-.-.-.=.&.-.-.&.-.-.-.3.$.| =.l.s.h.p.a.",
"s.5.5.s.5.#.| $.-.-.;.=.*.=.;.=.-.-.-.&.&.-.=.-.=.-.;.=.;.=.=.=.=.=.&.&.=.-.-.-.-.#.| 5.K.4.u.u.i.i.",
"s.s.s.5.5.5.$.#.$.-.=.=.=.=.=.=.;.=.=.=.=.=.=.&.=.=.=.=.&.=.&.=.=.*.=.=.;.=.&.=. .#.5.g.5.l.u.a.i.i.",
"5.5.4.s.5.5.5.$.| =.=.%.=.=.=.%.%.=.&.=.=.%.&.=.;.=.=.=.&.=.=.=.=.=.&.=.=.=.%.$.| -.5.5.5.5.5.5.i.p.",
"s.5.5.5.4.5.5.-.#.| %.=.=.&.=.%.=.=.=.=.=.%.=.=.%.=.&.$.=.=.=.&.=.=.=.=.%.=.$.| %.j.j.5.5.5.5.5.i.u.",
"5.5.5.5.5.5.5.5.=.| | $.=.$.$.$. . .$.$.$.$.=.%.$.$.$.$.$.$.%.=.%.=.%.$.$.$.} O.l.5.5.5.5.5.5.5.i.5.",
"<.-.=.=.-.-.<.-.-.=.| | | #.$.%. .%.$.| $.$. .$.$.$.$. .O.#.$.$.$.$.$. .$.#.$.f.5.<.;.-.-.;.%.-.=.%.",
"5.;.*.5.<.-.-.-.5.5.<.| |  .$.%.%.%.%.$.$.$.$.$. .$.$.=.$.$.$.$.$.$.$.| | $.i.5.-.*.5.-.-.-.-.;.5.;.",
"5.5.5.5.5.5.5.5.5.5.5.=.| | #.%.%.%.=.=.$.$.=.$.$.$.$.&.$.$.$.$.$.$.$.| =.5.i.5.<.5.5.5.5.;.5.5.5.<.",
"5.5.5.5.5.5.5.5.3.5.<.;.%. .| #.%.%.%.%.%.%.%.%.=.$.$.$.=.%.%.%.%.#.[ #.p.i.<.5.<.i.i.<.<.i.<.i.5.5.",
"<.5.<.5.<.<.<.<.y.;.<.i.<.=.| }  .%.%.%.+.%.%.=.$.%.@.%.%.%.%.%. .{ #.p.i.;.;.y.<.<.;.<.;.i.;.<.;.<.",
"<.5.<.<.<.<.<.<.;.i.;.;.<.;.*.[ [ %.%.%.#.%.$.+.%.$.O.%.$.%.%.} [  .d.;.i.<.<.;.<.<.<.<.<.<.;.<.<.<.",
"*.5.*.5.<.<.<.<.;.i.;.y.<.<.;.*.[ [  . .%.$.%.$.%.%.%.$.%.$.} {  .p.<.y.;.;.;.i.;.<.<.<.;.<.i.;.<.<.",
";.<.*.<.&.<.<.<.;.y.-.;.;.;.;.y.%.[ {  .$.$.+.#.O.$.O.#.$.} { %.;.y.;.;.;.;.y.;.<.<.;.<.;.y.;.;.;.;.",
";.;.*.*.<.&.-.@.;.*.;.;.;.&.;.;.;.O.} {  .+.#.+.O.#.+.+.} [  .*.i.;.;.;.*.;.;.;.*.*.y.*.;.;.;.*.<.*.",
"*.*.&.%.<.&.=.%.&.%.*.;.%.+.*.*.*.;. .[ |  . . .}  .O.} [  .;.i.;.*.-.*.*.*.;.*.*.;.=.*.*.*.;.;.*.;.",
"%.O.O.O.%.%.$.O.O.O.%.+.%.%.%.%.%.&.+. .l [ } } } } [ U [ i.*.+.+.%.%.+.%.%.*.*.%.%.=.+.&.=.*.*.+. .",
"%.*.+.=.&.*.*.&.%.%.+.;.;.&.=.&.%.%.+.*.O.U [ |  .[ [ [ y.;.&.&.%.&.&.%.%.*.&.%.%.+.+.O.%. .O.+.%.*.",
"*.;.;.*.*.*.&.-.&.&.+.&.*.&.&.*.&.*.;.;.&.#.U [ U ] [ i.<.;.;.&.&.&.=.*.*.*.;.*.;.*.&.&.*.=.&.%.*.*.",
"*.*.&.*.*.&.*.&.&.&.&.*.*.*.&.*.*.*.*.&.*.=.O.J J } &.i.;.&.&.*.&.*.*.*.*.*.*.*.*.&.&.*.&.*.&.&.*.*.",
"@.&.&.&.&.&.&.&.&.&.&.*.=.*.*.+.@.&.&.&.&.&.&.[ J +.;.&.&.&.*.&.&.&.&.&.&.&.&.@.&.&.&.&.@.&.&.&.&.&."
};
