/* XPM */
static char *result[] = {
/* columns rows colors chars-per-pixel */
"100 50 207 2 ",
"   c #000000",
".  c #06070A",
"X  c #04090B",
"o  c #0C0C0C",
"O  c #0A0D12",
"+  c #001717",
"@  c #0D1115",
"#  c #0F1318",
"$  c #001A1A",
"%  c #121211",
"&  c #18151B",
"*  c #1C1C1A",
"=  c #141B23",
"-  c #171E26",
";  c #201920",
":  c #042325",
">  c #012D2D",
",  c #1A2027",
"<  c #19212B",
"1  c #1E2936",
"2  c #003E3E",
"3  c #18393C",
"4  c #242423",
"5  c #272929",
"6  c #2D2E2C",
"7  c #30302E",
"8  c #2C2330",
"9  c #222D3B",
"0  c #28383A",
"q  c #323232",
"w  c #3E303E",
"e  c #393A3B",
"r  c #3D3D3B",
"t  c #41413F",
"y  c #093D41",
"u  c #1D3541",
"i  c #273444",
"p  c #293748",
"a  c #2B3A4C",
"s  c #2D3D51",
"d  c #4C3B4B",
"f  c #533E53",
"g  c #004545",
"h  c #124C54",
"j  c #055456",
"k  c #005D5D",
"l  c #115157",
"z  c #3A444F",
"x  c #2E4155",
"c  c #364455",
"v  c #34455B",
"b  c #3A4A5D",
"n  c #354D62",
"m  c #3A4D63",
"M  c #3D5269",
"N  c #0C6A6D",
"B  c #066F71",
"V  c #017373",
"C  c #007C7C",
"Z  c #464646",
"A  c #4C4D4B",
"S  c #434859",
"D  c #5D485D",
"F  c #555553",
"G  c #5D5D57",
"H  c #535659",
"J  c #5D5D5A",
"K  c #615D5C",
"L  c #60605C",
"P  c #414C60",
"I  c #42556D",
"U  c #485569",
"Y  c #445973",
"T  c #445A76",
"R  c #445D7C",
"E  c #495E79",
"W  c #604963",
"Q  c #684C68",
"!  c #5E6469",
"~  c #4B637E",
"^  c #5A6979",
"/  c #616060",
"(  c #696965",
")  c #62696B",
"_  c #6C6C6A",
"`  c #746A6F",
"'  c #74746D",
"]  c #616872",
"[  c #616E7E",
"{  c #7D6F7D",
"}  c #6B7178",
"|  c #737271",
" . c #7D7C76",
".. c #7E7E78",
"X. c #82827D",
"o. c #455F80",
"O. c #456282",
"+. c #4A6585",
"@. c #4B6686",
"#. c #4A668B",
"$. c #4D6A8C",
"%. c #516985",
"&. c #5E6F83",
"*. c #526D8D",
"=. c #417F86",
"-. c #5E7486",
";. c #54708E",
":. c #4E6B92",
">. c #516E92",
",. c #547194",
"<. c #5B7695",
"1. c #5C7896",
"2. c #56749A",
"3. c #59769C",
"4. c #5C799D",
"5. c #67778B",
"6. c #647B97",
"7. c #607C9E",
"8. c #5677A0",
"9. c #5778A2",
"0. c #5C7CA2",
"q. c #5E7FA8",
"w. c #617EA2",
"e. c #825F82",
"r. c #846584",
"t. c #008787",
"y. c #008A8A",
"u. c #148889",
"i. c #009B9B",
"p. c #36888B",
"a. c #00A1A1",
"s. c #04ACAC",
"d. c #18A3A4",
"f. c #00B5B5",
"g. c #00BABA",
"h. c #5F80A6",
"j. c #5F80A9",
"k. c #6381A6",
"l. c #6283AB",
"z. c #6985AB",
"x. c #6988AF",
"c. c #708AAC",
"v. c #6687B0",
"b. c #6788B1",
"n. c #6C8CB4",
"m. c #6E8FB8",
"M. c #708FB6",
"N. c #708FB8",
"B. c #6F90B9",
"V. c #7090B7",
"C. c #7293BB",
"Z. c #7898BF",
"A. c #7697C2",
"S. c #7798C3",
"D. c #799AC4",
"F. c #7F9FCA",
"G. c #00C5C5",
"H. c #00D9D9",
"J. c #00E7E7",
"K. c #00ECEC",
"L. c #00F7F7",
"P. c #8E8E86",
"I. c #8B8B88",
"U. c #919189",
"Y. c #98988F",
"T. c #929191",
"R. c #989695",
"E. c #9B9B93",
"W. c #A2A29B",
"Q. c #AAAA9F",
"!. c #A38EA3",
"~. c #B685B6",
"^. c #A7A7A0",
"/. c #ABABA4",
"(. c #ACACAC",
"). c #B6B6AB",
"_. c #B4B4AC",
"`. c #B9B9B1",
"'. c #B8B9B7",
"]. c #C3C3BA",
"[. c #C6C6BA",
"{. c #C894C8",
"}. c #D29AD2",
"|. c #D6A4D5",
" X c #DFA7DF",
".X c #E2AAE2",
"XX c #EEB6EE",
"oX c #F6BEF6",
"OX c #CCCCC3",
"+X c #CBCBC9",
"@X c #D6CFCC",
"#X c #D2D2C5",
"$X c #D3D3CA",
"%X c #D9D9CC",
"&X c #DEDED2",
"*X c #DDDDD9",
"=X c #E2E2D5",
"-X c #E5E5D9",
";X c #E9E9DC",
":X c #F6DDEC",
">X c #F8C0F8",
",X c #EEEEE0",
"<X c #F3ECE5",
"1X c #F4F4E5",
"2X c #F8F8E7",
"3X c #F8F8E8",
"4X c #F6F6F6",
/* pixels */
"A.S.D.S.S.A.S.S.S.S.S.S.S.S.S.S.S.S.S.S.A.A.A.v.8.j.F.A.A.A.A.6.Y P %.S.S.S.S.S.S.S.A.S.S.S.A.S.S.S.S.S.A.S.S.S.S.S.A.A.S.S.S.S.A.S.A.S.S.A.A.A.m.8.8.D.A.A.A.A.A.S.A.A.S.S.S.S.S.A.S.A.S.S.S.S.S.S.S.S.",
"A.A.A.S.A.S.A.A.A.S.A.A.A.A.A.S.A.A.S.A.A.A.B.j.8.q.m.A.A.A.,.A % # I S.S.A.A.S.S.A.A.S.A.S.A.A.A.A.A.A.A.A.A.A.S.A.A.A.A.A.A.A.A.A.A.A.A.A.A.A.v.8.9.m.A.A.A.A.A.A.A.A.A.A.A.A.A.A.A.A.A.S.S.A.A.A.A.A.",
"A.A.A.A.A.A.A.A.A.S.A.A.A.A.A.A.S.S.A.A.S.A.q.q.9.9.8.v.A.A.#   o b M.S.A.A.A.S.A.A.A.A.A.A.S.A.A.A.A.A.A.A.A.A.A.S.A.A.A.A.A.A.A.A.A.A.S.S.A.b.9.q.9.9.b.A.A.A.A.A.A.A.A.A.A.A.A.A.A.A.A.A.A.S.S.A.S.S.",
"C.C.A.C.B.A.A.A.A.C.A.A.C.A.A.C.C.A.C.A.B.9.8.B.D.q.a u v.n.C.# A 7 p C.C.N.C.Z.A.C.A.A.A.C.A.A.Z.A.A.C.A.C.A.C.A.C.A.Z.B.Z.A.A.A.A.B.A.C.C.j.9.j.F.b.9.8.j.n.B.A.B.B.A.A.A.B.B.A.A.A.A.C.A.A.C.A.A.C.A.",
"b.b.b.n.n.n.m.n.b.b.n.C.A.C.C.B.B.B.n.b.q.9.S.B.m.i   1 9.v.m.O %.5.e 1 n.n.n.n.m.n.b.b.m.m.n.n.b.b.b.b.b.n.B.B.n.b.b.n.B.C.A.B.B.B.B.B.n.j.9.b.D.b.v.j.q.8.j.n.B.n.n.B.n.B.n.n.n.B.n.n.b.n.V.n.n.b.b.b.",
"m.m.n.n.m.n.B.n.b.n.n.n.B.B.B.C.n.B.b.q.8.B.B.n.i .   @ - < v.&.z.n.U < n.n.m.C.B.B.n.n.m.C.m.x.n.m.n.B.n.n.n.B.B.n.n.n.B.B.B.B.B.B.n.B.q.9.b.B.m.v.v.v.j.9.8.j.n.B.B.B.B.n.b.B.C.B.B.n.n.m.C.C.b.n.n.B.",
"C.C.C.m.m.n.B.B.B.B.B.B.B.B.B.C.B.n.j.9.b.A.b.v.T <   - m a 9 k.C.C.5.q i n.A.C.C.C.V.B.C.C.C.C.B.C.C.A.B.B.B.B.B.B.B.B.B.B.B.B.B.B.n.v.8.l.A.n.v.v.v.v.v.j.9.8.v.B.C.A.C.B.B.B.C.C.C.B.m.V.Z.C.B.B.C.A.",
"C.C.C.C.B.A.A.B.C.A.C.C.B.A.C.C.B.0.9.b.D.l.l.j.j.T < i w.&.q a 0.C.M.U   C.B.A.C.C.C.C.C.C.C.C.C.C.C.C.B.B.B.C.B.A.C.C.B.B.Z.B.A.B.j.2.j.A.n.l.j.j.j.v.j.v.j.9.2.v.B.C.A.C.B.A.C.C.C.C.C.C.C.C.C.C.Z.C.",
"C.C.Z.V.V.Z.V.Z.B.C.C.C.B.C.C.B.0.2.v.A.v.j.l.v.v.v.M n v.k.^ O I z.C.*.  C.C.C.C.C.M.C.C.C.C.C.C.C.C.C.C.C.Z.C.B.B.C.C.C.C.C.C.B.j.8.0.D.b.v.j.j.v.b.j.j.b.b.j.8.8.v.B.C.C.C.m.C.C.C.C.C.C.C.V.C.C.V.C.",
"V.V.V.Z.V.V.V.V.V.C.C.B.C.B.n.0.8.b.B.v.l.l.j.v.q.w.v.l.l.l.l.< r ^ x.*.  C.C.B.B.C.C.V.C.C.V.V.V.V.V.C.C.V.V.V.B.C.V.V.C.B.B.C.q.9.j.A.b.l.l.j.l.l.j.b.l.l.j.l.q.8.8.j.B.B.C.A.m.C.B.B.C.C.V.C.V.V.V.V.",
"V.V.V.V.C.V.V.V.C.V.V.V.B.n.q.8.n.m.b.l.j.v.l.j.q.v.l.l.l.j.l.j.- a 9.+.  C.C.C.C.V.V.V.V.V.V.V.V.V.C.V.V.V.V.V.C.V.C.V.B.B.B.h.8.l.B.b.l.l.l.v.j.j.l.j.j.l.l.l.j.j.9.8.q.B.B.B.C.B.B.V.V.V.V.V.V.V.B.C.",
"V.V.V.V.V.V.V.V.m.V.V.C.n.q.8.l.C.b.j.j.j.j.j.j.q.q.j.j.l.j.l.l.<           w.C.V.V.V.V.V.V.V.V.V.V.V.V.V.V.V.V.V.V.V.V.B.B.l.2.j.n.n.k.j.j.j.j.j.l.l.j.j.j.j.l.j.j.q.8.8.v.B.B.B.M.C.M.V.V.V.V.V.V.V.B.",
"V.V.V.V.V.n.V.V.V.V.V.m.q.8.q.A.x.q.j.j.l.j.l.j.v.q.l.v.j.l.j.< . _ %XE.  %Xq @ P C.M.M.M.M.V.V.V.V.V.V.V.V.V.V.n.V.V.V.B.b.8.9.C.m.j.j.j.l.j.l.v.j.j.j.j.l.j.l.j.l.l.0.8.2.b.B.M.M.M.M.M.M.M.M.V.V.V.V.",
"V.V.V.n.V.n.n.n.m.m.n.9.2.q.A.j.j.j.j.k.j.k.j.k.q.q.q.q.k.j.j.@   6 G A   G Y.Y.) Y m.m.V.n.n.M.V.V.V.V.n.V.n.n.n.V.n.m.j.,.2.A.b.j.j.h.h.h.l.h.j.j.l.j.k.j.j.j.j.j.j.j.0.2.2.j.m.m.M.m.n.m.V.V.V.V.V.n.",
"n.n.V.n.n.V.n.n.n.n.9.,.l.C.l.h.k.h.h.h.j.h.q.0.w.q.9.w.w.q.s . 4 q 7 7 q q |  .r * v M n.n.n.n.n.V.M.M.m.n.n.n.n.V.m.h.2.4.Z.l.j.k.h.h.k.h.h.h.h.h.h.0.0.j.0.0.h.0.9.9.9.4.2.2.w.m.n.n.n.V.n.n.n.n.n.V.",
"z.z.z.x.z.b.x.b.l.4.,.z.b.h.0.0.0.0.0.0.q.0.0.0.0.9.9.0.:.m 4 4 A / / / J r . t F G G F I I 7.l.k.k.z.z.x.z.x.x.z.b.j.2.9.m.l.0.0.0.0.0.0.h.0.9.0.0.9.4.4.0.9.9.0.4.4.2.9.9.2.2.2.0.x.x.x.l.z.l.z.z.l.l.",
"l.l.z.z.j.x.x.z.9.2.w.m.l.0.0.3.0.3.4.9.9.4.4.8.4.0.9.,.Y o L L / / J F F * ; W.;X3X3X%X* * I 0.z.h.h.v.k.z.j.n.v.h.,.h.v.b.h.4.3.0.0.9.3.0.0.0.2.4.9.0.9.4.0.2.0.9.3.9.3.0.9.2.2.:.w.n.M.q.q.w.l.l.l.k.",
"x.x.x.x.v.x.v.h.2.9.A.w.0.q.0.0.0.9.9.4.0.0.9.2.0.0.0.m % ! K ! / / e     #X1X3X2X3X3X3X3X2Xr U v.v.x.n.v.v.x.x.j.:.h.x.x.h.h.h.0.3.9.2.2.9.0.0.9.0.0.q.4.0.q.4.0.0.9.0.0.0.0.9.8.2.2.q.q.q.M.N.x.x.z.x.",
"x.n.n.n.x.v.2.:.8.C.w.0.q.q.0.0.0.q.0.k.0.j.h.0.0.q.x       L / / / e q #X3X3X3X3X3X3X3X3X3X3XK 0 c.n.x.n.n.n.h.2.2.n.v.h.h.h.3.0.q.0.0.q.0.0.k.0.h.0.0.q.0.q.0.q.0.0.w.w.q.w.0.9.9.:.:.w.C.N.N.n.x.n.n.",
"n.x.x.x.n.h.:.h.A.w.w.0.0.0.q.0.0.0.0.0.q.0.0.0., @ Z ....X.o o o o . q #X3X3X3X3X3X3X3X3X3X3X;X).k.x.x.x.x.h.2.2.n.j.h.h.h.3.h.q.0.w.w.q.0.0.0.0.0.0.0.0.0.0.0.0.w.q.0.0.0.0.0.0.0.w.,.2.w.q.N.x.x.n.x.",
"x.x.x.x.2.,.h.b.w.w.q.0.w.9.w.9.4.h.0.0.0.,.9 9 H G ' E.`.).E.E.E.E.U.Y.;X3X3X3X3X`.G G G G %X3XQ.z x.x.n.4.,.2.n.j.h.h.3.4.h.3.0.0.0.0.0.0.0.0.0.0.0.0.4.0.4.0.0.0.0.0.0.0.0.0.0.0.q.8.>.2.9.q.n.x.x.x.",
"x.x.v.9.:.h.v.j.0.0.0.0.9.w.9.w.0.0.0.0.+.c ( ( ^._.`.#X-X-X2X3X2X3X,X;X3X3X3X3X`.` Q Q Q Q ` [.Y.% c c x a +.z.x.h.4.9.9.h.9.h.0.0.0.0.0.0.9.0.0.0.0.0.0.9.0.0.0.0.0.0.0.0.0.0.0.0.0.0.9.>.8.0.x.x.x.x.",
"n.j.h.:.4.x.h.h.w.9.9.w.w.9.w.9.0.0.4.+.b J &X&X&X&X;X2X3X3X2X2X3X3X3X3X3X3X2XQ.` e.|. X.X.Xr.Y. .* A A e e z ~ 4.h.4.9.4.h.h.3.0.9.0.0.0.0.0.0.0.0.0.0.0.4.9.0.0.0.4.0.0.0.0.0.0.0.0.0.9.2.2.>.h.x.z.z.",
"x.h.:.,.C.h.2.h.3.8.w.8.w.9.9.w.4.0.$.S X.&X3X3X3X3X3X1X;X&X&X&X;X1X3X3X3X2X2Xr Q }..XoXoXoXoX!.t 7 ].].U.' 4 1 O.4.4.h.9.9.4.9.4.0.0.0.4.4.3.0.4.4.0.0.0.0.0.0.4.0.4.0.w.8.0.3.0.3.w.8.9.9.2.:.:.z.x.h.",
":.:.2.V.8.2.8.2.2.2.8.8.3.3.9.9.2.,.1  .3X3X3X3X3X3X3X;X].U.P.P.].=X3X3X3X3X3Xr Q  XoX>X>X>X>X!.Z 4 U.U.T.5     , ,.2.2.9.2.2.2.0.2.2.2.2.2.2.2.2.2.2.2.2.,.9.2.2.2.2.2.2.2.2.3.9.3.3.2.2.2.2.3.:.:.:.:.",
":.$.2.x.2.>.2.2.>.2.2.,.2.>.>.3.2.} (.-X3X3X3X3X3X3X-X`.I.U.U.P.U.(.&X3X3X3X3Xt Q  X>X>X>X>X>XD 4 _ P.T.% M 2.>.2.2.2.2.2.2.2.2.2.2.2.0.3.2.3.2.>.2.2.4.2.2.4.2.2.2.2.2.2.2.2.2.2.2.2.3.9.2.2.2.:.$.:.:.",
"0.,.>.4.3.2.2.3.3.3.2.3.3.3.3.2.2., E.2X3X3X3X3X3X3X[.U.U.U.U._ ( _ E.3X3X3X3X;X-X:XoXoXoXoXd K X.E.(.% T :.8.8.,.2.2.2.2.2.2.2.2.2.2.4.3.3.3.2.2.2.2.9.9.2.2.2.2.3.3.2.3.2.2.2.3.3.3.3.3.3.2.:.$.h.h.2.",
"n.0.:.:.3.3.3.3.8.3.3.3.3.3.3.3.} Q.;X3X3X3X3X3X3X3X_._ _ _ _ (.+XR.E.3X3X3X3X3X3X@X{ w d I.{ W.P.4 q M $.2.8.9.9.4.4.2.0.3.3.3.2.4.9.4.9.4.0.3.0.0.4.4.9.4.4.2.9.3.3.3.9.3.3.3.3.3.3.w.3.3.>.:.<.n.v.h.",
"x.l.w.>.:.2.8.w.3.3.3.3.0.3.3.3.e &X2X2X2X3X3X3X3X3XU.L T.7 _.*X4XT. .3X3X3X3X3X3X&XW. .( ^.`.OXX.  . c p p a M 3.0.4.3.3.0.3.3.9.4.4.9.4.4.4.4.3.4.4.3.4.4.2.4.4.4.3.3.3.3.4.3.3.3.3.3.9.>.:.3.C.z.z.z.",
"l.z.z.w.$.$.>.8.3.3.3.3.3.3.3.3.  %X2X2X3X3X3X3X3X3X/...R.J 4X4X(.| U.3X3X3X3X3X3X3X3X3X&X$X,X;XE.e 6   f Q f f T 2.3.3.3.3.3.3.,.4.2.4.4.3.2.3.3.3.3.2.3.3.3.4.3.3.3.3.3.3.3.3.3.3.3.3.>.#.7.C.z.z.z.z.",
"w.k.k.z.0.:.$.>.3.3.3.3.3.3.2.3.  Q.$X1X3X3X3X3X3X3X3XQ.J '.'.'.F I.-X3X3X3X3X3X3X3X3X3X3X&X1X2X$XE. .  .XoX{.W i 2.4.3.3.3.3.2.2.4.2.4.,.2.3.1.<.3.2.3.3.<.2.<.3.<.3.3.3.3.3.3.3.3.3.>.:.w.c.q.k.k.k.z.",
"z.k.z.k.w.0.>.:.>.3.3.3.3.2.3.2.    X.-X3X3X3X3X3X3X3X3X`.      E.&X2X2X2X2X3X3X3X3X3X3X3X3X3X3X;X]. .  r.}.d 1 #.$.2.3.2.,.3.2.2.4.,.,.4.2.2.2.2.2.3.2.2.2.3.2.2.3.2.3.,.2.3.,.3.2.:.:.w.q.n.z.k.k.k.k.",
"w.z.z.w.w.l.0.>.#.>.2.2.3.,.2.2.  ).;X2X3X3X3X3X3X3X3X3X3X3X3X3X^.X.| | |   %X3X3X3X3X3X3X3X3X3X3X,XOXI.%   I w.2.$.>.2.3.3.3.2.2.2.<.2.2.2.2.,.3.3.2.2.2.3.2.3.,.3.3.2.2.2.<.3.,.>.#.3.w.z.w.w.k.k.k.k.",
"w.w.w.w.&.e @ @ O #.>.,.2.2.,.2.@.5 W.2X3X3X3X3X3X3X3X3X3X3X3X3X,X;X-X-X-X%X3X3X3X3X3X3X3X3X3X3X;X[.Y.U.% Y <.w.w.:.#.:.>.3.3.>.2.2.,.2.2.,.2.2.,.2.,.<.,.,.,.2.,.3.,.3.3.,.2.,.>.#.,.c.z.w.w.w.7.k.k.k.",
"z.w.] ] p.s.g.f.y.= = = b >.>.>.>.O I.-X3X3X3X3X3X3X3X3X3X3X3X&X^.T./.=X3X3X3X3X3X3X3X3X3X3X3X-X[.E.U.P.% E w.w.w.w.#.#.:.2.>.>.>.>.>.>.,.>.>.>.2.,.>.2.>.>.>.,.,.2.,.2.,.>.,.:.#.,.c.w.w.w.w.w.w.k.k.7.",
"3.3.] [ =.u.C t.H.C C N h v >.>.>.s H _.3X3X3X3X3X3X3X3X3X3X3X-X'.)./.E. .3X3X3X3X3X3X3X3X3X3X;X%X).P.U.% Y 4.w.0.w.3.#.#.#.:.:.>.>.>.>.>.*.>.>.:.>.>.>.>.:.>.>.,.>.>.>.>.:.>.#.2.l.w.w.w.8.7.7.3.<.1.<.",
"w.7.3.7.-.S 9 u i.i.H.H.y.y m 2.>.>.n / ).;X3X3X3X3X3X3X3X3X3X3X3X3X%XT.G [.,X3X3X3X3X3X3X3X3X3X3X-XW.U.% T 4.4.3.w.w.3.>.#.#.:.>.2.>.,.>.>.>.:.>.:.$.>.>.>.>.>.>.>.>.>.>.#.#.3.k.w.4.4.4.4.<.<.3.7.4.4.",
"w.w.w.6.%.T T m - - B G.H.y.O ,.2.,.>.n H W.&X3X3X3X3X3X3X3X3X3X3X3X2X3X3XU.1X3X3X3X3X3X3X3X3X3X3X=X`.P.% ~ 7.4.7.w.w.w.7.#.@.:.,.,.2.>.2.,.,.:.,.:.:.>.,.,.>.>.:.>.>.,.:.@.>.w.k.4.4.w.k.4.1.<.4.w.w.w.",
"w.7.<.5.0 : $ < *.>.- i.H.y.@ >.,.>.>.2.m ,  .%X1X1X2X3X3X3X2X2X3X3X3X3X3X3X3X3X3X3X3X3X3X3X3X2X=X'.P.U.% E w.k.w.w.w.w.w.3.#.#.:.>.,.,.>.,.,.,.,.,.,.,.,.,.,.,.>.>.>.>.#.>.w.w.7.7.4.k.w.w.k.k.w.w.w.w.",
"6./ J d.J.L.K.a.    . i.H.y.X +.>.,.,.>.,.O.    ).+X=X3X3X3X2X$X,X3X3X3X3X3X3X3X3X3X3X3X3X3X3X&X`.U.P.P.% E 7.4.w.7.7.7.w.7.7.#.@.$.,.>.,.,.*.,.,.,.,.,.,.,.,.,.,.>.#.@.>.c.w.w.k.7.k.7.7.7.1.h.7.7.w.7.",
"w.<.6.^ 0 $ k L.H.H.H.J.L.s.  O O O m ,.>.,.~   * * * L $X%X$X$X,X3X3X3X3X$X1X3X3X3X3X3X3X3X3X2X1X#X .% Y <.7.7.7.7.7.7.w.w.7.3.~ O.$.,.,.;.,.,.;.,.;.,.,.>.,.,.>.#.@.>.k.k.6.1.k.1.k.1.h.1.h.6.7.7.7.7.",
"7.7.w.5.~ Y M 2 2 2 2 s.L.g.X y.y.t.h = = = =   X.E.E.X.q q q OX2X2X3X,X%XW.;X3X3X3X3X3X3X3X3X3X;X[. .  ;.7.4.7.7.7.7.4.7.4.7.7.h.~ O.@.:.;.*.,.:.:.,.;.,.;.>.>.#.@.,.w.k.h.1.h.1.k.k.1.1.h.1.h.7.4.7.7.",
"4.7.3.s 9 9 a m m m o i.L.g.X g g g k V V V V   t A A q & x   %X2X2X3X[.A `.,X3X3X3X3X3X3X3X3X;XOXI.6   %.4.4.k.7.7.7.7.7.4.7.7.h.;.#.O.$.:.>.>.;.,.;.:.*.*.;.@.+.:.6.w.1.k.1.h.1.k.1.4.h.<.h.h.7.7.7.7.",
",.m &.N k j y m m m l f.K.s.X 0 9 9 l V V V V g g g g > O x L ;X2X2X1X_.  X.%X;X1X3X3X3X3X3X3X#XY./ D D U <.4.3.<.3.3.6.4.6.3.3.h.h.,.~ O.=.*.;.*.:.;.*.:.*.$.O.#.6.w.w.1.h.1.4.1.1.1.h.<.h.-.<.3.4.<.4.",
"%.- ! d.g.G.a.2 2 2 i.H.g.V 1 h.1.1.a = # = = y.y.y.y.k :   2X2X2X3X&X'     P.E.^.[.,X,X,X=X&XY.r w XXXX* Y 4.1.2.<.<.1.1.<.,.1.h.<.<.<.O.O.$.$.*.$.$.=.*.@.O.+.w.7.1.4.1.1.1.1.1.h.1.1.1.h.h.<.1.4.<.4.",
"2.*.;.1 o V H.H.H.H.f.a.j < ;.,.<.2.,.*.O.O.O.O X @ O g u.; <X2X3X-XU.$ $ $ $     t ).)._.I...q O 8 ~.~.% ~ <.;.*.*.*.;.<.,.*.,.,.,.,.<.>.O.~ O.+.+.@.@.@.O.O.z.6.<.,.,.,.,.,.,.<.1.<.<.<.,.<.<.4.1.;.$.",
",.,.,.,.1.a             x ;.<.<.<.;.,.<.,.~ O.@.$.$.O.s w >X}.<X3X .2 f.g.f.g.>               v ,.I       M <.2.<.;.;.,.,.1.<.,.<.<.;.,.<.<.O.O.O.$.$.O.O.@.7.7.,.<.,.,.<.,.,.1.<.;.,.,.*.,.;.;.;.;.,.<.",
"1.1.1.<.1.;.%.%.+.~ %.~ ;.1.,.<.<.2.<.1.,.$.O.O.O.O.R v w >XXX Xd x n + + + + y.a.a.a.y.  I +.%.,.,.%.%.+.;.1.1.1.2.,.,.1.1.1.,.1.<.2.<.<.2.,.+.O.O.O.O.%.3.7.,.3.<.<.<.<.<.<.1.<.<.1.,.,.,.<.,.,.,.<.<.",
"1.1.1.<.1.1.1.1.<.1.<.1.1.6.<.1.1.<.1.1.<.1.%.O.R o.#.&.U w w 8 m ^ %.U Y Y Y 3 > > > > Z -.<.<.1.1.1.1.1.1.1.1.1.1.1.1.1.1.<.1.1.1.1.<.1.1.<.*.@.R o.@.<.7.6.<.<.<.1.1.6.<.1.<.<.6.1.1.1.1.1.1.1.<.1.1.",
"<.<.<.<.1.1.<.1.<.<.<.<.<.<.<.<.<.<.1.<.<.<.<.@.o.+.w.3.;.m b b %.1.1.<.<.<.<.Y b b b P &.<.<.<.1.1.<.<.<.<.<.<.<.<.<.5.<.<.1.1.<.5.<.1.<.1.<.1.*.R R 7.7.3.<.<.<.<.<.<.<.<.<.<.<.<.<.<.<.<.1.<.<.<.1.1."
};
