/* XPM */
static char *result[] = {
/* columns rows colors chars-per-pixel */
"50 100 187 2 ",
"   c #000001",
".  c #06070A",
"X  c #0B0B0B",
"o  c #0B0E13",
"O  c #001717",
"+  c #0C1014",
"@  c #011817",
"#  c #011718",
"$  c #001F1F",
"%  c #11161D",
"&  c #1A1B1B",
"*  c #171E26",
"=  c #171F29",
"-  c #012E2F",
";  c #182029",
":  c #1D2530",
">  c #1F2937",
",  c #003F3F",
"<  c #1B303C",
"1  c #242423",
"2  c #23282C",
"3  c #2B2B2A",
"4  c #212C3A",
"5  c #362836",
"6  c #343432",
"7  c #3F303F",
"8  c #3E3E3A",
"9  c #42423F",
"0  c #2A3644",
"q  c #273A4B",
"w  c #2C3B4C",
"e  c #323B48",
"r  c #2D3D51",
"t  c #313F51",
"y  c #4F394F",
"u  c #503F4F",
"i  c #004545",
"p  c #065558",
"a  c #005D5D",
"s  c #115157",
"d  c #3E4246",
"f  c #334459",
"g  c #36495F",
"h  c #394A5D",
"j  c #364A61",
"k  c #3A4D64",
"l  c #3E5066",
"z  c #3C516C",
"x  c #006464",
"c  c #006868",
"v  c #007373",
"b  c #007C7C",
"n  c #306E6E",
"m  c #444646",
"M  c #4B4B4A",
"N  c #404C59",
"B  c #56465A",
"V  c #5D4A5D",
"C  c #49585E",
"Z  c #545554",
"A  c #5C5C56",
"S  c #5E5E58",
"D  c #63635E",
"F  c #475668",
"G  c #4D5268",
"H  c #58576A",
"J  c #415671",
"K  c #455A75",
"L  c #4C5E73",
"P  c #445D7B",
"I  c #5E6369",
"U  c #4D667C",
"Y  c #586779",
"T  c #606060",
"R  c #6A6A65",
"E  c #6D6D69",
"W  c #73736D",
"Q  c #77617A",
"!  c #6B737D",
"~  c gray44",
"^  c #7C7C74",
"/  c #7E7E79",
"(  c #83837E",
")  c #455F80",
"_  c #456283",
"`  c #4A6686",
"'  c #476388",
"]  c #4A668B",
"[  c #4E6A8C",
"{  c #536A85",
"}  c #576C86",
"|  c #5A6C83",
" . c #526D8D",
".. c #4A7782",
"X. c #5C7286",
"o. c #52708F",
"O. c #5D728B",
"+. c #4E6C92",
"@. c #516E93",
"#. c #547195",
"$. c #5B7695",
"%. c #5D7896",
"&. c #56749A",
"*. c #59769C",
"=. c #5C799D",
"-. c #647285",
";. c #6D7782",
":. c #717882",
">. c #607D9E",
",. c #5677A0",
"<. c #5779A3",
"1. c #5C7CA2",
"2. c #5E7FA8",
"3. c #617EA2",
"4. c #825F82",
"5. c #897688",
"6. c #987398",
"7. c #009696",
"8. c #34898B",
"9. c #12A8A8",
"0. c #00B7B7",
"q. c #00BBBB",
"w. c #748293",
"e. c #5F80A9",
"r. c #6481A6",
"t. c #6983A3",
"y. c #6383AB",
"u. c #6985AB",
"i. c #6788AD",
"p. c #6989AF",
"a. c #738CAB",
"s. c #6586B0",
"d. c #6788B1",
"f. c #6C8CB3",
"g. c #6E8FB8",
"h. c #708FB6",
"j. c #6F90B9",
"k. c #7090B7",
"l. c #7293BB",
"z. c #7697C1",
"x. c #7798C3",
"c. c #7A9BC5",
"v. c #00C8C8",
"b. c #00D0D0",
"n. c #00D9D9",
"m. c #00E2E2",
"M. c #00E8E8",
"N. c #00F7F7",
"B. c #00F8F8",
"V. c #8C8C84",
"C. c #8E8E88",
"Z. c #919189",
"A. c #98988F",
"S. c #949692",
"D. c #9A9A91",
"F. c #A4A49B",
"G. c #ABAB9F",
"H. c #AE8EB2",
"J. c #AAAAA1",
"K. c #B2B2A7",
"L. c #B4B4AA",
"P. c #B9B9AD",
"I. c #B8B8B0",
"U. c #BFBFB8",
"Y. c #C5C5B9",
"T. c #C6C6BC",
"R. c #CB9CCB",
"E. c #D39BD3",
"W. c #D8A5D8",
"Q. c #EAB4EA",
"!. c #F3BBF3",
"~. c #CBCBC2",
"^. c #D1D1C4",
"/. c #D3D3CA",
"(. c #D9D9CC",
"). c #DDDDD1",
"_. c #E3C5DB",
"`. c #E2E2D6",
"'. c #E6E6D9",
"]. c #EAEADC",
"[. c #F8C0F8",
"{. c #EEEEE0",
"}. c #F6EEE7",
"|. c #F5F5E5",
" X c #F8F8E7",
".X c #F8F1EA",
"XX c #F8F8E8",
/* pixels */
"l.z.l.z.z.z.z.z.z.x.x.x.z.z.z.z.x.x.x.z.x.j.j.s.s.s.j.j.z.j.g.d.z.c.z.z.z.z.z.x.x.x.x.z.z.z.z.l.z.z.",
"x.x.z.z.z.x.z.x.z.x.z.z.z.z.z.z.x.x.z.x.x.x.d.e.e.e.z.z.z.z.z.x.x.z.z.z.z.z.z.z.x.z.z.z.z.z.x.z.z.x.",
"z.z.z.z.z.z.z.z.x.z.z.z.z.z.z.z.x.x.x.x.x.j.e.e.,.,.s.z.z.z.z.z.z.z.z.z.z.z.x.z.x.z.z.z.z.x.x.z.z.z.",
"l.z.z.z.j.z.z.z.z.z.z.z.z.z.z.z.x.l.x.x.g.e.,.z.s.e.e.e.g.g.z.z.z.z.z.z.j.z.z.z.x.z.l.z.z.l.z.z.z.z.",
"f.f.f.g.g.j.j.g.f.g.j.z.z.z.j.j.j.j.j.d.e.e.l.l.s.e.e.,.e.d.j.g.d.j.j.z.g.g.g.g.j.g.g.j.g.g.k.k.f.f.",
"d.d.f.d.f.f.j.g.s.d.d.g.g.g.j.g.f.g.d.e.e.s.c.i.s.s.e.e.,.s.d.g.j.j.j.d.d.g.j.j.g.g.s.f.g.k.s.f.f.d.",
"j.l.j.g.g.d.z.j.g.g.g.f.g.g.j.l.g.f.e.e.e.c.s.s.s.s.e.e.<.,.s.g.z.z.j.g.g.j.z.z.l.j.g.l.l.l.k.k.j.l.",
"z.z.l.j.z.g.j.j.z.j.z.l.j.l.l.z.g.e.+.f.c.e.s.e.e.s.s.s.e.<.,.e.j.j.z.j.z.g.z.j.l.l.l.l.l.l.l.l.z.z.",
"l.l.l.l.l.l.l.l.l.l.l.l.l.l.z.j.e.+.g.j.s.e.s.e.s.s.e.d.e.e.,.&.e.j.j.j.l.l.l.l.l.l.l.l.l.l.l.l.j.l.",
"k.l.k.l.l.l.k.l.l.l.l.j.l.j.f.1.&.k.g.s.e.e.e.s.e.e.s.e.e.e.e.e.e.e.j.j.l.l.l.l.l.l.l.l.k.l.k.l.l.g.",
"k.k.k.k.l.k.k.k.k.k.j.l.j.s.e.,.i.j.i.e.s.e.s.e.e.e.e.s.e.e.i.e.e.,.s.g.j.j.l.l.k.l.k.k.k.l.k.k.j.l.",
"k.k.k.k.k.k.k.k.k.k.k.j.j.e.,.e.z.e.e.e.e.e.e.e.s.e.e.e.s.e.e.s.e.,.,.s.g.j.k.k.k.k.k.k.k.k.k.k.k.g.",
"k.k.k.k.k.k.k.k.k.j.f.j.<.,.e.x.r.e.e.e.e.e.e.r.e.i.e.e.e.e.e.e.e.e.+.,.e.j.g.k.k.k.k.k.k.k.k.k.k.k.",
"k.k.k.k.f.k.k.k.k.j.f.,.&.s.l.e.e.e.e.r.e.e.e.e.e.e.e.e.e.e.e.e.e.e.e.o.e.e.j.f.k.k.f.k.k.k.f.k.g.k.",
"f.k.a.k.k.k.f.k.f.f.*.&.f.f.y.e.e.e.e.r.r.e.e.e.e.e.e.e.e.*.e.e.,.e.&.e.#.,.e.f.k.f.f.k.f.k.f.f.k.f.",
"i.i.i.p.i.i.p.i.i.e.&.i.i.e.=.e.e.e.&.r.e.e.e.*.e.*.*.r.e.*.*.<.,.,.,.&.,.+.o.e.i.f.f.i.i.i.e.i.i.i.",
"r.e.y.y.y.i.i.y.2.@.2.l.r.<.<.=.1.<.*.<.1.=.*.,.<.=.<.=.<.&.*.*.<.*.*.*.&.,.&.&.2.y.y.y.s.3.u.3.e.e.",
"i.d.f.i.i.p.p.1.@.<.l.y.3.1.1.<.<.*.*.*.1.1.*.<.=.e.<.=.e.<.=.=.*.*.e.=.<.,.&.+.&.u.s.s.s.f.f.u.y.i.",
"f.f.p.f.f.f.*.+.2.l.3.2.1.r.2.1.1.1.e.e.<.e.e.e.e.=.e.1.e.e.e.e.e.e.e.e.e.e.e.=.+.+.y.f.f.f.f.f.f.f.",
"p.f.f.p.f.&.&.e.f.3.2.1.1.1.1.1.1.e.1.1.e.=.e.=.=.e.1.1.e.=.=.e.*.e.=.e.e.=.1.1.<.#.@.3.f.d.p.p.i.f.",
"f.i.i.s.*.+.e.i.3.3.3.2.1.3.<.3.=.e.e.=.=.=.e.=.1.1.1.1.1.1.1.1.e.*.e.e.1.1.1.1.1.<.+.&.<.f.f.p.i.p.",
"i.i.s.=.+.e.s.i.,.1.1.1.<.<.3.<.e.<.=.e.<.e.<.=.1.<.1.1.<.=.1.1.*.e.e.*.<.1.1.1.1.1.,.#.,.2.d.d.i.f.",
"f.i.e.+.*.d.e.1.,.1.,.1.3.<.3.<.=.=.<.<.e.<.e.=.1.1.1.<.1.1.1.1.&.e.&.e.1.1.1.1.1.1.1.&.@.+.3.f.i.r.",
"i.*.+.&.l.e.=.=.3.,.3.<.3.<.*.3.=.<.=.=.=.<.*.=.1.=.1.=.1.1.1.<.e.&.e.*.1.=.<.1.*.=.<.<.,.+.+.3.p.r.",
"+.+.*.g.,.&.*.&.&.&.<.*.&.*.,.*.&.&.&.&.&.&.&.&.&.&.&.&.<.*.*.*.o.#.&.*.&.,.=.*.,.&.&.&.*.*.+.+.#.+.",
"+.+.&.p.&.@.&.&.@.&.&.&.&.@.&.&.&.&.=.&.&.*.#.#.&.&.&.&.&.&.&.&.#.#.&.#.&.#.&.&.&.*.*.&.@.&.+.+.+.[ ",
"2.&.+.*.*.*.*.*.&.*.&.&.&.*.*.*.*.*.<.*.*.<.&.&.*.=.<.*.&.*.&.&.*.*.,.,.*.*.&.&.*.*.3.*.&.+.+.3.e.#.",
"u.2.@.+.*.*.*.*.,.*.*.*.*.*.*.*.=.<.=.*.*.=.<.=.<.<.*.*.*.=.<.&.*.*.*.*.*.*.*.*.*.*.*.,.@.+.*.h.i.e.",
"u.u.3.@.+.&.*.,.*.*.*.*.*.1.*.*.*.<.=.=.&.*.=.=.=.*.=.*.=.*.=.=.$.#.&.r.<.*.=.*.*.*.,.@. .%.k.u.r.u.",
"3.u.u.3.+.] &.,.*.*.*.*.*.*.*.*.*.*.*.=.&.=.&.=.*.&.*.*.*.*.$.*.&.e.&.&.*.*.*.*.*.,.@.] *.k.u.u.r.i.",
"3.y.3.u.3.+.] @.*.1.*.*.*.*.*.*.*.&.$.*.*.=.&.$.*.*.&.*.*.&.&.=.e.o.&.$.&.&.*.*.*.@.[ 1.f.u.u.r.r.r.",
"u.u.y.r.3.1.@.+.@.*.*.&.*.*.#.*.&.&.*.&.&.&.&.&.&.&.&.$.&.&.&.$.$.#.o.e.&.&.*.&.@.] 1.u.u.r.r.r.r.r.",
"3.2.3.3.3.2.*.@.] @.&.&.&.t o o &.&.&.&.&.&.&.&.&.&.&.&.&.o + z *.&.&.&.&.$.&.#.[ *.u.u.u.3.3.3.3.3.",
"3.3.3.3.3.3.3.*.+.] @.&.h H 6.4.4 [ &.&.$.@.$.&.@.&.$. .4 4.6.G g &.&.&.#.#.@.` #.p.3.3.3.3.3.3.u.3.",
"3.a.3.3.3.3.3.3.,.] ] @.4 Q Q.E.  t ' @.@.@.@.&.@.#.) t   E.Q.V < #.#.o.@.@.] +.p.3.3.3.3.3.3.3.3.3.",
"*.3.#.*.3.3.>.*.*.&.] ] 0 Q W.W.7 5 N z z z l J z J w 5 7 W.W.B f ` { z U ` #.p.3.=.>.*.>.>.*.*.*.>.",
"3.3.*.3.>.*.*.>.3.3.>.] ' Y 5.!.!.E.y               y E.!.[.5.Y +.} T   Z O.3.3.=.1.3.=.$.=.&.=.3.>.",
"3.3.3.3.3.3.3.3.3.3.3.#.4   1 C.T T / Z.C.Z.Z.Z.Z.C./ T T Z.1   > J   0.# F 3.3.=.>.3.3.=.=.=.r.3.3.",
"3.3.3.3.3.3.3.3.3.3.3.4 m E W Z.( ( Z.Z.Z.Z.Z.Z.Z.C.V.( ( Z.W E Z %   0.O F 3.3.r.>.r.3.r.3.r.=.3.3.",
">.>.=.3.>.>.>.>.3.3.t m W Z.Z.V.Z.Z.Z.Z.C.Z.Z.C.Z.Z.Z.Z.Z.Z.Z.Z.R 1   0.O k 3.3.>.>.=.>.>.=.r.%.3.>.",
">.>.>.=.>.>.>.=. .k M V.C.C.S.J.Z.C.C.Z.Z.C.Z.C.Z.Z.Z.Z.C.J.Z.C.( Z   0.O k >.=.>.>.>.>.%.r.$.r.>.>.",
">.=.>.>.} >.3.O.L & (.F.A.Z.J./.A.Z.A.D.D.D.C.D.D.D.A.C.D./.J.S.A.E   0.O k >.$.{ >.>.=.r.=.r.$.>.>.",
"=.=.=.>.  K 3.j 6 /.XX/.G.K.).XX^.D.I.`.].~.C.T.{.`.I.D.^.XX(.J.J.D.  0.O k =.L   =.=.>.r.%.%.r.>.*.",
"o 0 } o Z & o . 8 |.XX|./.).|.XX|.~.`.XXXX{.~.{. XXX`.~.|.XXXX/.(.L.  0.O . o 3 Z + { 0 + 4 =.%.>.>.",
"3 m :   / M & 8 J.XXXXXX{.{.XXXXXX].|.XXXX X]..XXXXX|.].XXXXXX{.{.P.  0.# 1 e M /   : m 3 * =.=.O.$.",
"m 9 1 1 / ^ 3 S XXXXXXXXXXXXXXXXXXXX XXXXXXX X XXXXX XXXXXXXXXXXXXP.  0.# 1 Z ~ / 1 1 9 d w $.$.@.[ ",
"0 1 E H T ^ 5 A XXXXXXXXXXXXXXXXXXXXXXXXXXXXXXXXXXXXXXXXXXXXXXXXXXP.  0.#   9 ^ T T R 3 0 [ o.o.$.*.",
"w 6 V.T T T 1 A XXXXXXXXXXXXXXXXXXXXXXXXXXXXXXXXXXXXXXXXXXXXXXXXXXP.  q.#   6 S T T V.6 w &.$.#.$.$.",
"%.h X T Z.1   A  X XXXXXXXXXXXXXXXXXXXXXXXXXXXXXXXXXXXXXXXXXXXXXXXP.  0.@ ( R 1 Z.T X h %.$.%.$.$.$.",
"%.{ U X.1 A.M A  X XXXXXXXXXXXXXXXXXXXXXXXXXXXXXXXXXXXXXXXXXXXXXXXP.  0.@ ( D . 1 X.K  .$.$.$.$.$.$.",
"z.l.u.g ^ (.S A XXXXXXXX X).L.^ XXXXXXXXXXXXXXXXXXXXXXXXXXXXXXXXXXP.  0.@ V.W 1 ^ h k.z.l.z.z.l.z.l.",
"x.x.y.  XX XA A ].^.XXXX X(.F.S D.'.XXXXXXXXXXXXXXXXXXXXXXXXXXXXXXP.  0.# D.^ 8  X  u.z.x.z.x.z.z.x.",
"z.z.u.   XXXA A (.C.|. X X X}..X  (. XXXXXXXXXXXXXXXXXXXXXXXXXXXXXP.  0.# D.^ 8  X  u.z.z.z.z.z.z.z.",
"z.l.r.  XXXXS M U.C.^.}. X_.W.[.  (. XXXXXXXXXXXXXXXXXXXXXXXXXXXXXP.  0.# D.^ 8  X  u.l.z.l.z.z.z.x.",
"g.f.1.  XXXX'.D.A ].A.]._.Q.!.!.  (.XXXXXXXXXXXXXXXXXXXXXXXXXXXXXXP.  # 6.u ^ (.XX  >.l.j.j.g.k.f.f.",
"d.f.=.  XXXXXXD.8  XP.S H.!.R.V A `.XXXXXXXXXXXXXXXXXXXXXXXXXXXXXXP.    R.B ^ XX X  *.f.k.k.d.p.f.f.",
"l.l.p.0 D.'. XD.8  X`.S Q 6.5.6 L.{.XXXXXXXXXXXXXXXXXXXXXXXXXXXXXXP.    W.V ( (.D.0 y.l.l.l.l.k.l.z.",
"l.l.l.l.: A.(.G.A P.XX).W 8 A J.XXXXXXXXXXXXXXXXXXXXXXXXXXXXXXXXXXP.  - H.V ^ A.2 l.l.l.l.l.l.l.l.l.",
"l.l.l.l.l.: D. XP.   XXXXXXXXXXXXXXXXX XXXXXXXXXXXXXXXXXXXXXXXXXXXP.  0.@ D.^ : l.k.l.l.l.l.l.l.l.l.",
"l.l.l.k.l.k.0       XXXXXXXXXXXX X X X XXXXXXXXXXXXXXXXXXXXXXXXXXXP.  0.@   h k.l.k.l.l.l.l.l.l.l.l.",
"l.l.k.k.h.l.%. .F   (.|.XXXXXXXX8 8 8 V.`. X X X`.V.8 8 8 XXXXXXXXP.  0.O t 3.l.k.k.l.k.k.k.k.l.h.h.",
"k.k.k.k.g.l.g.h.>.h R '.XXXX(.^ ^ ^ ^ W E ^ ^ ^ E W ^ ^ ^ ^ (.XXXXP.  0.O K l.l.k.k.k.k.k.k.k.k.h.l.",
"k.k.k.k.h.h.g.l.h.g.  ~.|.XXT.3 XXXXXXJ.A S S S A J.XXXX|.3 Y.XX|.J.  0.# J h.h.k.k.k.k.k.k.h.h.h.h.",
"k.k.k.k.h.a.p.a.a.p.% D.(.XX).( `.|. XXXXXXXXXXXXX X|.|.`.V./.XX).Z.  0.# F a.h.k.f.g.g.k.k.g.g.h.g.",
"h.a.g.g.f.! ~ ~ ~ ~ <.o D. X XXX~ T.]. XXXXXXXXXXXXX'.T.~ XXXXXXD.    q.@ m ~ ;.g.g.f.g.f.f.f.f.f.k.",
"y.i.i.d.p.y.u.u.t.=.&.*.e V. X X].|. X XXXXXXXXXXXXX X|.'.XX XE 6 k   q.O g #.=.i.d.p.p.i.i.y.i.y.i.",
"r.r.y.i.y.u.p.r.1.@.3.w.L C (  XXXXX X XXXXXXXXXXXXXXXXXXXXX^ N F G   0.O g &.&.e.p.y.y.y.y.r.e.r.y.",
"d.d.f.y.i.p.p.r.O.-.a.-.>.F e D.D.(.|.XXXXXXXXXXXXXX X(.D.D.C K %.G   0.O j &.@.#.y.y.i.i.f.f.i.y.d.",
"p.f.f.f.f.k.*.} -.:.;.1.1.3.] = = S.K.P.Y.].).].T.P.J.( = ; ` 3.1.U   0.@ l 1.1.+.+.e.f.f.d.f.f.f.f.",
"p.f.d.f.p.*.#.e.g.3.3.2.1.1.3.3.1.o     6 ~.Z.T.6     + 3.1.1.1.1.P   0.@ l 1.1.<.#.+.e.f.f.f.i.p.p.",
"f.i.i.i.&.+.e.i.3.3.1.1.1.1.3.<.2.1.1.1.P       P 1.1.1.1.1.1.1.1.P   0.# k <.1.e.*.+.&.e.i.i.f.p.p.",
"f.i.s.<.#.1.i.i.<.1.1.1.1.1.<.<.1.1.1.1.#.P P K &.1.<.1.1.1.1.g = %   -   % = 0 1.1.*.&.#.e.i.i.f.p.",
"i.i.1.+.*.f.3.<.3.3.<.<.<.3.<.3.1.1.<.1.<.1.1.1.1.1.1.1.=.1.k s a x b b b c a s r 1.1.*.&.@.3.f.i.y.",
"i.1.+.&.z.3.3.,.,.*.<.3.3.*.3.,.1.1.=.1.=.1.*.<.1.=.1.<.<.k s 7.b.n.B.B.B.m.b.0.i k #.,.&.+.+.3.i.1.",
"+.+.*.j.,.@.,.*.&.&.3.&.*.,.*.,.&.&.&.&.&.&.&.&.&.&.&.&.=.  7.m.m.n.n.B.n.n.m.M.q.  ] &.,.,.+.+.#.+.",
"+.+.&.p.&.@.*.*.@.&.&.@.@.&.*.&.@.*.*.&.&.*.#.#.&.=.&.&.&.  q.b.v     N.$   a v.B.  [ &.&.@.+.+.+.[ ",
"<.&.@.<.,.,.,.*.,.*.*.*.*.&.&.&.*.=.*.,.*.<.&.*.*.<.*.*.&.  q.c < j   N.$ f q p N.   .<.*.+.+.3.e.&.",
"d.1.@.@.*.*.*.*.*.*.*.*.*.,.*.*.<.=.1.=.=.<.=.<.*.*.=.*.*.  q.a 4 P   N.$ j w , N.  [ *.@.@.*.f.p.1.",
"u.u.3.@.+.&.*.*.*.*.3.*.*.*.*.3.*.=.*.*.*.*.*.=.=.=.=.*.=.  q.a 4 K   N.$ h r , N.  ] @.[ *.h.u.u.u.",
"u.u.3.3.+.] @.*.,.*.*.*.*.*.*.*.*.*.*.*.*.*.*.*.&.*.*.*.*.  q.a 4 K   N.$ j r , N.  ) [ >.h.u.u.r.u.",
"3.2.3.2.3.@.+.@.*.*.*.$.=.&.*.&.*.*.*.&.*.*.&.#.$.*.*.$.*.  q.a 4 K   N.$ j e , N.  P 1.h.3.u.u.r.r.",
"a.2.a.3.3.*.+.+.@.&.&.&.&.$.&.&.&.&.&.$.*.*.&.*.*.&.&.&.&.  q.a 4 J   N.$ j 0 , N.   .u.u.u.3.u.r.e.",
"3.2.2.a.3.2.3.@.] @.&.&.&.&.$.&.#.&.&.&.*.#.*.&.&.*.#.$.&.M 9.n H { M v.C | U n v.M t.u.u.3.3.3.r.r.",
"3.3.3.2.3.3.3.*.+.+.#.#.&.&.&.#.&.&.#.$.#.#.#.&.#.&.&.#.&.Y 8...| #.Y 8.X.O.{ U 8.-.3.3.3.3.3.3.r.r.",
"3.3.3.3.3.3.3.3.*.' ' @.&.#.+.+.@. .#.@.@.@.#.&.@.@.#.[ @.@.I | &.&.#.T  .@.` { T r.3.3.3.3.3.3.r.r.",
"3.=.$.=.#.>.3.*.=.&.] [ ] +.@.#.+.@.@.[ @.@.[ @.@.@.@.[ @.[ Y } [ [ [ I  .[ @.t.T =.=.*.&.3.*.#.#.&.",
"3.3.>.3.*.*.*.>.3.3.1.] ] ] +.#.@.@.#.#.@.@.@.@.[ @.#.#.@.@.@.[ @.#.#.] ` &.t.1.1.=.3.=.*.*.*.3.>.=.",
"3.3.=.3.3.3.3.>.3.3.3.&.+.] o.#.@.&.&.#.@.@.#.@.@.@.&.#.#.@.@.@.@.#.+.' &.3.r.3.1.3.3.3.>.*.3.3.r.>.",
"3.3.3.3.3.3.3.3.%.r.r.=.#.[ ]  .#.+.#.#.#.#.#.#.@.@.@.&.@.&.#.#.@.@.` +.r.r.>.>.$.r.r.r.r.r.e.$.>.3.",
">.=.3.>.>.>.>.3.r.r.$.r.=.$.` ` [ #.#.#.#.o.#.#.#.&.O.#.@.#.#.#.[ _ [ u.r.>.r.>.r.r.$.r.$.%.r.r.>.=.",
">.>.>.=.>.>.>.=.r.$.r.=.r.$.&._ _ #.#.#.o.+.o.#.@.@.#.#.@.#.#.] n @.t.r.>.>.>.=.$.r.r.$.r.$.$.r.>.>.",
">.=.>.>.=.>.=.3.$.r.$.r.=.r.r.o._ _ [ o.#.#.o.o.O.@.@.@.#.@.` ` U r.r.r.>.=.>.>.r.$.$.r.$.r.r.$.>.=.",
"$.>.>.>.=.>.>.>.r.%.=.$.$.r.r.$.&._ ` [ o.o.o.+.o.o.o.#. .` ` @.r.r.$.$.r.r.r.$.$.$.r.$.r.$.r.r.=.>.",
"*.>.$.>.>.%.%.%.=.%.%.r.$.$.$.r.%.o._ ` ] o.o.o.o.[  .[ ` _  .=.r.r.$.r.o.$.$.r.r.$.$.e.$.r.$.$.>.=.",
">.$.#.#.>.%.O.&.#.#.$.r.#.#.$.$.$.$. ._ _ ] [ [ ` [ [ ] U ` >.>.$.$.$.r.$.$.=.$.=.$.$.$.$.$.=.=.$.%.",
"@.{ [ +.O.#. .@.o.o...#.o.o.#.#.$.$.#.[ U _ ` ` ` ` _ ) _ t.>.o.$.o.o.o.o.o.$.$.$.&...$.$.$.%.%.o.[ ",
"$.$.$.#.$.=.$.=.#.#.o.$.$.&.$.$.o.$.$.$.o.n ) ] [ ` ) ` 3.>.%.$.@.#.$.$.$.$.&.&.o.o.o.o.#.[  . .$.$.",
"$.$.$.*.$.%.$.$.$.$.$.$.$.$.$.$.$.%.$.$.$.&.) ) ) ) ` 3.>.>.*.%.%.%.$.$.$.=.%.$.%.%.$.$.$.&.#.$.%.$.",
"%.$.%.%.%.%.$.$.$.$.$.$.%.%.$.$.$.$.%.%.$.%.[ ) ) { $.>.$.$.$.$.%.%.$.$.%.%.$.$.%.%.%.%.%.%.%.$.$.%.",
"$.$.$.$.$.%.O.$.$.$.$.$.o.$.%.%.$.$.$.%.$.*.%.) P  .>.*.$.$.%.$.$.$.$.$.O.$.$.$.$.$.$.%.$.$.$.$.$.O."
};
