/* XPM */
static char *result[] = {
/* columns rows colors chars-per-pixel */
"50 100 188 2 ",
"   c #000101",
".  c #06080A",
"X  c #0C0C0C",
"o  c #0A0E12",
"O  c #001717",
"+  c #0C1015",
"@  c #0F1319",
"#  c #121211",
"$  c #1B1B1A",
"%  c #20201E",
"&  c #151C25",
"*  c #181D24",
"=  c #181F28",
"-  c #042425",
";  c #1C232D",
":  c #1E2632",
">  c #1F2B39",
",  c #0B383D",
"<  c #242423",
"1  c #26272A",
"2  c #30302C",
"3  c #232C35",
"4  c #232E3B",
"5  c #27313E",
"6  c #343432",
"7  c #393936",
"8  c #3E3E3A",
"9  c #42423F",
"0  c #263342",
"q  c #293543",
"w  c #2C3847",
"e  c #2B3949",
"r  c #283F50",
"t  c #483548",
"y  c #0D474D",
"u  c #065757",
"i  c #005C5C",
"p  c #37424F",
"a  c #344254",
"s  c #394657",
"d  c #3E4955",
"f  c #3A4C64",
"g  c #2E5466",
"h  c #3C526D",
"j  c #006C6C",
"k  c #007676",
"l  c #007C7C",
"z  c #2A7373",
"x  c #464646",
"c  c #484845",
"v  c #45494B",
"b  c #4D4D4B",
"n  c #55554F",
"m  c #534D55",
"M  c #555554",
"N  c #5C5C56",
"B  c #61615E",
"V  c #4E5565",
"C  c #42546B",
"Z  c #545C64",
"A  c #465B74",
"S  c #475B75",
"D  c #445C7C",
"F  c #495E78",
"G  c #6C5F78",
"H  c #725A71",
"J  c #5F6367",
"K  c #5F666C",
"L  c #47607F",
"P  c #4A617B",
"I  c #5F6873",
"U  c #55667A",
"Y  c #5E6C7C",
"T  c #626261",
"R  c #696965",
"E  c #6A6C6A",
"W  c #73736D",
"Q  c #696F76",
"!  c #6D7276",
"~  c #66717F",
"^  c #6A717A",
"/  c #747470",
"(  c #7C7C74",
")  c #82827E",
"_  c #455F80",
"`  c #456283",
"'  c #4A6685",
"]  c #476388",
"[  c #4A668B",
"{  c #4D6A8C",
"}  c #526885",
"|  c #5C6D83",
" . c #516E8E",
".. c #4E748D",
"X. c #5E7086",
"o. c #52708F",
"O. c #5F748D",
"+. c #4E6C92",
"@. c #516E92",
"#. c #547194",
"$. c #5B7795",
"%. c #5C7897",
"&. c #56749A",
"*. c #59769C",
"=. c #5C7A9C",
"-. c #657181",
";. c #617489",
":. c #607D9E",
">. c #5677A1",
",. c #5778A2",
"<. c #5C7CA2",
"1. c #5E7FA8",
"2. c #617DA2",
"3. c #866586",
"4. c #937295",
"5. c #9A7899",
"6. c #A57BA5",
"7. c #068484",
"8. c #008A8A",
"9. c #009B9B",
"0. c #1B9898",
"q. c #2A8E8E",
"w. c #398689",
"e. c #00A3A3",
"r. c #12A8A8",
"t. c #00BABA",
"y. c #0CBDBD",
"u. c #448086",
"i. c #5F80A9",
"p. c #6481A6",
"a. c #6383AB",
"s. c #6985AB",
"d. c #6887AB",
"f. c #6988AF",
"g. c #6687B1",
"h. c #6C8CB4",
"j. c #6E8FB8",
"k. c #718FB6",
"l. c #6F90B9",
"z. c #7090B7",
"x. c #7293BB",
"c. c #7697C1",
"v. c #7798C3",
"b. c #7A9BC5",
"n. c #00C7C7",
"m. c #00C8C8",
"M. c #00D0D0",
"N. c #00D9D9",
"B. c #00E0E0",
"V. c #00ECEC",
"C. c #00F0F0",
"Z. c #00F8F8",
"A. c #878780",
"S. c #8D8D85",
"D. c #909088",
"F. c #98988F",
"G. c #9B9B92",
"H. c #A2A29B",
"J. c #AA80AA",
"K. c #AF8AB2",
"L. c #B68EB6",
"P. c #BB92BA",
"I. c #AAAAA2",
"U. c #B4B4AC",
"Y. c #BABAAE",
"T. c #BDBDB5",
"R. c #C096BE",
"E. c #C4C4BB",
"W. c #C6C6BA",
"Q. c #CAA7C6",
"!. c #D8A7D8",
"~. c #D9A8D9",
"^. c #E4ACE4",
"/. c #E9B3E9",
"(. c #CDCDC4",
"). c #D3D3C6",
"_. c #D3D3CA",
"`. c #D9D9CB",
"'. c #DEDED2",
"]. c #E4E4D7",
"[. c #E6E6D9",
"{. c #EBEBDD",
"}. c #EDD6E3",
"|. c #F8CBF5",
" X c #EEEEE0",
".X c #F5F5E6",
"XX c #F8F8E7",
"oX c #F8F8E8",
/* pixels */
"c.c.c.x.c.c.c.c.c.v.v.v.c.c.c.c.v.v.v.c.v.v.c.i.i.g.c.c.c.c.j.j.c.v.v.v.c.c.v.v.v.v.v.c.c.c.c.c.l.c.",
"c.v.c.c.c.c.c.c.c.c.c.c.c.c.c.c.v.v.c.v.c.c.c.i.i.i.c.c.c.c.c.v.v.v.c.c.v.c.c.c.v.c.c.v.v.c.c.c.v.v.",
"c.c.c.c.c.c.c.c.v.c.c.c.c.c.c.c.v.v.c.c.v.c.,.,.>.>.i.c.c.c.v.v.c.c.v.c.v.v.v.c.c.c.c.c.c.c.c.c.c.v.",
"x.c.c.c.c.c.c.c.c.c.c.c.c.c.c.c.l.c.c.c.j.,.>.v.g.i.>.i.j.j.c.l.l.v.c.c.l.l.v.c.c.c.c.c.c.c.c.c.c.c.",
"h.h.h.h.j.j.j.j.h.h.l.l.c.c.l.l.l.l.l.g.i.,.x.l.g.g.i.>.i.g.l.j.j.l.l.l.j.j.j.j.l.h.h.l.z.j.h.h.h.h.",
"h.h.h.h.h.h.j.h.g.h.h.l.j.l.l.l.h.j.h.i.i.h.v.g.g.g.i.i.,.i.g.j.j.l.l.j.h.j.j.j.j.h.g.j.l.j.f.h.g.h.",
"j.c.l.j.h.h.c.h.j.j.j.h.j.j.l.l.j.h.i.i.i.b.g.g.g.g.i.i.,.>.g.l.l.c.x.j.j.l.l.c.c.l.j.x.x.x.z.z.c.l.",
"c.l.l.x.c.j.j.c.l.c.c.l.l.c.l.c.j.>.&.j.b.i.i.g.i.i.g.g.i.,.>.i.x.x.c.l.x.l.c.l.x.x.x.x.x.x.x.x.l.c.",
"x.x.x.x.x.x.x.x.l.l.x.x.x.x.c.l.*...l.l.g.i.i.d.i.g.i.g.i.i.*.&.i.l.l.x.x.x.x.x.x.x.x.x.x.x.x.x.x.x.",
"x.x.x.z.z.x.x.z.x.x.x.x.l.x.j.,.>.j.l.g.g.i.i.g.g.i.d.i.i.i.i.i.>.i.l.x.x.x.x.x.x.x.x.x.x.x.z.x.x.l.",
"z.z.z.x.z.z.z.z.l.x.z.l.l.g.i.&.j.j.i.i.i.i.g.i.i.i.i.g.g.i.a.i.i.>.i.l.l.x.l.l.z.z.z.x.x.z.z.z.x.x.",
"z.z.z.z.z.z.z.z.l.z.z.l.j.i.&.i.x.d.i.i.i.i.i.i.i.i.a.i.i.i.i.a.i.>.>.g.l.l.l.l.z.z.z.z.z.z.z.z.j.j.",
"z.k.k.k.z.z.z.z.z.z.j.l.,.>.i.b.i.i.i.i.d.i.i.i.g.i.i.a.i.i.p.a.i.i...>.g.l.l.j.z.z.k.k.z.z.z.z.z.z.",
"z.k.k.k.j.j.z.z.z.j.j.>.&.i.b.i.i.i.p.i.i.i.i.i.i.i.i.a.i.i.i.i.i.i.i.&.&.i.l.l.z.z.k.k.z.h.h.k.j.z.",
"h.z.z.z.j.h.h.z.h.h.&.&.f.z.i.i.p.p.i.p.p.i.i.i.i.i.i.i.i.i.i.i.*.i.>.&.&...i.l.z.k.h.k.z.z.h.k.z.h.",
"d.d.d.d.d.f.d.g.g.=.#.f.f.i.=.i.i.i...p.i.i.*.i.%.*.&.p.,.=.&.,.*.>.&.>.*.&.&.,.d.f.f.g.a.a.a.a.i.d.",
"i.i.d.d.i.f.f.i.<.&.1.l.2.<.,.,.<.,.,.=.,.<.=.,.,.=.,.=.,.=.=.>.,.>.=.&.>.&.#.&.<.g.a.a.s.2.s.2.i.a.",
"f.f.f.d.d.f.f.i.#.<.x.a.1.<.<.,.=.=.=.,.,.<.,.*.=.i.,.,.i.,.,.=.=.&.i.i.,.>.&.@.&.a.g.s.g.h.h.g.d.f.",
"h.h.f.h.h.j.&...,.x.2.2.<.a.<.<.<.i.<.<.<.i.<.<.i.<.i.<.i.i.=.i.i.i.i.=.i.i.i.=.+.+.a.h.h.h.h.h.f.z.",
"f.h.h.h.h.&...i.j.1.1.<.<.<.<.<.<.<.<.i.<.<.<.i.=.i.=.i.=.i.i.=.i.=.i.=.i.<.i.<.,.#.#.<.h.g.s.h.f.f.",
"h.f.f.f.&.@.i.f.2.<.<.<.<.<.<.<.<.<.<.<.<.<.<.<.<.<.=.<.<.<.<.<.=.=.i.*.<.<.<.<.1.,.@.#.>.g.h.h.f.f.",
"f.f.a.,.@.i.f.i.<.<.<.<.<.2.>.2.<.<.<.<.<.<.<.<.<.<.,.<.<.<.<.,.>.i.=.i.<.<.<.<.<.<.>.&.&.1.g.g.f.f.",
"f.d.,.@.*.f.i.i.<.<.<.<.<.<.>.>.<.<.<.<.<.<.<.<.<.<.<.,.=.,.<.<.*.i.>.i.<.<.<.<.<.<.,.&.&.+.1.h.f.i.",
"g.<.+.&.x.i.=.=.*.2.>.>.2.>.2.2.,.<.,.=.=.,.=.=.<.<.=.<.=.i.<.,.*.>.=.=.=.,.,.=.,.=.,.,.*.+.+.2.h.p.",
"+.+.*.l.>.&.>.&.&.*.>.*.&.&.>.*.*.&.&.&.&.&.&.&.&.&.&.&.,.*.=.*.&.&.>.&.&.>.=.&.&.&.&.&.&.*.+.+.+.{ ",
"{ +.&.g.&.@.&.&.&.@.&.&.&.&.&.&.#.=.,.&.&.*.#.#.&.,.*.&.&.&.&.&.#.&.&.&.#.&.&.&.&.*.>.*.&.&.+.+.+...",
"2.&.+.*.*.*.*.*.*.*.*.&.*.*.*.*.*.*.=.*.*.*.&.*.*.>.&.*.*.*.*.*.*.*.*.*.&.&.&.&.*.*.*.*.&.+.+.2.i.&.",
"h.<.@.+.&.*.*.*.>.*.*.*.*.*.*.*.,.=.,.*.<.*.*.<.=.=.,.*.*.*.*.,.*.*.>.*.,.=.&.=.*.2.*.*.+.+.*.k.d.i.",
"s.s.2.#.+.&.*.*.*.*.*.*.*.2.*.*.=.*.=.,.*.*.=.*.*.,.=.*.=.*.=.*.&.=.=.=.=.*.=.*.*.>.:.@. .:.x.s.d.s.",
"2.s.s.p.+.+.&.>.*.*.*.*.*.*.*.*.*.*.%.%.*.=.=.&.*.*.%.&.*.*.*.=.=.=.&.&.*.=.=.&.>.>.+.[ $.k.s.s.p.p.",
"s.2.p.p.2.+.[ @.*.,.*.*.*.*.&.*.*.*.&.&.*.*.*.&.*.&.$.*.*.&.&.&.&.&.&.=.&.&.&.&.&.@.{ 2.k.2.p.p.p.p.",
"a.a.p.p.2.<.@.+.@.*.*.*.*.*.&.&.*.*.&.&.&.*.#.&.&.&.*.&.&.&.%.&.&.&.&.=.&.&.=.&.+.{ <.s.s.p.p.d.p.p.",
"2.2.2.2.2.1.2.@.[ #.&.#.&.&.*.*.&.&.&.&.&.#.&.&.&.*.*.&.$.&.&.*.&.=.&.&.$.*.#.+.{ *.s.s.s.2.2.2.2.2.",
"k.1.2.2.2.2.2.*.+.[ @.&.&.*.#.#.#.&.#.&.#.&.#.&.#.#.&.#.#.*.#.&.&.&.&.&.#.#.@.[ #.s.2.2.2.2.2.2.s.2.",
"2.2.2.2.2.2.2.2.,.] [ @.#.#.+.+.@.@.@.@.@.#.#.&.@.#.@.@.@.#.#.&.#.#.#.@.@.@.[ @.h.2.2.2.2.2.2.2.2.2.",
"$.=.*.*.*.2.:.*.<.&.[ [ { { +.#.{ @.@.+.{ @.{ @.@.+.@.{ +.+.@.@...+.+.+.@.[ @.h.=.:.=.*.2.:.*.&.*.:.",
"2.2.:.2.:.*.*.:.2.2.=.[ [ { @.&.#.@.@.&.@.@.@.@.{ @.@.#.#.+.{ +.@.#.#.[ ] *.s.:.=.<.2.=.*.=.%.=.2.2.",
"2.2.=.2.2.2.:.2.2.2.2.*.{ [ +.#.#.&.#.#.@.@.&.@.@.@.#.#.#.+.#.@.@.@.{ ] *.2.2.2.=.:.2.2.=.2.=.=.2.2.",
"2.2.2.2.2.2.2.2.2.2.2.2.o.[ [ +.#.#.#.@.&.&.#.#.#.#.#.#.#.#.#.#.@.+.' @.p.2.2.2.2.p.2.2.2.2.p.p.2.2.",
":.:.:.:.:.:.2.:.:.:.:.:.p.$.[ ` @.@.#.#.@.@.#.@.#.#.#.#.#.#.#.#.{ ]  .s.2.:.:.:.:.:.:.:.=.2.%.p.:.:.",
":.:.=.:.:.:.:.:.=.p.=.p.%.p.$.` ] @.@.@.#.@.$. .o.#.#.#.+.#.#.[ ] } s.2.p.%.p.p.%.p.%.=.%.p.%.%.:.:.",
":.:.:.:.:.:.:.=.%.p.p.%.p.%.p.%._ ] { @.@.@. .@.#.#.o.o.o.#.[ ' { s.:.:.%.p.%.=.p.%.%.p.p.=.=.p.:.:.",
"=.=.=.:.=.:.:.=.p.%.=.=.%.=.p.=.O.] ] }  .#.@. .#.{ o.+. .' ' o.:.2.:.:.p.$.=.=.p.$.=.p.p.%.=.=.:.*.",
"*.=.=.%.:.=.%.%.%.%.=.=.%.%.%.%.:.@.' '  . . . .o.o.{ { ' ` +.=.p.:.%.%.$.p.%.=.$.p.%.$.%.p.%.=.:.:.",
"=.*.$.$.O.%.*.O.#.o.%.%.#.&.$.%.%.%.{ ` ` &   : [ {  .&   * :.:.%.%.%.%.%.%.%.=.$.%.%.=.%.%.=.=.O.$.",
" .}  . .#.#.@.@.#. .#.#.o...#.#.&.$.#.{ X K.!.4.* ` $ K.~.5.o @.#.#.#.o.#.#.$.%.$...o.$.$.#.%.%.@.{ ",
"$.$.$.#.$.$.:.O...&.#.$.%.$.$.$.o.#.F & L./.^.3.o ` o 6././.P.* P #.%.#.$.%.$.&.#...#.o...{ { o.#.*.",
"$.*.$.*.=.*.$.&.$.$.$.$.%.%.%.%.$.A 4   ^.^.4.t . 5 . t 6.^.^.  q P %.%.%.=.%.$.$.%.&.%.%.%.%.&.:.$.",
"$.$.$.:.%.$.$.%.%.%.$.$.%.$.$.;.' w $ < R.R.m < < < % < H R.R.< $ d P %.$.$.$.$.:.%.:.$.$.$.$.$.$.;.",
"$.$.#.O.$.%.#.%.%.O.$.$.$.$.$.%.3 2 E D.D.D.D.D.D.D.D.D.D.D.S.D.R < 4 ;.$.$.$.$.O.#.O.$.$.$.$.$.$.$.",
"x.c.x.c.x.v.v.v.x.v.v.v.c.c.c.@ N D.D.D.D.D.D.D.D.D.D.D.D.D.D.D.D.D.N @ x.T $ 2 Q c.v.c.c.c.c.x.c.c.",
"b.v.v.v.; @ a v.v.v.v.v.c.d.@ R A.D.D.D.D.D.D.D.D.D.D.D.D.D.D.D.D.D.) E @ X 7.u 5 c.c.c.a @ : c.c.v.",
"c.c.c.c.+ 6 v C v.e p.c.$.w N ) D.H.I.D.D.S.I.H.D.D.D.U.H.S.D.D.U.H.D.A.N   8.i . e v.a v 6 @ c.c.c.",
"x.c.c.c.r v x 1 D 1 v F p 6 H.F.H.E._.I.D.H.(.(.H.D.H.).E.H.D.I.`.T.H.D.I.  8.i X < F 1 x v a c.c.c.",
"h.h.h.j.l.w 1 m o R < . 1 / `.H.T.[. X_.F.E.{. X(.F.(. X].E.F._..X'.T.H._.  8.i $ R X N 1 q h.h.h.h.",
"h.j.h.g.h.q 6 ) T D.E 2 7 G.oX_.{.oXoXoX_. XoXoX.X)..X.XoX X_.oXoXoX{._..X  8.i < D.T A.6 q h.h.h.h.",
"z.c.x.z.h.h.A $ T B $ x H._.oXoXoXoXoXoXoXoXoXoXoXoXoXoXoXoXoXoXoXoXoXoXoX  8.i $ B T X S x.z.x.x.x.",
"x.x.x.x.z.x.A % ) T $ B )..XoXoXoXoXoXoXoXoXoXoXoXoXoXoXoXoXoXoXoXoXoXoX.X  8.i % ) B X S x.x.x.c.c.",
"x.x.x.x.x.z.:.d x 2 o W {.oXoXoXoXoXoXoXoXoXoXoXoXoXoXoXoXoXoXoXoXoXoXoXoX  8.i # c 6 s =.x.x.x.l.l.",
"x.x.z.x.z.x.z.:.=   < F.oXoXoXoXoXoXoXoXoXoXoXoXoXoXoXoXoXoXoXoXoXoXoXoXoX  8.i     ; f.z.z.z.z.l.l.",
"z.z.x.z.z.z.z.z.z.  H.].oXoXoXoXoXoXoXoXoXoXoXoXoXoXoXoXoXoXoXoXoXoXoXoXoX  8.i     z.z.z.z.z.z.k.z.",
"z.z.z.z.z.z.z.z.x.  Y.oXoXoXoXoXoXoXoXoXoXoXoXoXoXoXoXoXoXoXoXoXoXoXoXoXoX  8.i     z.z.z.z.z.z.l.k.",
"k.k.x.x.k.k.k.k.k.  Y.oXoXoXoXoXoXoXoXoXoXoXoXoXoXoXoXoXoXoXoXoXoXoXoXoXoX  8.i     z.z.z.z.k.k.k.l.",
"h.k.k.k.z.h.h.k.k.  Y.oXoXoXoXoXoXoXoXoXoXoXoXoXoXoXoXoXoXoXoXoXoXoXoXoXoX  8.i     k.h.z.k.h.k.k.k.",
"h.h.g.h.h.h.h.h.h.  Y.oXoXoXXXoXoXXXXXoXoXoXoXoXoXoXoXoXoXoXoXoXoXoXoXoXXX  8.i $ N A p.h.h.h.h.h.h.",
"d.d.f.f.f.f.p.} '   Y.XX.X'.XXXXoX.X{.'.oXoXoXoXoXoXoXoXoXoXoXoXoXoXoXoXoX  8.i 9 XX  F $.a.d.d.a.f.",
"a.a.d.d.d.g.C       Y.oX(.G.XXXXXX[.T.D.oXoXoXoXoXoXoXoXoXoXoXoXoXoXoXoX.X  8.i 8 oX    h d.d.a.a.a.",
"s.g.g.f.f.0 b _._.  Y.oXG.% XXXXoXoXY.  XXoXoXoXoXoXoXoXoXoXoXoXoXoXoXoXoX  8.i 8 oX  U.b 0 h.f.d.f.",
"h.h.f.j.g.0 M [._.  Y.oX`.T.8 `.oXoX XP.9 W.XXXXoXoXoXoXoXoXoXoXoXoXoXoXoX  - V 3.8 Y. XN q h.f.h.g.",
"f.f.h.f.f.5 N  X_.  I. XXX`.  `.}.}.|./.  T.XXXXoXoXoXoXoXoXoXoXoXoXoXoXoX    H J.  oX.XN q h.f.f.g.",
"f.f.g.f.*.> N .X'.b R T.XX].b F.Q./.~.5.6 W..XXXoXoXoXoXoXoXoXoXoXoXoXoXoX    H P.  XXXXN 0 g.f.f.f.",
"f.h.d.*.+.5 N XXoX).6 ( .X.X`.6 5.!.L.# G.].XXXXoXoXoXoXoXoXoXoXoXoXoXoXoX  O G P.% XXXXN 5 h.f.f.h.",
"f.d.,.@.<.0 N XXoXoX8 R '.oXoX`.b   < D.oXoXoXoXoXoXoXoXoXoXoXoXoXoXoXoXXX  8.i 8 oXoX.XN 4 2.g.f.f.",
"a.=.#.&.k.*.C N oXoX8 R '.oXoX.X[.`.`.{.oXoXoXoXoXoXoXoXoXoXoXoXoXoXoXoXXX  8.i 8 oXoX8 f [ @.2.d.=.",
"+.+.>.l.*.#.C e oXoXW./ / oXoXoXXXoXoXoXoXoXoXoXoXoXoXoXoXoXoXoXoXoXoXoX.X  8.i 8 oXoX% f *.+.+.+.+.",
"+.{ *.g.&.&.D t ( oXoX( N oXoXoXoXoXoXoXoXoXoXoXoXoXoXoXoXoXoXoXoXoXoXoXoX  8.i 9 oX( a D &.@.+.+.{ ",
"<.&.+.>.>.&.*._ = Y.Y./ W Y.XXXXoXoXoXoXY.Y.Y.W. XoX.XW.Y.Y.Y.oXoXoXoXoXoX  8.i 2 Y.& @.&.+.+.2.a.*.",
"g.<.&.+.&.&.*.*.:.    R ) % XXXXoXoXoXXX      b _.oX_.6       oXoXoXoXoXXX  8.i     <.*.@.+.2.h.f.<.",
"s.s.2.@.+.&.*.*.*.>.^ 7   $ (..XoXoXY.  (. X].)       G.]. X).  `.oXXX.X).  8.i = >.*.@.@.*.k.s.d.s.",
"s.s.s.2.+.[ &.*.*.*.:. .U M $ `.oXXX`.T .X.X.X[._.U.).[..X.X.XT [.oXoX_.$   8.i = &.+.{ :.k.s.s.a.p.",
"2.2.2.2.2.+.+.@.*.*.*.%.$.| x n Y.XX_.W '..XoXoX.X[.oXoXoX X'.! [.XXY.n x   8.i & @.{ 2.k.p.p.p.p.p.",
"s.2.k.2.2.2.+.+.@.*.$.;.;.X.~ 5 E E.'.H.I.'..XoXoXoXoXoX X`.I.I.].U.E 5 ~   8.i * | <.s.s.s.p.p.p.p.",
"2.s.1.k.2.1.2.@.] @.-.! ! ^ *.&.0 T T.`.) T. XoXoXoXoXoX].W.p.`.T.c 5 *.*.  8.i * ! s.p.s.2.2.2.p.p.",
"2.2.2.1.2.2.2.*.@.[ +.#.*.#.*.#.~ 7     XXXXXXXXoXoXoXoXXXXXXX    c ~ @.#.  8.i = s.s.2.2.p.2.2.p.p.",
"2.2.2.2.2.2.2.2.<.[ ] @.#.@.@.Q | +.@.@.    3.'.{.D. X`.B     $.&.#.X.Q @.  8.i ; 2.<.p.2.p.2.2.p.:.",
":.=.#.#.&.*.:.*.=.&.[ [ } Q ^ |  .@.@.+.h C s 7 6 < 8 7 v h h @.+.+.C * &   - O . = & ' *.*.*.*.#.&.",
"2.2.:.2.:.*.&.2.2.2.2.[ { Y -.&.@.#.#.#.#.@.f e w e e e h @.@.+.+.f y i i l l l k i i a P =.*.2.2.=.",
":.2.2.2.2.2.2.2.2.2.2.&.{ [ { #.#.#.#.&.#.@.&.@.+.@.@.*.@.@.@.@.S 4 j m.m.Z.Z.Z.V.m.n., g P =.2.2.:.",
"2.2.2.2.2.2.2.2.p.p.=.p.o.[ [ { #.#.#.#.#.#.#.#.#.#.#.#.#.#.@.#.o k M.C.N.N.Z.V.N.N.C.m.y 4 :.:.2.2.",
":.:.:.2.:.:.:.:.=.p.p.%.=.%.{ [ { #.#.#.@.#.#.#.@.#.#.@.#.#.#.#.o 9.B.e.    t.l     t.C.i 4 :.:.:.:.",
"2.:.:.2.:.:.:.:.p.%.p.%.p.%.%.` ' { #.o.#.{ o.#.@.#.@.#.@.#. .{ o 9.e.-  .  t.l ; } O N.i 4 p.:.:.:.",
"*.=.=.=.=.:.:.=.%.p.%.p.=.p.=.%.` ' { { #.#.#.#.@.@.@.#.#. .{ ` @ 9.9.+ :.  t.l ; =.  N.i 4 =.:.=.:.",
":.:.=.:.=.:.:.:.=.p.%.=.%.p.%.p.#.` ` { o.#.{ { o.#.o. . .' ` #.+ 9.9.o p.  t.l ; %.  N.i 4 =.=.:.=.",
"$.$.=.:.:.%.=.O.%.%.=.=.%.%.%.=.=.#.' ` { ..o.o.{ {  ...` ` o.=.+ 9.9.+ $.  t.l & %.  N.i 4 =.=.%.%.",
"$.$.O.#.:.*.#.O.#.#.$.%.#...%.$.%.=.o.` ' ' { { { { ..` L { :.:.+ 9.9.+ $.  t.l ; %.  N.i 4 %.%.%.*.",
"@.@. . . .#.@.@.o.o.#.$.o.#.$.#.#.#.$.{ L L ` ' ' ' ` L ' p.=.O.+ 9.9.+ o.  t.l & #.  N.i > %.%.#. .",
"$.$.$.$.%.%.%.&.#.$.$.$.$...$.&...$.$.$...` ` ' { ' ` ` 2.:.:.$.v 0.0.b $.c r.q.Z #.v y.z Z ......=.",
"$.=.*.$.%.%.%.%.$.$.$.%.$.$.%.%.%.%.$.=.&.#.D ` ` L ' :.:.$.$.$.Y ..w.Y %.Y w.u.;.%.Y w.Y ..%.#.%.%.",
"%.%.$.$.O.%.O.%.$.$.$.$.%.$.%.%.$.%.$.$.#.$. .D _ } %.:.$.$.$.$.%.I I %.O.%.K Y %.%.%.J Y O.$.%.%.%.",
"#.O.$.$.%.$.%.%.$.$.$.$.$.$.$.$.O.%.O.$.%.$.$.` D #.:.$.$.:.$.$.$.I I $.$.$.I I %.O.%.T X.$.$.$.O.%."
};
